<?xml version="1.0" encoding="utf-8"?>
<!-- Generator: Adobe Illustrator 20.1.0, SVG Export Plug-In . SVG Version: 6.00 Build 0)  -->
<svg version="1.1" id="Capa_1" xmlns="http://www.w3.org/2000/svg" xmlns:xlink="http://www.w3.org/1999/xlink" x="0px" y="0px"
	 viewBox="0 0 3309.5 883.8" style="enable-background:new 0 0 3309.5 883.8;" xml:space="preserve">
<g>
	<path d="M11.9,263.3c0-34,26.2-55.5,72.1-58.1l57-3.2v-16.6c0-24.3-16.1-38.8-43.6-38.8c-25.6,0-41.7,12-45.9,31.5H19.4
		c2.3-34.4,31.7-60.8,78.8-60.8c46.7,0,76.1,25.2,76.1,64.8v137.5h-31.5v-34.2H142c-11.9,22.8-37.1,37.7-63.9,37.7
		C38.5,323,11.9,299.1,11.9,263.3z M141,244v-16.3l-53.2,3.2c-26.8,1.7-42.1,13.6-42.1,32.3c0,18.9,15.9,31.4,39.8,31.4
		C116.9,294.7,141,272.7,141,244z"/>
	<path d="M216.5,120.7h31.4v32.5h0.8c6.5-22,24.9-35.9,48.2-35.9c5.7,0,10.7,1,13.4,1.3v32.3c-2.7-1-9.8-1.9-17.8-1.9
		c-25.8,0-42.6,18.5-42.6,46.7v123.9h-33.3V120.7H216.5z"/>
	<path d="M381.2,72.7v48h38.6V148h-38.6v118.2c0,18.2,7.6,26.4,24.7,26.4c3.8,0,11.5-0.6,13.8-1v27.9c-4,1-13.2,1.5-21,1.5
		c-36.5,0-50.7-14.9-50.7-53.2V148h-29.6v-27.3H348v-48H381.2z"/>
	<path d="M537.6,392.8v-27.9c3.6,0.8,8.8,1,13,1c18.5,0,28.9-9,36.5-32.1l4.6-14l-73.4-199h35.6L609,286.4h0.6l55.1-165.6h35
		l-78.2,212.8c-17,46.5-33.5,60.4-69.4,60.4C547.9,393.9,541.2,393.5,537.6,392.8z"/>
	<path d="M716,220.1c0-63.5,37.1-102.9,92.2-102.9c54.9,0,92,39.4,92,102.9c0,63.3-37.1,102.9-92,102.9
		C753.1,323,716,283.4,716,220.1z M866.2,220.1c0-46.8-22.9-73.6-58.1-73.6c-35.2,0-58.3,26.8-58.3,73.6s23.1,73.6,58.3,73.6
		C843.3,293.7,866.2,267,866.2,220.1z"/>
	<path d="M1096.8,319.6h-31.5v-32.3h-0.8c-11.9,22.9-32.5,35.8-63.1,35.8c-43.4,0-68.8-28.1-68.8-73.2V120.7h33.3v123.1
		c0,32.3,15.1,49.7,45.9,49.7c32.3,0,51.8-22.2,51.8-56V120.7h33.3v198.9H1096.8z"/>
</g>
<g>
	<path d="M1097.1,538.7v48h38.6V614h-38.6v118.2c0,18.2,7.6,26.4,24.7,26.4c3.8,0,11.5-0.6,13.8-1v27.9c-4,1-13.2,1.5-21,1.5
		c-36.5,0-50.7-14.9-50.7-53.2V614h-29.7v-27.3h29.6v-48H1097.1z"/>
	<path d="M1163.1,729.3c0-34,26.2-55.5,72.1-58.1l57-3.2v-16.6c0-24.3-16.1-38.8-43.6-38.8c-25.6,0-41.7,12-45.9,31.5h-32.1
		c2.3-34.4,31.7-60.8,78.8-60.8c46.7,0,76.1,25.2,76.1,64.8v137.5H1294v-34.2h-0.8c-11.9,22.8-37.1,37.7-63.9,37.7
		C1189.7,789,1163.1,765.1,1163.1,729.3z M1292.2,710v-16.3l-53.2,3.2c-26.8,1.7-42.1,13.6-42.1,32.3c0,18.9,15.9,31.4,39.8,31.4
		C1268.1,760.7,1292.2,738.7,1292.2,710z"/>
	<path d="M1369.4,509.6h33.3v275.9h-33.3V509.6z"/>
	<path d="M1570.6,586.7h40.3l-86.2,85.9l88.9,113H1575l-73.8-92.6l-18.5,17.6v75h-33.3v-276h33.3V675L1570.6,586.7z"/>
	<path d="M1635.4,532.6c0-11.5,9.4-20.7,20.7-20.7c11.5,0,20.8,9.2,20.8,20.7c0,11.3-9.4,20.7-20.8,20.7
		C1644.7,553.2,1635.4,543.9,1635.4,532.6z M1639.4,586.7h33.3v198.9h-33.3V586.7z"/>
	<path d="M1717.6,586.7h31.4v31.7h0.8c11.1-21.4,32.3-35.2,63.1-35.2c43.6,0,68.8,28.1,68.8,73.2v129.1h-33.3V662.4
		c0-32.1-15.1-49.7-45.7-49.7c-31.4,0-51.8,22.2-51.8,55.8v117h-33.3L1717.6,586.7L1717.6,586.7z"/>
	<path d="M1922,802h34.2c6.5,18.2,26.2,30.2,51.1,30.2c34.4,0,55.3-19.9,55.3-49.5v-31.4h-0.8c-12.2,21.6-35.8,35.8-63.7,35.8
		c-50.7,0-83.9-40-83.9-101.7c0-62.3,33.3-102.1,84.7-102.1c28.1,0,51.4,13.8,64.6,36.9h0.6v-33.5h31.7v194.8c0,47.4-35,79-89.9,79
		C1962.1,860.5,1927.5,835.8,1922,802z M2062.5,685.4c0-43.8-23.1-72.8-57.7-72.8c-34.2,0-56.6,28.3-56.6,72.8
		c0,44.6,22.4,72.5,56.6,72.5C2039.4,757.8,2062.5,729.1,2062.5,685.4z"/>
	<path d="M2263.3,538.7v48h38.6V614h-38.6v118.2c0,18.2,7.6,26.4,24.7,26.4c3.8,0,11.5-0.6,13.8-1v27.9c-4,1-13.2,1.5-21,1.5
		c-36.5,0-50.7-14.9-50.7-53.2V614h-29.6v-27.3h29.6v-48H2263.3z"/>
	<path d="M2327.5,686.1c0-63.5,37.1-102.9,92.2-102.9c54.9,0,92,39.4,92,102.9c0,63.3-37.1,102.9-92,102.9
		C2364.6,789,2327.5,749.4,2327.5,686.1z M2477.8,686.1c0-46.8-22.9-73.6-58.1-73.6c-35.2,0-58.3,26.8-58.3,73.6
		s23.1,73.6,58.3,73.6S2477.8,733,2477.8,686.1z"/>
	<path d="M2625.4,586.7h31.4v31.7h0.8c9.4-21,29.6-35.2,56.4-35.2c27.2,0,47.2,13.8,55.8,37.9h0.8c11.1-23.7,34.4-37.9,62.3-37.9
		c39.4,0,64.8,25.6,64.8,65v137.3h-33.3V655.9c0-27.2-15.1-43.2-41.3-43.2c-26.4,0-44.9,19.5-44.9,46.5v126.4h-33.3V652.3
		c0-23.9-16.1-39.6-40.7-39.6c-26.4,0-45.5,20.7-45.5,48.2v124.7h-33.3V586.7z"/>
	<path d="M3104.6,728.6c-5.7,34.8-39.4,60.4-82.8,60.4c-57,0-91.6-39.6-91.6-102.1c0-61.8,35.2-103.6,90.1-103.6
		c53.7,0,86.8,39,86.8,99.2v12.6h-142.6v1.9c0,38.1,22.4,63.1,58.1,63.1c25.2,0,43.8-12.8,49.3-31.5H3104.6z M2964.6,669.1h108
		c-0.8-33.3-21.6-57-53-57C2988.5,612.1,2966.7,636,2964.6,669.1z"/>
	<path d="M3213,507.5c48.2,0,81.1,29.8,81.1,69.2c0,30-15.5,51.2-40,66c-24.3,14.3-31.2,25-31.2,45.1v12.4h-33.5v-17.6
		c-0.2-25.2,12-42.4,38.2-58.1c22.2-13.6,30.8-25.6,30.8-46.1c0-23.7-18.4-41.1-46.8-41.1c-28.9,0-47.2,17-49.3,44.4h-32.7
		C3131.7,540.4,3159.3,507.5,3213,507.5z M3184.5,765.7c0-12.4,9.6-21.8,21.8-21.8c12.4,0,21.8,9.4,21.8,21.8
		c0,12.2-9.4,21.8-21.8,21.8C3194.1,787.5,3184.5,777.9,3184.5,765.7z"/>
</g>
</svg>
