<?xml version="1.0" encoding="utf-8"?>
<!-- Generator: Adobe Illustrator 20.1.0, SVG Export Plug-In . SVG Version: 6.00 Build 0)  -->
<svg version="1.1" id="Capa_1" xmlns="http://www.w3.org/2000/svg" xmlns:xlink="http://www.w3.org/1999/xlink" x="0px" y="0px"
	 viewBox="0 0 3566.8 431.9" style="enable-background:new 0 0 3566.8 431.9;" xml:space="preserve">
<style type="text/css">
	.st0{fill:#1C1D1B;}
</style>
<g>
	<path class="st0" d="M76.7,267.1c0-44.9,33-54.6,83-60.7c28.4-3.2,46.7-7.9,46.7-27.7c0-20.8-14.7-33.8-41.3-33.8
		c-30.5,0-45.3,14.4-46.3,37.4H86.4c1.4-32.7,26.2-61.8,78.3-61.8c18.3,0,34.5,3.2,46.7,10.4c16.2,9.7,25.9,26.6,25.9,52.4v90.1
		c0,15.4,3.6,23.7,20.5,20.1h1.4v23.3c-4.7,1.4-10.1,2.9-18,2.9c-20.5,0-30.5-9.7-34.1-30.2h-0.4c-12.2,16.9-32,32.3-64.7,32.3
		C105.4,322.1,76.7,304.1,76.7,267.1z M206.7,247v-31.6c-9.7,6.1-26.6,10.8-42.4,13.7c-31.6,5.4-52.4,11.1-52.4,37.7
		c0,24.8,19,30.9,38.4,30.9C188.8,297.7,206.7,269.3,206.7,247z"/>
	<path class="st0" d="M313.1,160.1h1.1c11.9-22.3,31.6-37.4,57.1-37.4c5.4,0,8.6,0.7,12.2,2.2v31.6h-1.1c-4.7-1.4-7.9-1.8-13.7-1.8
		c-29.8,0-55.3,22.3-55.3,58.5v104.9h-33.4V125.3h33V160.1z"/>
	<path class="st0" d="M400.5,125.3h30.2V64.6h33v60.7h39.9v25.9h-39.9v121.8c0,14,7.5,18,19.8,18c5.7,0,13.3-1.4,16.9-2.5h1.1v28
		c-9,2.2-18.3,3.2-26.9,3.2c-25.9-0.4-43.8-10.8-43.8-39.1V151.1h-30.2V125.3z"/>
	<path class="st0" d="M629.2,381.3v-28.7h1.4c3.6,2.2,11.9,3.6,20.1,3.6c13.3,0,21.9-5,28.7-23.3c0-0.7,7.5-22.3,6.8-24.4
		l-73.6-183.2H649l39.9,107c7.9,21.9,16.2,52.1,16.2,52.1h0.7c0,0,9-30.5,16.5-52.1l38.4-107h34.8l-81.9,210.5
		c-15.8,40.6-31.2,49.6-56,49.6C646.8,385.3,634.6,383.5,629.2,381.3z"/>
	<path class="st0" d="M795.3,221.9c0-56,36.3-101.3,94.5-101.3c58.2,0,93.7,45.3,93.7,101.3c0,56.4-35.6,101.6-93.7,101.6
		C831.6,323.5,795.3,278.3,795.3,221.9z M949.4,221.9c0-41.7-20.5-74.7-60-74.7c-39.5,0-60,33-60,74.7s20.5,74.3,60,74.3
		C929,296.2,949.4,263.5,949.4,221.9z"/>
	<path class="st0" d="M1135.1,318.1v-26.9h-0.7c-13.7,19-30.5,31.2-58.2,31.2c-39.9,0-65.4-24.1-65.4-64.3V125.3h33.4v131.1
		c0,24.4,15.4,38.8,42,38.8c29.4,0,48.5-22.6,48.5-52.4V125.3h33.4v192.9H1135.1z"/>
	<path class="st0" d="M1298.2,125.3h30.2V64.6h33v60.7h39.9v25.9h-39.9v121.8c0,14,7.5,18,19.8,18c5.7,0,13.3-1.4,16.9-2.5h1.1v28
		c-9,2.2-18.3,3.2-26.9,3.2c-25.9-0.4-43.8-10.8-43.8-39.1V151.1h-30.2V125.3z"/>
	<path class="st0" d="M1418.8,267.1c0-44.9,33-54.6,83-60.7c28.4-3.2,46.7-7.9,46.7-27.7c0-20.8-14.7-33.8-41.3-33.8
		c-30.5,0-45.3,14.4-46.3,37.4h-32.3c1.4-32.7,26.2-61.8,78.3-61.8c18.3,0,34.5,3.2,46.7,10.4c16.2,9.7,25.9,26.6,25.9,52.4v90.1
		c0,15.4,3.6,23.7,20.5,20.1h1.4v23.3c-4.7,1.4-10.1,2.9-18,2.9c-20.5,0-30.5-9.7-34.1-30.2h-0.4c-12.2,16.9-32,32.3-64.7,32.3
		C1447.5,322.1,1418.8,304.1,1418.8,267.1z M1548.8,247v-31.6c-9.7,6.1-26.6,10.8-42.4,13.7c-31.6,5.4-52.4,11.1-52.4,37.7
		c0,24.8,19,30.9,38.4,30.9C1530.8,297.7,1548.8,269.3,1548.8,247z"/>
	<path class="st0" d="M1623.3,50.9h33.4v267.2h-33.4V50.9z"/>
	<path class="st0" d="M1756.3,216.5l-27.3,25.9v75.8h-33.4V50.9h33.4v126.8c0,6.8-0.7,20.5-1.4,29.8l83.7-82.3h41.7l-73.6,69.3
		l82.3,123.6h-39.2L1756.3,216.5z"/>
	<path class="st0" d="M1881.5,50.9h34.8v38.8h-34.8V50.9z M1882.2,125.3h33.4v192.9h-33.4V125.3z"/>
	<path class="st0" d="M1987.3,152.6h1.1c14-19.4,33-32,61.1-32c40.2,0,65,22.6,65,62.9v134.7h-33V187.4c0-24.8-16.2-38.8-42.4-38.8
		c-29.8,0-51.4,21.2-51.4,52.1v117.4h-33.4V125.3h33V152.6z"/>
	<path class="st0" d="M2149.1,331.4h31.2c2.9,20.1,22.3,28.4,51,28.4c34.5,0,53.5-15.4,53.5-48.1v-5.4c0-11.1,0.4-21.6,0.7-27.7
		h-0.7c-13.3,19-30.2,30.9-57.5,30.9c-49.2,0-84.4-38.4-84.4-94.5c0-59.3,37.4-94.5,82.6-94.5c27.7,0,46.3,10.8,58.5,30.2h0.7v-25.5
		h33v185c0,25.5-8.6,44.5-23.3,57.1c-15.1,12.6-36.6,18.3-62.5,18.3C2181.4,385.7,2152.7,365.5,2149.1,331.4z M2287,213.6
		c0-40.6-18.3-65.4-56.7-65.4c-35.2,0-53.2,26.6-53.2,67.2c0,40.9,18.7,66.8,53.5,66.8C2272.7,282.2,2287,252.8,2287,213.6z"/>
	<path class="st0" d="M2447.9,125.3h30.2V64.6h33v60.7h39.9v25.9h-39.9v121.8c0,14,7.5,18,19.8,18c5.7,0,13.3-1.4,16.9-2.5h1.1v28
		c-9,2.2-18.3,3.2-26.9,3.2c-25.9-0.4-43.8-10.8-43.8-39.1V151.1h-30.2V125.3z"/>
	<path class="st0" d="M2559.1,221.9c0-56,36.3-101.3,94.5-101.3c58.2,0,93.7,45.3,93.7,101.3c0,56.4-35.6,101.6-93.7,101.6
		C2595.4,323.5,2559.1,278.3,2559.1,221.9z M2713.2,221.9c0-41.7-20.5-74.7-60-74.7c-39.5,0-60,33-60,74.7s20.5,74.3,60,74.3
		C2692.7,296.2,2713.2,263.5,2713.2,221.9z"/>
	<path class="st0" d="M2878.4,125.3h33V154h1.1c11.9-20.8,32.3-33.4,57.1-33.4c23.3,0,42,12.2,49.9,35.9h0.7
		c13.6-24.1,36.3-35.9,59.6-35.9c35.2,0,59.6,22.6,59.6,62.9v134.7h-33.4V186.3c0-23.7-15.4-37.7-34.8-37.7
		c-24.4,0-45.6,21.2-45.6,50.6v118.9h-33V186.3c0-23.7-13.3-37.7-33-37.7c-23,0-47.8,21.2-47.8,50.6v118.9h-33.4V125.3z"/>
	<path class="st0" d="M3167.9,221.9c0-56,37-101.3,92.3-101.3c28.7,0,51,11.1,66.1,29.8c15.8,19,23.7,46.7,23.7,79.4h-148
		c2.5,37.7,23,66.4,60.3,66.4c26.6,0,44.9-12.6,51-33h32.7c-8.6,35.9-39.5,60.3-84,60.3C3202.7,323.5,3167.9,278.3,3167.9,221.9z
		 M3202.7,205.7h111.7c-1.8-37-20.8-59.3-54.2-59.3C3225.3,146.4,3207,171.6,3202.7,205.7z"/>
	<path class="st0" d="M3457.4,165.1c16.5-14.4,32-26.2,32-49.2c0-22.6-16.9-40.2-47.1-40.2c-37.4,0-56,24.4-57.1,57.1h-33.8
		c1.1-43.5,28.7-86.6,90.9-86.6c51,0,82.2,30.2,82.2,69c0,29.5-16.2,46.3-33.8,60.7c-15.4,12.9-25.1,21.5-31.6,30.2
		c-6.5,9-8.3,18.7-8.6,34.5h-31.2C3419.7,204.6,3430.1,188.8,3457.4,165.1z M3415.4,278.6h39.1v39.5h-39.1V278.6z"/>
</g>
</svg>
