<svg viewBox="0 0 3567 432" fill="none" xmlns="http://www.w3.org/2000/svg">
<g clip-path="url(#clip0_3_23)">
<path d="M247.129 345.845C237.168 345.845 232.188 341.597 232.188 333.101C232.188 331.636 232.188 330.318 232.188 329.146C232.481 327.681 232.774 326.216 233.067 324.751L238.779 297.066H237.461C228.086 314.058 217.246 327.388 204.942 337.056C192.93 346.431 177.843 351.118 159.679 351.118C148.253 351.118 138.146 349.067 129.357 344.966C120.568 340.864 113.097 335.152 106.945 327.827C101.086 320.21 96.5446 311.421 93.322 301.461C90.0993 291.207 88.488 279.928 88.488 267.623C88.488 248.287 90.8318 229.684 95.5192 211.813C100.207 193.649 107.091 177.536 116.173 163.474C125.548 149.411 137.12 138.279 150.89 130.076C164.659 121.58 180.479 117.332 198.35 117.332C215.928 117.332 230.283 121.433 241.416 129.636C252.842 137.546 260.605 148.533 264.707 162.595H266.025L294.15 20.6531H309.091L246.689 332.222H283.164L280.527 345.845H247.129ZM161.876 337.495C171.251 337.495 179.6 336.03 186.924 333.101C194.542 330.171 202.159 325.484 209.776 319.038C218.272 311.714 225.889 302.632 232.627 291.793C239.658 280.66 244.639 267.769 247.568 253.121L259.433 194.675C260.898 187.35 260.898 180.026 259.433 172.702C257.969 165.085 254.746 158.2 249.766 152.048C245.078 145.896 238.486 140.915 229.99 137.107C221.494 133.005 211.094 130.955 198.79 130.955C175.059 130.955 155.724 139.011 140.782 155.124C125.841 170.944 115.587 192.624 110.021 220.163L106.505 239.498C105.627 244.186 104.894 248.873 104.308 253.561C104.015 257.955 103.869 263.082 103.869 268.941C103.869 278.316 104.894 287.252 106.945 295.748C109.289 303.951 112.804 311.128 117.492 317.281C122.472 323.433 128.478 328.413 135.509 332.222C142.833 335.738 151.622 337.495 161.876 337.495Z" fill="black"/>
<path d="M397.108 351.118C371.327 351.118 351.552 343.794 337.782 329.146C324.306 314.497 317.568 292.086 317.568 261.91C317.568 241.989 320.204 223.239 325.478 205.661C331.044 188.083 338.661 172.849 348.329 159.958C358.29 146.775 370.008 136.374 383.485 128.757C397.254 121.14 412.342 117.332 428.748 117.332C449.256 117.332 466.101 122.166 479.285 131.833C492.468 141.501 499.06 155.124 499.06 172.702C499.06 181.198 496.862 189.548 492.468 197.751C488.367 205.954 480.31 213.424 468.298 220.163C456.58 226.901 439.881 232.614 418.201 237.301C396.522 241.696 368.397 244.186 333.827 244.772C333.534 247.115 333.241 250.338 332.948 254.44C332.655 258.248 332.509 261.324 332.509 263.668C332.509 288.863 338.075 307.466 349.208 319.478C360.341 331.489 376.454 337.495 397.547 337.495C414.832 337.495 430.213 333.101 443.689 324.312C457.166 315.23 468.298 302.779 477.087 286.959L488.952 294.429C476.941 314.351 463.025 328.853 447.205 337.935C431.678 346.724 414.979 351.118 397.108 351.118ZM426.99 130.515C415.565 130.515 404.871 132.859 394.91 137.546C385.243 141.941 376.454 148.24 368.544 156.443C360.927 164.646 354.335 174.46 348.768 185.886C343.495 197.311 339.686 209.762 337.343 223.239L335.585 232.028C366.639 231.442 391.688 229.391 410.731 225.875C430.066 222.36 445.008 217.965 455.554 212.692C466.394 207.126 473.718 200.973 477.527 194.235C481.335 187.497 483.24 180.319 483.24 172.702C483.24 159.519 478.552 149.265 469.177 141.941C460.095 134.324 446.033 130.515 426.99 130.515Z" fill="black"/>
<path d="M580.735 351.118C562.571 351.118 546.605 347.456 532.835 340.132C519.066 332.808 507.494 322.261 498.119 308.492L509.984 299.703C526.683 325.191 550.267 337.935 580.735 337.935C600.071 337.935 615.598 333.394 627.317 324.312C639.036 314.937 644.895 301.461 644.895 283.883C644.895 271.285 641.379 262.057 634.348 256.197C627.317 250.045 616.77 245.211 602.708 241.696L581.614 236.422C573.997 234.664 566.819 232.467 560.081 229.83C553.636 226.901 548.07 223.385 543.382 219.284C538.695 214.889 535.033 209.616 532.396 203.464C529.759 197.311 528.441 189.841 528.441 181.052C528.441 171.091 530.345 162.155 534.154 154.245C537.962 146.335 543.236 139.744 549.974 134.47C556.712 128.904 564.622 124.656 573.704 121.726C583.079 118.797 593.333 117.332 604.466 117.332C622.922 117.332 637.717 120.701 648.85 127.439C659.983 134.177 669.064 142.234 676.096 151.609L665.109 161.277C662.18 157.175 658.811 153.22 655.002 149.411C651.487 145.603 647.239 142.38 642.258 139.744C637.571 136.814 632.004 134.617 625.559 133.152C619.114 131.394 611.79 130.515 603.587 130.515C585.13 130.515 570.482 134.91 559.642 143.699C548.802 152.195 543.382 164.353 543.382 180.173C543.382 192.477 546.751 201.852 553.49 208.297C560.521 214.743 571.067 219.577 585.13 222.799L605.784 228.073C613.694 230.123 620.872 232.467 627.317 235.104C634.055 237.741 639.768 241.256 644.455 245.651C649.436 249.752 653.244 254.879 655.881 261.031C658.518 266.891 659.836 274.215 659.836 283.004C659.836 294.136 657.785 303.951 653.684 312.447C649.582 320.943 644.016 328.12 636.985 333.98C629.954 339.546 621.604 343.794 611.936 346.724C602.268 349.653 591.868 351.118 580.735 351.118Z" fill="black"/>
<path d="M735.916 122.605H751.296L741.189 171.384H742.507C751.882 154.392 762.575 141.208 774.587 131.833C786.892 122.166 802.126 117.332 820.29 117.332C831.715 117.332 841.823 119.382 850.612 123.484C859.4 127.585 866.725 133.445 872.584 141.062C878.736 148.386 883.424 157.175 886.646 167.429C889.869 177.39 891.48 188.522 891.48 200.827C891.48 220.163 889.136 238.912 884.449 257.076C879.762 274.947 872.73 290.914 863.356 304.976C854.274 319.038 842.848 330.318 829.079 338.814C815.309 347.017 799.489 351.118 781.618 351.118C764.04 351.118 749.538 347.163 738.113 339.253C726.98 331.05 719.363 319.917 715.261 305.855H714.383L688.895 433.734H673.953L735.916 122.605ZM781.179 337.495C804.909 337.495 824.245 329.585 839.186 313.765C854.127 297.652 864.381 275.826 869.947 248.287L873.463 228.952C874.342 224.264 874.928 219.723 875.221 215.329C875.807 210.641 876.1 205.368 876.1 199.509C876.1 190.134 874.928 181.345 872.584 173.142C870.533 164.646 867.018 157.321 862.037 151.169C857.35 145.017 851.344 140.183 844.02 136.667C836.696 132.859 828.053 130.955 818.092 130.955C808.717 130.955 800.221 132.419 792.604 135.349C785.28 138.279 777.81 142.966 770.193 149.411C761.697 156.736 753.933 165.964 746.902 177.097C740.164 187.936 735.33 200.68 732.4 215.329L720.535 273.775C719.07 281.099 719.07 288.57 720.535 296.187C722 303.511 725.076 310.25 729.763 316.402C734.744 322.554 741.482 327.681 749.978 331.782C758.474 335.591 768.874 337.495 781.179 337.495Z" fill="black"/>
<path d="M970.341 345.845C960.673 345.845 955.839 341.743 955.839 333.54C955.839 331.196 956.278 327.827 957.157 323.433L1017.36 20.6531H1032.3L970.341 332.222H1006.81L1004.18 345.845H970.341Z" fill="black"/>
<path d="M1234.53 345.845C1224.57 345.845 1219.59 341.597 1219.59 333.101C1219.59 331.636 1219.59 330.318 1219.59 329.146C1219.88 327.681 1220.18 326.216 1220.47 324.751L1226.18 297.066H1224.86C1215.49 314.058 1204.65 327.388 1192.34 337.056C1180.33 346.431 1165.25 351.118 1147.08 351.118C1135.66 351.118 1125.55 349.067 1116.76 344.966C1107.97 340.864 1100.5 335.152 1094.35 327.827C1088.49 320.21 1083.95 311.421 1080.72 301.461C1077.5 291.207 1075.89 279.928 1075.89 267.623C1075.89 248.287 1078.23 229.684 1082.92 211.813C1087.61 193.649 1094.49 177.536 1103.58 163.474C1112.95 149.411 1124.52 138.279 1138.29 130.076C1152.06 121.58 1167.88 117.332 1185.75 117.332C1203.33 117.332 1217.69 121.433 1228.82 129.636C1240.24 137.546 1248.01 148.533 1252.11 162.595H1253.43L1261.34 122.605H1276.28L1234.53 332.222H1270.57L1267.93 345.845H1234.53ZM1149.28 337.495C1158.65 337.495 1167 336.03 1174.33 333.101C1181.94 330.171 1189.56 325.484 1197.18 319.038C1205.67 311.714 1213.29 302.632 1220.03 291.793C1227.06 280.66 1232.04 267.769 1234.97 253.121L1246.84 194.675C1248.3 187.35 1248.3 180.026 1246.84 172.702C1245.37 165.085 1242.15 158.2 1237.17 152.048C1232.48 145.896 1225.89 140.915 1217.39 137.107C1208.9 133.005 1198.5 130.955 1186.19 130.955C1162.46 130.955 1143.13 139.011 1128.18 155.124C1113.24 170.944 1102.99 192.624 1097.42 220.163L1093.91 239.498C1093.03 244.186 1092.3 248.873 1091.71 253.561C1091.42 257.955 1091.27 263.082 1091.27 268.941C1091.27 278.316 1092.3 287.252 1094.35 295.748C1096.69 303.951 1100.21 311.128 1104.89 317.281C1109.87 323.433 1115.88 328.413 1122.91 332.222C1130.24 335.738 1139.02 337.495 1149.28 337.495Z" fill="black"/>
<path d="M1446.91 117.332C1465.08 117.332 1480.16 122.166 1492.18 131.833C1504.19 141.208 1511.8 153.366 1515.03 168.308L1502.28 173.142C1498.47 159.079 1491.74 148.533 1482.07 141.501C1472.4 134.47 1460.39 130.955 1446.03 130.955C1424.65 130.955 1406.48 138.425 1391.54 153.366C1376.6 168.308 1366.79 188.376 1362.1 213.571L1357.26 239.059C1356.39 244.039 1355.8 248.287 1355.51 251.803C1355.21 255.318 1355.07 259.566 1355.07 264.547C1355.07 274.801 1356.24 284.322 1358.58 293.111C1360.93 301.9 1364.44 309.664 1369.13 316.402C1374.11 322.847 1380.26 327.974 1387.59 331.782C1395.2 335.591 1404.29 337.495 1414.83 337.495C1430.65 337.495 1444.57 333.247 1456.58 324.751C1468.59 316.255 1479.58 304.097 1489.54 288.277L1501.84 294.429C1491.59 311.128 1479.72 324.458 1466.25 334.419C1453.06 344.38 1437.24 349.946 1418.79 351.118L1408.24 376.606L1409.12 377.485C1410.88 377.192 1412.93 376.899 1415.27 376.606C1417.62 376.313 1419.81 376.167 1421.86 376.167C1429.77 376.167 1435.93 378.218 1440.32 382.319C1445.01 386.421 1447.35 392.28 1447.35 399.897C1447.35 409.858 1443.4 418.207 1435.49 424.945C1427.87 431.684 1417.47 435.053 1404.29 435.053C1395.5 435.053 1388.03 433.588 1381.87 430.658C1375.72 428.022 1371.33 424.652 1368.69 420.551L1377.48 411.762C1380.41 415.278 1384.07 418.061 1388.47 420.112C1392.86 422.455 1398.13 423.627 1404.29 423.627C1413.07 423.627 1420.11 421.43 1425.38 417.035C1430.95 412.641 1433.73 407.075 1433.73 400.336C1433.73 395.356 1431.97 391.254 1428.46 388.032C1425.23 385.102 1419.23 383.344 1410.44 382.758L1395.06 381.88L1408.24 351.118C1397.11 350.239 1387.29 347.456 1378.8 342.769C1370.3 338.081 1363.12 331.929 1357.26 324.312C1351.7 316.402 1347.45 307.32 1344.52 297.066C1341.59 286.519 1340.13 275.094 1340.13 262.789C1340.13 242.574 1342.47 223.678 1347.16 206.1C1351.84 188.229 1358.73 172.702 1367.81 159.519C1376.89 146.335 1388.03 136.081 1401.21 128.757C1414.69 121.14 1429.92 117.332 1446.91 117.332Z" fill="black"/>
<path d="M1749.89 345.845C1739.93 345.845 1734.95 341.597 1734.95 333.101C1734.95 331.636 1734.95 330.318 1734.95 329.146C1735.24 327.681 1735.53 326.216 1735.83 324.751L1741.54 297.066H1740.22C1730.84 314.058 1720 327.388 1707.7 337.056C1695.69 346.431 1680.6 351.118 1662.44 351.118C1651.01 351.118 1640.9 349.067 1632.12 344.966C1623.33 340.864 1615.86 335.152 1609.7 327.827C1603.84 320.21 1599.3 311.421 1596.08 301.461C1592.86 291.207 1591.25 279.928 1591.25 267.623C1591.25 248.287 1593.59 229.684 1598.28 211.813C1602.97 193.649 1609.85 177.536 1618.93 163.474C1628.31 149.411 1639.88 138.279 1653.65 130.076C1667.42 121.58 1683.24 117.332 1701.11 117.332C1718.69 117.332 1733.04 121.433 1744.17 129.636C1755.6 137.546 1763.36 148.533 1767.47 162.595H1768.78L1776.69 122.605H1791.64L1749.89 332.222H1785.92L1783.29 345.845H1749.89ZM1664.63 337.495C1674.01 337.495 1682.36 336.03 1689.68 333.101C1697.3 330.171 1704.92 325.484 1712.53 319.038C1721.03 311.714 1728.65 302.632 1735.39 291.793C1742.42 280.66 1747.4 267.769 1750.33 253.121L1762.19 194.675C1763.66 187.35 1763.66 180.026 1762.19 172.702C1760.73 165.085 1757.5 158.2 1752.52 152.048C1747.84 145.896 1741.24 140.915 1732.75 137.107C1724.25 133.005 1713.85 130.955 1701.55 130.955C1677.82 130.955 1658.48 139.011 1643.54 155.124C1628.6 170.944 1618.35 192.624 1612.78 220.163L1609.26 239.498C1608.39 244.186 1607.65 248.873 1607.07 253.561C1606.77 257.955 1606.63 263.082 1606.63 268.941C1606.63 278.316 1607.65 287.252 1609.7 295.748C1612.05 303.951 1615.56 311.128 1620.25 317.281C1625.23 323.433 1631.24 328.413 1638.27 332.222C1645.59 335.738 1654.38 337.495 1664.63 337.495Z" fill="black"/>
<path d="M1908.66 345.845L1953.48 122.605H1968.42L1959.19 168.308H1960.51C1968.42 152.488 1978.23 140.037 1989.95 130.955C2001.96 121.873 2016.61 117.332 2033.9 117.332C2051.48 117.332 2064.81 122.459 2073.89 132.712C2083.26 142.673 2088.24 155.271 2088.83 170.505H2090.59C2098.2 153.806 2108.46 140.769 2121.35 131.394C2134.24 122.019 2149.62 117.332 2167.49 117.332C2185.65 117.332 2199.42 122.459 2208.8 132.712C2218.47 142.966 2223.3 157.468 2223.3 176.218C2223.3 180.612 2223.01 185.3 2222.42 190.28C2221.84 195.261 2221.1 200.094 2220.22 204.782L2194.74 332.222H2231.21L2228.13 345.845H2194.74C2184.78 345.845 2179.79 341.743 2179.79 333.54C2179.79 330.611 2180.23 327.095 2181.11 322.993L2205.28 205.221C2206.16 200.534 2206.89 195.7 2207.48 190.72C2208.07 185.739 2208.36 181.638 2208.36 178.415C2208.36 146.775 2193.42 130.955 2163.54 130.955C2154.45 130.955 2145.37 133.005 2136.29 137.107C2127.21 140.915 2118.86 147.214 2111.24 156.003C2105.38 162.741 2100.11 170.358 2095.42 178.854C2091.03 187.35 2087.66 197.311 2085.31 208.737L2057.63 345.845H2042.69L2070.81 205.221C2071.69 200.534 2072.42 195.7 2073.01 190.72C2073.59 185.739 2073.89 181.638 2073.89 178.415C2073.89 146.775 2059.24 130.955 2029.94 130.955C2020.86 130.955 2011.93 133.005 2003.14 137.107C1994.64 140.915 1986.58 147.214 1978.97 156.003C1973.11 162.448 1967.39 170.505 1961.83 180.173C1956.56 189.841 1952.75 200.241 1950.4 211.374L1923.6 345.845H1908.66Z" fill="black"/>
<path d="M2433.25 351.118C2407.47 351.118 2387.69 343.794 2373.92 329.146C2360.44 314.497 2353.71 292.086 2353.71 261.91C2353.71 241.989 2356.34 223.239 2361.62 205.661C2367.18 188.083 2374.8 172.849 2384.47 159.958C2394.43 146.775 2406.15 136.374 2419.62 128.757C2433.39 121.14 2448.48 117.332 2464.89 117.332C2485.39 117.332 2502.24 122.166 2515.42 131.833C2528.61 141.501 2535.2 155.124 2535.2 172.702C2535.2 181.198 2533 189.548 2528.61 197.751C2524.51 205.954 2516.45 213.424 2504.44 220.163C2492.72 226.901 2476.02 232.614 2454.34 237.301C2432.66 241.696 2404.54 244.186 2369.97 244.772C2369.67 247.115 2369.38 250.338 2369.09 254.44C2368.79 258.248 2368.65 261.324 2368.65 263.668C2368.65 288.863 2374.21 307.466 2385.35 319.478C2396.48 331.489 2412.59 337.495 2433.69 337.495C2450.97 337.495 2466.35 333.101 2479.83 324.312C2493.3 315.23 2504.44 302.779 2513.23 286.959L2525.09 294.429C2513.08 314.351 2499.16 328.853 2483.34 337.935C2467.82 346.724 2451.12 351.118 2433.25 351.118ZM2463.13 130.515C2451.7 130.515 2441.01 132.859 2431.05 137.546C2421.38 141.941 2412.59 148.24 2404.68 156.443C2397.07 164.646 2390.47 174.46 2384.91 185.886C2379.63 197.311 2375.83 209.762 2373.48 223.239L2371.72 232.028C2402.78 231.442 2427.83 229.391 2446.87 225.875C2466.21 222.36 2481.15 217.965 2491.69 212.692C2502.53 207.126 2509.86 200.973 2513.67 194.235C2517.47 187.497 2519.38 180.319 2519.38 172.702C2519.38 159.519 2514.69 149.265 2505.32 141.941C2496.23 134.324 2482.17 130.515 2463.13 130.515Z" fill="black"/>
<path d="M2681.91 345.845L2726.74 122.605H2741.68L2732.45 168.308H2733.77C2742.26 151.609 2752.66 139.011 2764.97 130.515C2777.27 121.726 2792.36 117.332 2810.23 117.332C2829.27 117.332 2843.63 122.605 2853.3 133.152C2863.26 143.406 2868.24 157.761 2868.24 176.218C2868.24 180.612 2867.95 185.446 2867.36 190.72C2866.77 195.7 2866.04 200.534 2865.16 205.221L2839.67 332.222H2875.71L2873.07 345.845H2839.24C2829.86 345.845 2825.17 341.743 2825.17 333.54C2825.17 331.196 2825.61 327.827 2826.49 323.433L2850.22 205.221C2851.1 200.534 2851.69 195.7 2851.98 190.72C2852.56 185.739 2852.86 181.784 2852.86 178.854C2852.86 146.921 2837.33 130.955 2806.28 130.955C2796.9 130.955 2787.53 132.859 2778.15 136.667C2769.07 140.183 2760.28 146.628 2751.78 156.003C2746.51 162.155 2741.09 169.919 2735.53 179.294C2729.96 188.376 2726 199.069 2723.66 211.374L2696.85 345.845H2681.91Z" fill="black"/>
<path d="M3060.61 345.845C3050.65 345.845 3045.67 341.45 3045.67 332.661C3045.67 331.197 3045.82 329.585 3046.11 327.827C3046.4 325.777 3046.69 324.019 3046.99 322.554L3084.34 136.228H3044.35L3046.99 122.605H3074.67C3079.65 122.605 3083.17 121.58 3085.22 119.529C3087.27 117.478 3088.74 113.963 3089.61 108.982L3099.72 59.3245H3114.66L3101.92 122.605H3153.77L3151.14 136.228H3099.28L3060.17 332.222H3108.51L3105.87 345.845H3060.61Z" fill="black"/>
<path d="M3384.78 351.118C3366.61 351.118 3350.65 347.456 3336.88 340.132C3323.11 332.808 3311.53 322.261 3302.16 308.492L3314.02 299.703C3330.72 325.191 3354.31 337.935 3384.78 337.935C3404.11 337.935 3419.64 333.394 3431.36 324.312C3443.08 314.937 3448.94 301.461 3448.94 283.883C3448.94 271.285 3445.42 262.057 3438.39 256.197C3431.36 250.045 3420.81 245.211 3406.75 241.696L3385.65 236.422C3378.04 234.664 3370.86 232.467 3364.12 229.83C3357.68 226.901 3352.11 223.385 3347.42 219.284C3342.74 214.889 3339.07 209.616 3336.44 203.464C3333.8 197.311 3332.48 189.841 3332.48 181.052C3332.48 171.091 3334.39 162.155 3338.19 154.245C3342 146.335 3347.28 139.744 3354.01 134.47C3360.75 128.904 3368.66 124.656 3377.74 121.726C3387.12 118.797 3397.37 117.332 3408.51 117.332C3426.96 117.332 3441.76 120.701 3452.89 127.439C3464.02 134.177 3473.11 142.234 3480.14 151.609L3469.15 161.277C3466.22 157.175 3462.85 153.22 3459.04 149.411C3455.53 145.603 3451.28 142.38 3446.3 139.744C3441.61 136.814 3436.04 134.617 3429.6 133.152C3423.15 131.394 3415.83 130.515 3407.63 130.515C3389.17 130.515 3374.52 134.91 3363.68 143.699C3352.84 152.195 3347.42 164.353 3347.42 180.173C3347.42 192.477 3350.79 201.852 3357.53 208.297C3364.56 214.743 3375.11 219.577 3389.17 222.799L3409.82 228.073C3417.73 230.123 3424.91 232.467 3431.36 235.104C3438.1 237.741 3443.81 241.256 3448.5 245.651C3453.48 249.752 3457.28 254.879 3459.92 261.031C3462.56 266.891 3463.88 274.215 3463.88 283.004C3463.88 294.136 3461.83 303.951 3457.72 312.447C3453.62 320.943 3448.06 328.12 3441.03 333.98C3433.99 339.546 3425.64 343.794 3415.98 346.724C3406.31 349.653 3395.91 351.118 3384.78 351.118Z" fill="black"/>
</g>
<defs>
<clipPath id="clip0_3_23">
<rect width="3566.8" height="431.9" fill="white"/>
</clipPath>
</defs>
</svg>
