<?xml version="1.0" encoding="utf-8"?>
<!-- Generator: Adobe Illustrator 27.3.1, SVG Export Plug-In . SVG Version: 6.00 Build 0)  -->
<svg version="1.1" id="Capa_1" xmlns="http://www.w3.org/2000/svg" xmlns:xlink="http://www.w3.org/1999/xlink" x="0px" y="0px"
	 viewBox="0 0 1557 273" style="enable-background:new 0 0 1557 273;" xml:space="preserve">
<g>
	<path d="M19.6,101.6V13.9h52.9v9.4H30.2v29.6h39.5v9.4H30.2v29.8h43v9.4H19.6z M135.6,50.5l-9.1,2.6c-0.6-1.5-1.4-3-2.5-4.4
		c-1.1-1.5-2.6-2.7-4.5-3.6c-1.9-0.9-4.3-1.4-7.2-1.4c-4,0-7.4,0.9-10.1,2.8c-2.7,1.8-4,4.2-4,7c0,2.5,0.9,4.5,2.7,5.9
		c1.8,1.5,4.7,2.7,8.6,3.6l9.8,2.4c5.9,1.4,10.3,3.6,13.1,6.5c2.9,2.9,4.3,6.7,4.3,11.3c0,3.8-1.1,7.1-3.3,10.1c-2.1,3-5.1,5.3-9,7
		c-3.9,1.7-8.3,2.6-13.4,2.6c-6.7,0-12.3-1.5-16.6-4.4c-4.4-2.9-7.2-7.2-8.3-12.8l9.6-2.4c0.9,3.5,2.6,6.2,5.2,8
		c2.6,1.8,5.9,2.7,10.1,2.7c4.7,0,8.4-1,11.2-3c2.8-2,4.2-4.5,4.2-7.3c0-2.3-0.8-4.2-2.4-5.7c-1.6-1.6-4.1-2.7-7.4-3.5l-11-2.6
		c-6-1.4-10.4-3.6-13.3-6.6c-2.8-3-4.2-6.8-4.2-11.3c0-3.7,1-7,3.1-9.8c2.1-2.9,5-5.1,8.6-6.7c3.7-1.6,7.8-2.4,12.4-2.4
		c6.5,0,11.6,1.4,15.3,4.3C131.4,42.1,134,45.9,135.6,50.5z M177.5,102.9c-6.2,0-11.5-1.5-15.9-4.4c-4.4-2.9-7.9-6.9-10.3-12
		c-2.4-5.1-3.6-10.9-3.6-17.5c0-6.7,1.2-12.6,3.7-17.7c2.5-5.1,5.9-9.1,10.4-12c4.4-2.9,9.6-4.4,15.6-4.4c4.6,0,8.8,0.9,12.5,2.6
		c3.7,1.7,6.7,4.1,9.1,7.2c2.4,3.1,3.8,6.7,4.4,10.8h-10.1c-0.8-3-2.5-5.6-5.1-8c-2.6-2.3-6.2-3.5-10.6-3.5c-3.9,0-7.4,1-10.4,3.1
		c-2.9,2-5.2,4.9-6.9,8.6c-1.6,3.7-2.4,8-2.4,13c0,5.1,0.8,9.5,2.4,13.3c1.6,3.8,3.9,6.7,6.8,8.8c3,2.1,6.4,3.1,10.4,3.1
		c2.6,0,5-0.5,7.1-1.4c2.1-0.9,4-2.2,5.4-3.9c1.5-1.7,2.5-3.8,3.2-6.2h10.1c-0.6,3.9-2,7.4-4.2,10.5c-2.2,3.1-5.2,5.5-8.9,7.4
		C186.6,102,182.4,102.9,177.5,102.9z M243.6,102.9c-5.9,0-11.1-1.4-15.6-4.2c-4.4-2.8-7.9-6.8-10.4-11.9c-2.5-5.1-3.7-11-3.7-17.8
		c0-6.8,1.2-12.8,3.7-17.9c2.5-5.1,6-9.1,10.4-11.9c4.5-2.8,9.7-4.2,15.6-4.2c5.9,0,11.1,1.4,15.6,4.2c4.5,2.8,8,6.8,10.4,11.9
		c2.5,5.1,3.8,11.1,3.8,17.9c0,6.8-1.3,12.7-3.8,17.8c-2.5,5.1-6,9-10.4,11.9C254.7,101.5,249.5,102.9,243.6,102.9z M243.6,93.8
		c4.5,0,8.2-1.2,11.1-3.5c2.9-2.3,5.1-5.3,6.5-9.1c1.4-3.8,2.1-7.8,2.1-12.2c0-4.4-0.7-8.5-2.1-12.3c-1.4-3.8-3.6-6.9-6.5-9.2
		c-2.9-2.3-6.6-3.5-11.1-3.5c-4.5,0-8.2,1.2-11.1,3.5c-2.9,2.3-5.1,5.4-6.5,9.2c-1.4,3.8-2.1,7.9-2.1,12.3c0,4.4,0.7,8.5,2.1,12.2
		c1.4,3.8,3.6,6.8,6.5,9.1C235.4,92.7,239.1,93.8,243.6,93.8z M297.7,13.9v87.6h-10.1V13.9H297.7z M334.3,103.1
		c-4.2,0-7.9-0.8-11.3-2.4c-3.4-1.6-6.1-3.9-8.1-6.9c-2-3-3-6.7-3-11c0-3.8,0.7-6.8,2.2-9.2c1.5-2.4,3.5-4.2,5.9-5.6s5.2-2.3,8.2-3
		c3-0.7,6.1-1.2,9.1-1.6c4-0.5,7.2-0.9,9.7-1.2c2.5-0.3,4.3-0.8,5.5-1.4c1.2-0.7,1.8-1.8,1.8-3.4v-0.3c0-4.2-1.2-7.5-3.5-9.8
		c-2.3-2.3-5.7-3.5-10.4-3.5c-4.8,0-8.6,1.1-11.3,3.2c-2.7,2.1-4.7,4.4-5.8,6.8l-9.6-3.4c1.7-4,4-7.1,6.8-9.3c2.9-2.3,6-3.8,9.4-4.7
		c3.4-0.9,6.8-1.4,10.1-1.4c2.1,0,4.5,0.3,7.3,0.8c2.8,0.5,5.4,1.5,8,3c2.6,1.5,4.7,3.9,6.5,7c1.7,3.1,2.6,7.3,2.6,12.5v43.3h-10.1
		v-8.9h-0.5c-0.7,1.4-1.8,3-3.4,4.6c-1.6,1.6-3.7,3-6.4,4.2C341.4,102.5,338.1,103.1,334.3,103.1z M335.9,94c4,0,7.4-0.8,10.1-2.4
		c2.8-1.6,4.9-3.6,6.2-6.1c1.4-2.5,2.1-5.1,2.1-7.8v-9.2c-0.4,0.5-1.4,1-2.8,1.4c-1.4,0.4-3.1,0.8-5,1.1c-1.9,0.3-3.7,0.5-5.4,0.8
		c-1.7,0.2-3.2,0.4-4.2,0.5c-2.6,0.3-5.1,0.9-7.4,1.7c-2.3,0.7-4.1,1.9-5.5,3.4c-1.4,1.5-2.1,3.5-2.1,6.1c0,3.5,1.3,6.2,3.9,8
		C328.5,93.1,331.8,94,335.9,94z M439.2,102.9c-5.5,0-10.3-1.4-14.5-4.2c-4.2-2.8-7.5-6.7-9.8-11.8c-2.4-5.1-3.6-11.1-3.6-18.1
		c0-6.9,1.2-12.9,3.6-18c2.4-5.1,5.7-9,9.9-11.8c4.2-2.8,9.1-4.2,14.6-4.2c4.3,0,7.7,0.7,10.1,2.1c2.5,1.4,4.4,3,5.7,4.8
		c1.3,1.8,2.4,3.2,3.1,4.4h0.9V13.9h10.1v87.6h-9.8V91.5h-1.2c-0.7,1.2-1.8,2.7-3.2,4.5c-1.4,1.8-3.3,3.4-5.9,4.8
		C446.8,102.2,443.4,102.9,439.2,102.9z M440.5,93.8c4,0,7.5-1.1,10.3-3.2c2.8-2.1,4.9-5.1,6.4-8.9c1.5-3.8,2.2-8.2,2.2-13.1
		c0-4.9-0.7-9.2-2.1-12.9c-1.4-3.7-3.5-6.6-6.3-8.6c-2.8-2.1-6.2-3.1-10.4-3.1c-4.3,0-7.8,1.1-10.7,3.3c-2.8,2.2-4.9,5.1-6.4,8.9
		c-1.4,3.7-2.1,7.9-2.1,12.5c0,4.7,0.7,8.9,2.1,12.8c1.5,3.8,3.6,6.8,6.4,9.1C432.8,92.7,436.3,93.8,440.5,93.8z M496.9,13.9v7.7
		c0,2.3-0.4,4.8-1.3,7.5c-0.8,2.6-2.1,5.2-3.7,7.7c-1.6,2.5-3.5,4.6-5.8,6.4l-5.5-4.4c1.8-2.6,3.4-5.2,4.7-8c1.3-2.8,2-5.8,2-8.9
		v-7.9H496.9z M497.5,101.6h-11.1l32.2-87.6h11l32.2,87.6h-11.1l-26.2-73.8h-0.7L497.5,101.6z M501.6,67.3h44.8v9.4h-44.8V67.3z
		 M572.8,101.6V35.8h9.8v9.9h0.7c1.2-3.3,3.4-5.9,6.5-7.9c3.1-2,6.7-3,10.6-3c0.7,0,1.7,0,2.8,0c1.1,0,2,0.1,2.5,0.1v10.3
		c-0.3-0.1-1.1-0.2-2.4-0.4c-1.2-0.2-2.5-0.3-3.8-0.3c-3.2,0-6,0.7-8.6,2c-2.5,1.3-4.5,3.1-5.9,5.5c-1.4,2.3-2.1,4.9-2.1,7.9v41.6
		H572.8z M649.1,35.8v8.6H615v-8.6H649.1z M625,20.1h10.1v62.6c0,2.9,0.4,5,1.2,6.4c0.9,1.4,1.9,2.3,3.3,2.8
		c1.3,0.5,2.8,0.7,4.2,0.7c1.1,0,2-0.1,2.7-0.2c0.7-0.1,1.3-0.3,1.7-0.3l2.1,9.1c-0.7,0.3-1.6,0.5-2.9,0.8c-1.2,0.3-2.8,0.4-4.7,0.4
		c-2.9,0-5.6-0.6-8.4-1.8c-2.7-1.2-5-3.1-6.8-5.6c-1.8-2.5-2.7-5.7-2.7-9.5V20.1z M695.8,101.6V35.8h10.1v65.7H695.8z M700.9,24.9
		c-2,0-3.7-0.7-5.1-2c-1.4-1.3-2.1-3-2.1-4.8s0.7-3.5,2.1-4.8c1.4-1.3,3.1-2,5.1-2c2,0,3.7,0.7,5,2c1.4,1.3,2.1,3,2.1,4.8
		s-0.7,3.5-2.1,4.8C704.6,24.2,702.9,24.9,700.9,24.9z M784.3,101.6h-27V13.9h28.2c8.5,0,15.8,1.8,21.8,5.3c6,3.5,10.7,8.5,13.9,15
		c3.2,6.5,4.8,14.3,4.8,23.4c0,9.1-1.6,17-4.9,23.6c-3.3,6.6-8,11.6-14.2,15.1C800.7,99.8,793.2,101.6,784.3,101.6z M767.8,92.1
		h15.7c7.2,0,13.2-1.4,18-4.2c4.8-2.8,8.3-6.8,10.7-11.9s3.5-11.3,3.5-18.4c0-7.1-1.2-13.2-3.5-18.3c-2.3-5.1-5.8-9.1-10.4-11.8
		c-4.6-2.8-10.3-4.2-17.2-4.2h-16.9V92.1z M841.2,101.6V35.8h10.1v65.7H841.2z M846.4,24.9c-2,0-3.7-0.7-5.1-2
		c-1.4-1.3-2.1-3-2.1-4.8s0.7-3.5,2.1-4.8c1.4-1.3,3.1-2,5.1-2c2,0,3.7,0.7,5,2c1.4,1.3,2.1,3,2.1,4.8s-0.7,3.5-2.1,4.8
		C850,24.2,848.3,24.9,846.4,24.9z M915.2,50.5l-9.1,2.6c-0.6-1.5-1.4-3-2.5-4.4c-1.1-1.5-2.6-2.7-4.5-3.6c-1.9-0.9-4.3-1.4-7.2-1.4
		c-4,0-7.4,0.9-10.1,2.8c-2.7,1.8-4,4.2-4,7c0,2.5,0.9,4.5,2.7,5.9c1.8,1.5,4.7,2.7,8.6,3.6l9.8,2.4c5.9,1.4,10.3,3.6,13.1,6.5
		c2.9,2.9,4.3,6.7,4.3,11.3c0,3.8-1.1,7.1-3.3,10.1c-2.1,3-5.1,5.3-9,7c-3.9,1.7-8.3,2.6-13.4,2.6c-6.7,0-12.3-1.5-16.6-4.4
		c-4.4-2.9-7.2-7.2-8.3-12.8l9.6-2.4c0.9,3.5,2.6,6.2,5.2,8c2.6,1.8,5.9,2.7,10.1,2.7c4.7,0,8.4-1,11.2-3c2.8-2,4.2-4.5,4.2-7.3
		c0-2.3-0.8-4.2-2.4-5.7c-1.6-1.6-4.1-2.7-7.4-3.5l-11-2.6c-6-1.4-10.4-3.6-13.3-6.6c-2.8-3-4.2-6.8-4.2-11.3c0-3.7,1-7,3.1-9.8
		c2.1-2.9,5-5.1,8.6-6.7c3.7-1.6,7.8-2.4,12.4-2.4c6.5,0,11.6,1.4,15.3,4.3C911,42.1,913.6,45.9,915.2,50.5z M976.9,50.5l-9.1,2.6
		c-0.6-1.5-1.4-3-2.5-4.4c-1.1-1.5-2.6-2.7-4.5-3.6c-1.9-0.9-4.3-1.4-7.2-1.4c-4,0-7.4,0.9-10.1,2.8c-2.7,1.8-4,4.2-4,7
		c0,2.5,0.9,4.5,2.7,5.9c1.8,1.5,4.7,2.7,8.6,3.6l9.8,2.4c5.9,1.4,10.3,3.6,13.1,6.5c2.9,2.9,4.3,6.7,4.3,11.3
		c0,3.8-1.1,7.1-3.3,10.1c-2.1,3-5.1,5.3-9,7c-3.9,1.7-8.3,2.6-13.4,2.6c-6.7,0-12.3-1.5-16.6-4.4c-4.4-2.9-7.2-7.2-8.3-12.8
		l9.6-2.4c0.9,3.5,2.6,6.2,5.2,8c2.6,1.8,5.9,2.7,10.1,2.7c4.7,0,8.4-1,11.2-3c2.8-2,4.2-4.5,4.2-7.3c0-2.3-0.8-4.2-2.4-5.7
		c-1.6-1.6-4.1-2.7-7.4-3.5l-11-2.6c-6-1.4-10.4-3.6-13.3-6.6c-2.8-3-4.2-6.8-4.2-11.3c0-3.7,1-7,3.1-9.8c2.1-2.9,5-5.1,8.6-6.7
		c3.7-1.6,7.8-2.4,12.4-2.4c6.5,0,11.6,1.4,15.3,4.3C972.7,42.1,975.4,45.9,976.9,50.5z M1019.7,102.9c-6.3,0-11.8-1.4-16.4-4.2
		c-4.6-2.8-8.1-6.8-10.6-11.8c-2.5-5.1-3.7-11-3.7-17.7c0-6.7,1.2-12.7,3.7-17.8c2.5-5.2,5.9-9.2,10.4-12.1
		c4.5-2.9,9.6-4.4,15.6-4.4c3.4,0,6.8,0.6,10.1,1.7c3.3,1.1,6.4,3,9.1,5.6c2.7,2.5,4.9,5.9,6.5,10.1c1.6,4.2,2.4,9.4,2.4,15.5v4.3
		h-50.7v-8.7h40.4c0-3.7-0.7-7-2.2-9.9c-1.5-2.9-3.5-5.2-6.2-6.9c-2.7-1.7-5.9-2.5-9.5-2.5c-4,0-7.5,1-10.4,3
		c-2.9,2-5.1,4.5-6.7,7.7c-1.6,3.2-2.4,6.6-2.4,10.2v5.8c0,5,0.9,9.2,2.6,12.6c1.7,3.4,4.1,6,7.2,7.8c3.1,1.8,6.7,2.7,10.7,2.7
		c2.7,0,5-0.4,7.2-1.1c2.2-0.8,4-1.9,5.6-3.4c1.6-1.5,2.8-3.5,3.6-5.7l9.8,2.7c-1,3.3-2.8,6.2-5.2,8.7c-2.4,2.5-5.4,4.4-9,5.8
		C1028.1,102.2,1024.1,102.9,1019.7,102.9z M1071.2,62v39.5h-10.1V35.8h9.8v10.3h0.9c1.5-3.3,3.9-6,7-8c3.1-2.1,7.2-3.1,12.2-3.1
		c4.5,0,8.3,0.9,11.7,2.7c3.3,1.8,5.9,4.5,7.8,8.2c1.8,3.7,2.8,8.3,2.8,13.9v41.8H1103V60.5c0-5.2-1.3-9.2-4-12.1
		c-2.7-2.9-6.4-4.4-11-4.4c-3.2,0-6.1,0.7-8.7,2.1c-2.5,1.4-4.5,3.4-5.9,6.1C1071.9,54.9,1071.2,58.2,1071.2,62z M1134.5,126.2
		c-1.7,0-3.2-0.1-4.6-0.4c-1.3-0.3-2.3-0.5-2.8-0.8l2.6-8.9c2.5,0.6,4.6,0.9,6.5,0.7c1.9-0.2,3.6-1,5-2.5c1.5-1.5,2.8-3.9,4.1-7.2
		l1.9-5.1l-24.3-66.1h11l18.1,52.4h0.7l18.1-52.4h10.9l-27.9,75.3c-1.3,3.4-2.8,6.2-4.7,8.4c-1.8,2.3-4,3.9-6.5,5
		C1140.3,125.7,1137.5,126.2,1134.5,126.2z M1251.3,102.9c-5.5,0-10.3-1.4-14.5-4.2c-4.2-2.8-7.5-6.7-9.8-11.8
		c-2.4-5.1-3.6-11.1-3.6-18.1c0-6.9,1.2-12.9,3.6-18c2.4-5.1,5.7-9,9.9-11.8c4.2-2.8,9.1-4.2,14.6-4.2c4.3,0,7.7,0.7,10.1,2.1
		c2.5,1.4,4.4,3,5.7,4.8c1.3,1.8,2.4,3.2,3.1,4.4h0.9V13.9h10.1v87.6h-9.8V91.5h-1.2c-0.7,1.2-1.8,2.7-3.2,4.5
		c-1.4,1.8-3.3,3.4-5.9,4.8C1258.9,102.2,1255.6,102.9,1251.3,102.9z M1252.7,93.8c4.1,0,7.5-1.1,10.3-3.2c2.8-2.1,4.9-5.1,6.4-8.9
		c1.5-3.8,2.2-8.2,2.2-13.1c0-4.9-0.7-9.2-2.1-12.9c-1.4-3.7-3.5-6.6-6.3-8.6c-2.8-2.1-6.2-3.1-10.3-3.1c-4.3,0-7.8,1.1-10.7,3.3
		c-2.8,2.2-5,5.1-6.4,8.9c-1.4,3.7-2.1,7.9-2.1,12.5c0,4.7,0.7,8.9,2.1,12.8c1.5,3.8,3.6,6.8,6.4,9.1
		C1245,92.7,1248.5,93.8,1252.7,93.8z M1327.7,102.9c-6.3,0-11.8-1.4-16.4-4.2c-4.6-2.8-8.1-6.8-10.6-11.8c-2.4-5.1-3.7-11-3.7-17.7
		c0-6.7,1.2-12.7,3.7-17.8c2.5-5.2,5.9-9.2,10.4-12.1c4.4-2.9,9.6-4.4,15.6-4.4c3.4,0,6.8,0.6,10.2,1.7c3.3,1.1,6.4,3,9.1,5.6
		c2.7,2.5,4.9,5.9,6.6,10.1c1.6,4.2,2.4,9.4,2.4,15.5v4.3h-50.7v-8.7h40.4c0-3.7-0.8-7-2.2-9.9c-1.4-2.9-3.5-5.2-6.2-6.9
		c-2.7-1.7-5.8-2.5-9.5-2.5c-4,0-7.5,1-10.4,3c-2.9,2-5.1,4.5-6.7,7.7c-1.6,3.2-2.4,6.6-2.4,10.2v5.8c0,5,0.9,9.2,2.6,12.6
		c1.7,3.4,4.2,6,7.2,7.8c3.1,1.8,6.7,2.7,10.7,2.7c2.7,0,5.1-0.4,7.2-1.1c2.2-0.8,4-1.9,5.6-3.4c1.6-1.5,2.8-3.5,3.6-5.7l9.8,2.7
		c-1,3.3-2.8,6.2-5.2,8.7c-2.4,2.5-5.4,4.4-9,5.8C1336.2,102.2,1332.2,102.9,1327.7,102.9z M1411.9,13.9v87.6h-10.1V13.9H1411.9z
		 M1448.5,103.1c-4.2,0-7.9-0.8-11.3-2.4c-3.4-1.6-6.1-3.9-8.1-6.9c-2-3-3-6.7-3-11c0-3.8,0.8-6.8,2.2-9.2c1.5-2.4,3.5-4.2,5.9-5.6
		c2.5-1.3,5.2-2.3,8.2-3c3-0.7,6.1-1.2,9.1-1.6c4-0.5,7.2-0.9,9.7-1.2c2.5-0.3,4.3-0.8,5.5-1.4c1.2-0.7,1.8-1.8,1.8-3.4v-0.3
		c0-4.2-1.2-7.5-3.5-9.8c-2.3-2.3-5.7-3.5-10.4-3.5c-4.8,0-8.6,1.1-11.3,3.2c-2.7,2.1-4.7,4.4-5.8,6.8l-9.6-3.4c1.7-4,4-7.1,6.8-9.3
		c2.9-2.3,6-3.8,9.4-4.7c3.4-0.9,6.8-1.4,10.1-1.4c2.1,0,4.5,0.3,7.3,0.8c2.8,0.5,5.4,1.5,8,3c2.6,1.5,4.8,3.9,6.5,7
		c1.7,3.1,2.6,7.3,2.6,12.5v43.3h-10.1v-8.9h-0.5c-0.7,1.4-1.8,3-3.4,4.6c-1.6,1.6-3.7,3-6.4,4.2
		C1455.6,102.5,1452.3,103.1,1448.5,103.1z M1450.1,94c4,0,7.4-0.8,10.1-2.4c2.8-1.6,4.8-3.6,6.2-6.1c1.4-2.5,2.1-5.1,2.1-7.8v-9.2
		c-0.4,0.5-1.4,1-2.8,1.4c-1.4,0.4-3.1,0.8-5,1.1c-1.8,0.3-3.7,0.5-5.4,0.8c-1.7,0.2-3.2,0.4-4.2,0.5c-2.6,0.3-5.1,0.9-7.4,1.7
		c-2.2,0.7-4.1,1.9-5.5,3.4c-1.4,1.5-2.1,3.5-2.1,6.1c0,3.5,1.3,6.2,3.9,8C1442.7,93.1,1446,94,1450.1,94z M46.7,237.6h-27v-87.6
		h28.2c8.5,0,15.8,1.8,21.8,5.3c6,3.5,10.7,8.5,13.9,15c3.2,6.5,4.8,14.3,4.8,23.4c0,9.1-1.6,17-4.9,23.6c-3.3,6.6-8,11.6-14.2,15.1
		C63.1,235.8,55.6,237.6,46.7,237.6z M30.2,228.1H46c7.2,0,13.3-1.4,18-4.2c4.8-2.8,8.3-6.8,10.7-11.9c2.3-5.2,3.5-11.3,3.5-18.4
		c0-7.1-1.2-13.2-3.5-18.3c-2.3-5.1-5.8-9.1-10.4-11.8c-4.6-2.8-10.3-4.1-17.2-4.1H30.2V228.1z M103.6,237.6v-65.7h10.1v65.7H103.6z
		 M108.8,160.9c-2,0-3.7-0.7-5.1-2c-1.4-1.3-2.1-3-2.1-4.8c0-1.9,0.7-3.5,2.1-4.8c1.4-1.3,3.1-2,5.1-2s3.7,0.7,5,2
		c1.4,1.3,2.1,3,2.1,4.8c0,1.9-0.7,3.5-2.1,4.8C112.4,160.2,110.7,160.9,108.8,160.9z M131,262.2v-90.4h9.8v10.4h1.2
		c0.7-1.1,1.8-2.6,3.1-4.4c1.3-1.8,3.3-3.4,5.7-4.8c2.5-1.4,5.9-2.1,10.2-2.1c5.5,0,10.4,1.4,14.6,4.2c4.2,2.8,7.5,6.7,9.9,11.8
		c2.4,5.1,3.6,11.1,3.6,18c0,7-1.2,13-3.6,18.1c-2.4,5.1-5.6,9-9.8,11.8c-4.2,2.8-9,4.2-14.5,4.2c-4.2,0-7.6-0.7-10.1-2.1
		c-2.5-1.4-4.5-3-5.9-4.8c-1.4-1.8-2.4-3.3-3.2-4.5h-0.9v34.7H131z M141,204.7c0,5,0.7,9.3,2.2,13.1c1.5,3.8,3.6,6.7,6.4,8.9
		c2.8,2.1,6.2,3.2,10.3,3.2c4.2,0,7.7-1.1,10.6-3.3c2.9-2.3,5-5.3,6.4-9.1c1.5-3.8,2.2-8.1,2.2-12.8c0-4.6-0.7-8.8-2.1-12.5
		c-1.4-3.7-3.5-6.7-6.4-8.9c-2.8-2.2-6.4-3.3-10.7-3.3c-4.1,0-7.6,1-10.4,3.1c-2.8,2.1-4.9,4.9-6.3,8.6
		C141.7,195.5,141,199.8,141,204.7z M244.7,210.7v-38.9h10.1v65.7h-10.1v-11.1H244c-1.5,3.3-3.9,6.2-7.2,8.5
		c-3.3,2.3-7.4,3.5-12.3,3.5c-4.1,0-7.8-0.9-11-2.7c-3.2-1.8-5.7-4.6-7.5-8.2c-1.8-3.7-2.7-8.3-2.7-13.9v-41.8h10.1v41.1
		c0,4.8,1.3,8.6,4,11.5c2.7,2.9,6.2,4.3,10.4,4.3c2.5,0,5.1-0.6,7.7-1.9c2.6-1.3,4.8-3.3,6.6-5.9
		C243.8,218.2,244.7,214.8,244.7,210.7z M300.6,171.8v8.6h-34.1v-8.6H300.6z M276.5,156.1h10.1v62.6c0,2.9,0.4,5,1.2,6.4
		c0.9,1.4,1.9,2.3,3.3,2.8c1.3,0.5,2.8,0.7,4.2,0.7c1.1,0,2-0.1,2.7-0.2c0.7-0.1,1.3-0.3,1.7-0.3l2.1,9.1c-0.7,0.3-1.6,0.5-2.9,0.8
		c-1.2,0.3-2.8,0.4-4.7,0.4c-2.9,0-5.6-0.6-8.4-1.8c-2.7-1.2-5-3.1-6.8-5.6c-1.8-2.5-2.7-5.7-2.7-9.5V156.1z M334,239.1
		c-4.2,0-7.9-0.8-11.3-2.4c-3.4-1.6-6.1-3.9-8.1-6.9c-2-3-3-6.7-3-11c0-3.8,0.7-6.8,2.2-9.2c1.5-2.4,3.5-4.2,5.9-5.6
		c2.5-1.3,5.2-2.3,8.2-3c3-0.7,6.1-1.2,9.1-1.6c4-0.5,7.2-0.9,9.7-1.2c2.5-0.3,4.3-0.8,5.5-1.4c1.2-0.7,1.8-1.8,1.8-3.4v-0.3
		c0-4.2-1.2-7.5-3.5-9.8c-2.3-2.3-5.7-3.5-10.4-3.5c-4.8,0-8.6,1.1-11.3,3.2c-2.7,2.1-4.7,4.4-5.8,6.8l-9.6-3.4c1.7-4,4-7.1,6.8-9.3
		c2.9-2.3,6-3.8,9.4-4.7c3.4-0.9,6.8-1.4,10.1-1.4c2.1,0,4.5,0.3,7.3,0.8c2.8,0.5,5.4,1.5,8,3c2.6,1.5,4.7,3.9,6.5,7
		c1.7,3.1,2.6,7.3,2.6,12.5v43.3H354v-8.9h-0.5c-0.7,1.4-1.8,3-3.4,4.6c-1.6,1.6-3.7,3-6.4,4.2C341,238.5,337.8,239.1,334,239.1z
		 M335.5,230c4,0,7.4-0.8,10.1-2.4c2.8-1.6,4.9-3.6,6.2-6.1c1.4-2.5,2.1-5.1,2.1-7.8v-9.2c-0.4,0.5-1.4,1-2.8,1.4
		c-1.4,0.4-3.1,0.8-5,1.1c-1.9,0.3-3.7,0.5-5.4,0.8c-1.7,0.2-3.2,0.4-4.2,0.5c-2.6,0.3-5.1,0.9-7.4,1.7c-2.3,0.7-4.1,1.9-5.5,3.4
		c-1.4,1.5-2.1,3.5-2.1,6.1c0,3.5,1.3,6.2,3.9,8C328.2,229.1,331.5,230,335.5,230z M408,238.9c-6.2,0-11.5-1.5-15.9-4.4
		c-4.5-2.9-7.9-6.9-10.3-12s-3.6-10.9-3.6-17.5c0-6.7,1.2-12.6,3.7-17.7c2.5-5.1,5.9-9.1,10.4-12c4.5-2.9,9.6-4.4,15.6-4.4
		c4.6,0,8.8,0.9,12.5,2.6c3.7,1.7,6.7,4.1,9.1,7.2c2.4,3.1,3.8,6.7,4.4,10.8h-10.1c-0.8-3-2.5-5.6-5.1-8c-2.6-2.3-6.2-3.5-10.6-3.5
		c-3.9,0-7.4,1-10.4,3.1c-2.9,2-5.2,4.9-6.9,8.6c-1.6,3.7-2.4,8-2.4,13c0,5.1,0.8,9.5,2.4,13.3c1.6,3.8,3.9,6.7,6.8,8.8
		c3,2.1,6.4,3.1,10.4,3.1c2.6,0,5-0.5,7.1-1.4c2.1-0.9,4-2.2,5.4-3.9c1.5-1.7,2.5-3.8,3.2-6.2h10.1c-0.6,3.9-2,7.4-4.2,10.5
		c-2.2,3.1-5.2,5.5-8.9,7.4C417.1,238,412.9,238.9,408,238.9z M447.4,237.6v-65.7h10.1v65.7H447.4z M452.6,160.9c-2,0-3.7-0.7-5.1-2
		c-1.4-1.3-2.1-3-2.1-4.8c0-1.9,0.7-3.5,2.1-4.8c1.4-1.3,3.1-2,5.1-2c2,0,3.7,0.7,5,2c1.4,1.3,2.1,3,2.1,4.8c0,1.9-0.7,3.5-2.1,4.8
		C456.2,160.2,454.5,160.9,452.6,160.9z M501.5,238.9c-5.9,0-11.1-1.4-15.6-4.2c-4.5-2.8-7.9-6.8-10.4-11.9
		c-2.5-5.1-3.7-11-3.7-17.8c0-6.8,1.2-12.8,3.7-17.9c2.5-5.1,6-9.1,10.4-11.9c4.5-2.8,9.7-4.2,15.6-4.2c5.9,0,11.1,1.4,15.6,4.2
		c4.5,2.8,8,6.8,10.4,11.9c2.5,5.1,3.8,11.1,3.8,17.9c0,6.8-1.3,12.7-3.8,17.8c-2.5,5.1-6,9-10.4,11.9
		C512.6,237.5,507.4,238.9,501.5,238.9z M501.5,229.8c4.5,0,8.2-1.2,11.1-3.5c2.9-2.3,5.1-5.3,6.5-9.1c1.4-3.8,2.1-7.8,2.1-12.2
		c0-4.4-0.7-8.5-2.1-12.3c-1.4-3.8-3.6-6.9-6.5-9.2c-2.9-2.3-6.6-3.5-11.1-3.5c-4.5,0-8.2,1.2-11.1,3.5c-2.9,2.3-5.1,5.4-6.5,9.2
		c-1.4,3.8-2.1,7.9-2.1,12.3c0,4.4,0.7,8.5,2.1,12.2c1.4,3.8,3.6,6.8,6.5,9.1C493.3,228.7,497,229.8,501.5,229.8z M496.9,162.9
		l10.4-19.9h11.8l-13.4,19.9H496.9z M597.5,239.1c-4.2,0-7.9-0.8-11.3-2.4c-3.4-1.6-6.1-3.9-8.1-6.9c-2-3-3-6.7-3-11
		c0-3.8,0.7-6.8,2.2-9.2c1.5-2.4,3.5-4.2,5.9-5.6c2.5-1.3,5.2-2.3,8.2-3c3-0.7,6.1-1.2,9.1-1.6c4-0.5,7.2-0.9,9.7-1.2
		c2.5-0.3,4.3-0.8,5.5-1.4c1.2-0.7,1.8-1.8,1.8-3.4v-0.3c0-4.2-1.2-7.5-3.5-9.8c-2.3-2.3-5.7-3.5-10.4-3.5c-4.8,0-8.6,1.1-11.3,3.2
		c-2.7,2.1-4.7,4.4-5.8,6.8l-9.6-3.4c1.7-4,4-7.1,6.8-9.3c2.9-2.3,6-3.8,9.4-4.7c3.4-0.9,6.8-1.4,10.1-1.4c2.1,0,4.5,0.3,7.3,0.8
		c2.8,0.5,5.4,1.5,8,3c2.6,1.5,4.7,3.9,6.5,7c1.7,3.1,2.6,7.3,2.6,12.5v43.3h-10.1v-8.9H617c-0.7,1.4-1.8,3-3.4,4.6
		c-1.6,1.6-3.7,3-6.4,4.2C604.6,238.5,601.3,239.1,597.5,239.1z M599.1,230c4,0,7.4-0.8,10.1-2.4c2.8-1.6,4.9-3.6,6.2-6.1
		c1.4-2.5,2.1-5.1,2.1-7.8v-9.2c-0.4,0.5-1.4,1-2.8,1.4c-1.4,0.4-3.1,0.8-5,1.1c-1.9,0.3-3.7,0.5-5.4,0.8c-1.7,0.2-3.2,0.4-4.2,0.5
		c-2.6,0.3-5.1,0.9-7.4,1.7c-2.3,0.7-4.1,1.9-5.5,3.4c-1.4,1.5-2.1,3.5-2.1,6.1c0,3.5,1.3,6.2,3.9,8C591.7,229.1,595,230,599.1,230z
		 M674.1,159.3v-9.4h65.7v9.4h-27.6v78.2h-10.6v-78.2H674.1z M764.1,239.1c-4.2,0-7.9-0.8-11.3-2.4c-3.4-1.6-6.1-3.9-8.1-6.9
		c-2-3-3-6.7-3-11c0-3.8,0.7-6.8,2.2-9.2c1.5-2.4,3.5-4.2,5.9-5.6c2.5-1.3,5.2-2.3,8.2-3c3-0.7,6.1-1.2,9.1-1.6
		c4-0.5,7.2-0.9,9.7-1.2c2.5-0.3,4.3-0.8,5.5-1.4c1.2-0.7,1.8-1.8,1.8-3.4v-0.3c0-4.2-1.2-7.5-3.5-9.8c-2.3-2.3-5.7-3.5-10.4-3.5
		c-4.8,0-8.6,1.1-11.3,3.2c-2.7,2.1-4.7,4.4-5.8,6.8l-9.6-3.4c1.7-4,4-7.1,6.8-9.3c2.9-2.3,6-3.8,9.4-4.7c3.4-0.9,6.8-1.4,10.1-1.4
		c2.1,0,4.5,0.3,7.3,0.8c2.8,0.5,5.4,1.5,8,3c2.6,1.5,4.8,3.9,6.5,7c1.7,3.1,2.6,7.3,2.6,12.5v43.3h-10.1v-8.9h-0.5
		c-0.7,1.4-1.8,3-3.4,4.6c-1.6,1.6-3.7,3-6.4,4.2C771.1,238.5,767.9,239.1,764.1,239.1z M765.6,230c4,0,7.4-0.8,10.1-2.4
		c2.8-1.6,4.8-3.6,6.2-6.1c1.4-2.5,2.1-5.1,2.1-7.8v-9.2c-0.4,0.5-1.4,1-2.8,1.4c-1.4,0.4-3.1,0.8-5,1.1c-1.9,0.3-3.7,0.5-5.4,0.8
		c-1.7,0.2-3.2,0.4-4.2,0.5c-2.6,0.3-5.1,0.9-7.4,1.7c-2.3,0.7-4.1,1.9-5.5,3.4c-1.4,1.5-2.1,3.5-2.1,6.1c0,3.5,1.3,6.2,3.9,8
		C758.3,229.1,761.6,230,765.6,230z M811.4,237.6v-65.7h9.8v9.9h0.7c1.2-3.3,3.4-5.9,6.5-7.9c3.1-2,6.7-3,10.6-3c0.7,0,1.7,0,2.8,0
		c1.1,0,2,0.1,2.5,0.1v10.3c-0.3-0.1-1.1-0.2-2.4-0.4c-1.2-0.2-2.5-0.3-3.8-0.3c-3.2,0-6,0.7-8.6,2c-2.5,1.3-4.5,3.1-5.9,5.5
		c-1.4,2.3-2.1,4.9-2.1,7.9v41.6H811.4z M855,237.6v-65.7h9.8v9.9h0.7c1.2-3.3,3.4-5.9,6.5-7.9c3.1-2,6.7-3,10.6-3
		c0.7,0,1.7,0,2.8,0c1.1,0,2,0.1,2.5,0.1v10.3c-0.3-0.1-1.1-0.2-2.4-0.4c-1.2-0.2-2.5-0.3-3.8-0.3c-3.2,0-6,0.7-8.6,2
		c-2.5,1.3-4.5,3.1-5.9,5.5c-1.4,2.3-2.1,4.9-2.1,7.9v41.6H855z M918,239.1c-4.2,0-7.9-0.8-11.3-2.4c-3.4-1.6-6.1-3.9-8.1-6.9
		c-2-3-3-6.7-3-11c0-3.8,0.7-6.8,2.2-9.2c1.5-2.4,3.5-4.2,5.9-5.6c2.5-1.3,5.2-2.3,8.2-3c3-0.7,6.1-1.2,9.1-1.6
		c4-0.5,7.2-0.9,9.7-1.2c2.5-0.3,4.3-0.8,5.5-1.4c1.2-0.7,1.8-1.8,1.8-3.4v-0.3c0-4.2-1.2-7.5-3.5-9.8c-2.3-2.3-5.7-3.5-10.4-3.5
		c-4.8,0-8.6,1.1-11.3,3.2c-2.7,2.1-4.7,4.4-5.8,6.8l-9.6-3.4c1.7-4,4-7.1,6.8-9.3c2.9-2.3,6-3.8,9.4-4.7c3.4-0.9,6.8-1.4,10.1-1.4
		c2.1,0,4.5,0.3,7.3,0.8c2.8,0.5,5.4,1.5,8,3c2.6,1.5,4.8,3.9,6.5,7c1.7,3.1,2.6,7.3,2.6,12.5v43.3H938v-8.9h-0.5
		c-0.7,1.4-1.8,3-3.4,4.6c-1.6,1.6-3.7,3-6.4,4.2C925.1,238.5,921.8,239.1,918,239.1z M919.5,230c4,0,7.4-0.8,10.1-2.4
		c2.8-1.6,4.8-3.6,6.2-6.1c1.4-2.5,2.1-5.1,2.1-7.8v-9.2c-0.4,0.5-1.4,1-2.8,1.4c-1.4,0.4-3.1,0.8-5,1.1c-1.9,0.3-3.7,0.5-5.4,0.8
		c-1.7,0.2-3.2,0.4-4.2,0.5c-2.6,0.3-5.1,0.9-7.4,1.7c-2.3,0.7-4.1,1.9-5.5,3.4c-1.4,1.5-2.1,3.5-2.1,6.1c0,3.5,1.3,6.2,3.9,8
		C912.2,229.1,915.5,230,919.5,230z M991.9,263.6c-4.9,0-9.1-0.6-12.6-1.9c-3.5-1.2-6.4-2.9-8.8-4.9c-2.3-2-4.2-4.1-5.5-6.4l8-5.6
		c0.9,1.2,2.1,2.6,3.5,4.1c1.4,1.6,3.3,2.9,5.7,4.1c2.5,1.2,5.7,1.8,9.6,1.8c5.3,0,9.7-1.3,13.1-3.9c3.4-2.6,5.2-6.6,5.2-12.1v-13.4
		h-0.9c-0.7,1.2-1.8,2.7-3.2,4.5c-1.3,1.7-3.3,3.3-5.8,4.7c-2.5,1.3-5.9,2-10.2,2c-5.3,0-10.1-1.3-14.3-3.8c-4.2-2.5-7.5-6.2-10-11
		c-2.4-4.8-3.6-10.6-3.6-17.5c0-6.7,1.2-12.6,3.6-17.6c2.4-5,5.7-8.9,9.9-11.6c4.2-2.8,9.1-4.2,14.6-4.2c4.3,0,7.7,0.7,10.2,2.1
		c2.5,1.4,4.5,3,5.8,4.8c1.4,1.8,2.4,3.2,3.2,4.4h1v-10.4h9.8v67.6c0,5.6-1.3,10.2-3.8,13.8c-2.5,3.6-6,6.2-10.3,7.8
		C1001.9,262.7,997.1,263.6,991.9,263.6z M991.5,227.5c4.1,0,7.5-0.9,10.3-2.8c2.8-1.9,4.9-4.5,6.4-8c1.5-3.5,2.2-7.6,2.2-12.5
		c0-4.7-0.7-8.9-2.1-12.5c-1.4-3.6-3.5-6.5-6.3-8.5c-2.8-2.1-6.2-3.1-10.4-3.1c-4.3,0-7.8,1.1-10.7,3.3c-2.8,2.2-4.9,5.1-6.4,8.7
		c-1.4,3.7-2.1,7.7-2.1,12.2c0,4.6,0.7,8.6,2.1,12.1c1.5,3.5,3.6,6.2,6.4,8.2C983.8,226.5,987.3,227.5,991.5,227.5z M1064.3,238.9
		c-5.9,0-11.1-1.4-15.6-4.2c-4.5-2.8-7.9-6.8-10.4-11.9c-2.5-5.1-3.7-11-3.7-17.8c0-6.8,1.2-12.8,3.7-17.9c2.5-5.1,6-9.1,10.4-11.9
		c4.5-2.8,9.7-4.2,15.6-4.2c5.9,0,11.1,1.4,15.6,4.2c4.5,2.8,8,6.8,10.4,11.9c2.5,5.1,3.8,11.1,3.8,17.9c0,6.8-1.3,12.7-3.8,17.8
		c-2.5,5.1-6,9-10.4,11.9C1075.4,237.5,1070.2,238.9,1064.3,238.9z M1064.3,229.8c4.5,0,8.2-1.2,11.1-3.5s5.1-5.3,6.5-9.1
		c1.4-3.8,2.1-7.8,2.1-12.2c0-4.4-0.7-8.5-2.1-12.3c-1.4-3.8-3.5-6.9-6.5-9.2s-6.6-3.5-11.1-3.5s-8.2,1.2-11.1,3.5s-5.1,5.4-6.5,9.2
		c-1.4,3.8-2.1,7.9-2.1,12.3c0,4.4,0.7,8.5,2.1,12.2c1.4,3.8,3.6,6.8,6.5,9.1S1059.8,229.8,1064.3,229.8z M1118.4,198v39.5h-10.1
		v-65.7h9.8v10.3h0.8c1.5-3.3,3.9-6,7-8c3.1-2.1,7.2-3.1,12.2-3.1c4.4,0,8.3,0.9,11.7,2.7c3.3,1.8,5.9,4.5,7.8,8.2
		c1.8,3.7,2.8,8.3,2.8,13.9v41.8h-10.1v-41.1c0-5.2-1.3-9.2-4-12.1c-2.7-2.9-6.4-4.4-11-4.4c-3.2,0-6.1,0.7-8.6,2.1
		c-2.5,1.4-4.5,3.4-5.9,6.1C1119.1,190.9,1118.4,194.2,1118.4,198z M1196.9,239.1c-4.2,0-8-0.8-11.3-2.4c-3.4-1.6-6.1-3.9-8.1-6.9
		c-2-3-3-6.7-3-11c0-3.8,0.7-6.8,2.2-9.2c1.5-2.4,3.5-4.2,6-5.6c2.5-1.3,5.2-2.3,8.2-3c3-0.7,6.1-1.2,9.1-1.6c4-0.5,7.2-0.9,9.7-1.2
		c2.5-0.3,4.3-0.8,5.5-1.4c1.2-0.7,1.8-1.8,1.8-3.4v-0.3c0-4.2-1.2-7.5-3.5-9.8c-2.3-2.3-5.8-3.5-10.4-3.5c-4.8,0-8.6,1.1-11.3,3.2
		c-2.7,2.1-4.7,4.4-5.8,6.8l-9.6-3.4c1.7-4,4-7.1,6.8-9.3c2.9-2.3,6-3.8,9.4-4.7c3.4-0.9,6.8-1.4,10.1-1.4c2.1,0,4.5,0.3,7.3,0.8
		c2.8,0.5,5.4,1.5,8,3c2.6,1.5,4.8,3.9,6.5,7c1.7,3.1,2.6,7.3,2.6,12.5v43.3h-10.1v-8.9h-0.5c-0.7,1.4-1.8,3-3.4,4.6
		c-1.6,1.6-3.7,3-6.4,4.2C1203.9,238.5,1200.7,239.1,1196.9,239.1z M1198.4,230c4,0,7.4-0.8,10.1-2.4c2.8-1.6,4.8-3.6,6.2-6.1
		c1.4-2.5,2.1-5.1,2.1-7.8v-9.2c-0.4,0.5-1.4,1-2.8,1.4c-1.4,0.4-3.1,0.8-5,1.1c-1.9,0.3-3.7,0.5-5.4,0.8c-1.7,0.2-3.1,0.4-4.2,0.5
		c-2.6,0.3-5.1,0.9-7.4,1.7c-2.3,0.7-4.1,1.9-5.5,3.4c-1.4,1.5-2.1,3.5-2.1,6.1c0,3.5,1.3,6.2,3.9,8
		C1191.1,229.1,1194.4,230,1198.4,230z"/>
</g>
</svg>
