<?xml version="1.0" encoding="utf-8"?>
<!-- Generator: Adobe Illustrator 27.3.1, SVG Export Plug-In . SVG Version: 6.00 Build 0)  -->
<svg version="1.1" id="Capa_1" xmlns="http://www.w3.org/2000/svg" xmlns:xlink="http://www.w3.org/1999/xlink" x="0px" y="0px"
	 viewBox="0 0 1436 283" style="enable-background:new 0 0 1436 283;" xml:space="preserve">
<g>
	<path d="M78.5,47.3c-0.5-4.3-2.6-7.7-6.2-10.1c-3.7-2.4-8.1-3.6-13.4-3.6c-3.9,0-7.3,0.6-10.2,1.9c-2.9,1.3-5.1,3-6.8,5.2
		c-1.6,2.2-2.4,4.7-2.4,7.5c0,2.3,0.6,4.4,1.7,6c1.1,1.7,2.6,3,4.4,4.2c1.8,1.1,3.6,2,5.6,2.7c1.9,0.7,3.7,1.2,5.3,1.7l8.9,2.4
		c2.3,0.6,4.8,1.4,7.6,2.5c2.8,1.1,5.5,2.5,8.1,4.3c2.6,1.8,4.7,4.1,6.4,6.9c1.7,2.8,2.5,6.3,2.5,10.4c0,4.7-1.2,9-3.7,12.8
		c-2.5,3.8-6,6.9-10.8,9.1c-4.7,2.3-10.4,3.4-17.2,3.4c-6.3,0-11.7-1-16.3-3c-4.6-2-8.2-4.8-10.8-8.5c-2.6-3.6-4.1-7.8-4.4-12.6h11
		c0.3,3.3,1.4,6,3.3,8.2c2,2.1,4.5,3.7,7.4,4.8c3,1,6.3,1.5,9.8,1.5c4.1,0,7.7-0.7,10.9-2c3.2-1.3,5.8-3.2,7.7-5.6
		c1.9-2.4,2.8-5.2,2.8-8.4c0-2.9-0.8-5.3-2.4-7.1c-1.6-1.8-3.8-3.3-6.4-4.5c-2.7-1.1-5.5-2.1-8.6-3l-10.8-3.1
		c-6.8-2-12.3-4.8-16.3-8.4c-4-3.7-6-8.4-6-14.3c0-4.9,1.3-9.2,4-12.8c2.7-3.7,6.3-6.5,10.8-8.6c4.5-2.1,9.6-3.1,15.2-3.1
		c5.6,0,10.7,1,15.1,3c4.4,2,7.9,4.7,10.4,8.2c2.6,3.5,4,7.4,4.1,11.9H78.5z M124.2,114.5c-4.2,0-7.9-0.8-11.3-2.4
		c-3.4-1.6-6.1-3.9-8.1-6.9c-2-3-3-6.7-3-11c0-3.8,0.7-6.8,2.2-9.2c1.5-2.4,3.5-4.2,5.9-5.6c2.5-1.3,5.2-2.3,8.2-3
		c3-0.7,6.1-1.2,9.1-1.6c4-0.5,7.2-0.9,9.7-1.2c2.5-0.3,4.3-0.8,5.5-1.4c1.2-0.7,1.8-1.8,1.8-3.4v-0.3c0-4.2-1.2-7.5-3.5-9.8
		c-2.3-2.3-5.7-3.5-10.4-3.5c-4.8,0-8.6,1.1-11.3,3.2c-2.7,2.1-4.7,4.4-5.8,6.8l-9.6-3.4c1.7-4,4-7.1,6.8-9.3c2.9-2.3,6-3.8,9.4-4.7
		c3.4-0.9,6.8-1.4,10.1-1.4c2.1,0,4.5,0.3,7.3,0.8c2.8,0.5,5.4,1.5,8,3c2.6,1.5,4.8,3.9,6.5,7c1.7,3.1,2.6,7.3,2.6,12.5V113h-10.1
		v-8.9h-0.5c-0.7,1.4-1.8,3-3.4,4.6c-1.6,1.6-3.7,3-6.4,4.2S128,114.5,124.2,114.5z M125.8,105.5c4,0,7.4-0.8,10.1-2.4
		c2.8-1.6,4.9-3.6,6.2-6.1c1.4-2.5,2.1-5.1,2.1-7.8V80c-0.4,0.5-1.4,1-2.8,1.4c-1.4,0.4-3.1,0.8-5,1.1c-1.9,0.3-3.7,0.5-5.4,0.8
		c-1.7,0.2-3.2,0.4-4.2,0.5c-2.6,0.3-5.1,0.9-7.4,1.7c-2.3,0.7-4.1,1.9-5.5,3.4c-1.4,1.5-2.1,3.5-2.1,6.1c0,3.5,1.3,6.2,3.9,8
		C118.4,104.6,121.7,105.5,125.8,105.5z M181.7,25.4V113h-10.1V25.4H181.7z M218.3,114.5c-4.2,0-7.9-0.8-11.3-2.4
		c-3.4-1.6-6.1-3.9-8.1-6.9c-2-3-3-6.7-3-11c0-3.8,0.7-6.8,2.2-9.2c1.5-2.4,3.5-4.2,5.9-5.6c2.5-1.3,5.2-2.3,8.2-3
		c3-0.7,6.1-1.2,9.1-1.6c4-0.5,7.2-0.9,9.7-1.2c2.5-0.3,4.3-0.8,5.5-1.4c1.2-0.7,1.8-1.8,1.8-3.4v-0.3c0-4.2-1.2-7.5-3.5-9.8
		c-2.3-2.3-5.7-3.5-10.4-3.5c-4.8,0-8.6,1.1-11.3,3.2c-2.7,2.1-4.7,4.4-5.8,6.8l-9.6-3.4c1.7-4,4-7.1,6.8-9.3c2.9-2.3,6-3.8,9.4-4.7
		c3.4-0.9,6.8-1.4,10.1-1.4c2.1,0,4.5,0.3,7.3,0.8c2.8,0.5,5.4,1.5,8,3c2.6,1.5,4.7,3.9,6.5,7c1.7,3.1,2.6,7.3,2.6,12.5V113h-10.1
		v-8.9h-0.5c-0.7,1.4-1.8,3-3.4,4.6c-1.6,1.6-3.7,3-6.4,4.2S222.1,114.5,218.3,114.5z M219.8,105.5c4,0,7.4-0.8,10.1-2.4
		c2.8-1.6,4.8-3.6,6.2-6.1c1.4-2.5,2.1-5.1,2.1-7.8V80c-0.4,0.5-1.4,1-2.8,1.4c-1.4,0.4-3.1,0.8-5,1.1c-1.9,0.3-3.7,0.5-5.4,0.8
		c-1.7,0.2-3.2,0.4-4.2,0.5c-2.6,0.3-5.1,0.9-7.4,1.7c-2.3,0.7-4.1,1.9-5.5,3.4c-1.4,1.5-2.1,3.5-2.1,6.1c0,3.5,1.3,6.2,3.9,8
		C212.5,104.6,215.8,105.5,219.8,105.5z M333.2,25.4h10.6V88c0,5.6-1,10.3-3.1,14.2c-2.1,3.9-4.9,6.9-8.7,8.9c-3.7,2-8.1,3-13.2,3
		c-4.8,0-9.1-0.9-12.8-2.6c-3.7-1.8-6.7-4.3-8.8-7.5c-2.1-3.3-3.2-7.1-3.2-11.6h10.4c0,2.5,0.6,4.6,1.8,6.5c1.3,1.8,3,3.3,5.1,4.3
		s4.6,1.5,7.4,1.5c3.1,0,5.6-0.6,7.8-1.9c2.1-1.3,3.8-3.2,4.9-5.6c1.1-2.5,1.7-5.6,1.7-9.2V25.4z M389.2,114.4
		c-5.9,0-11.1-1.4-15.6-4.2c-4.4-2.8-7.9-6.8-10.4-11.9c-2.5-5.1-3.7-11-3.7-17.8c0-6.8,1.2-12.8,3.7-17.9c2.5-5.1,6-9.1,10.4-11.9
		c4.5-2.8,9.7-4.2,15.6-4.2c5.9,0,11.1,1.4,15.6,4.2c4.5,2.8,8,6.8,10.4,11.9c2.5,5.1,3.8,11.1,3.8,17.9c0,6.8-1.3,12.7-3.8,17.8
		c-2.5,5.1-6,9-10.4,11.9C400.4,113,395.2,114.4,389.2,114.4z M389.2,105.3c4.5,0,8.2-1.2,11.1-3.5c2.9-2.3,5.1-5.3,6.5-9.1
		c1.4-3.8,2.1-7.8,2.1-12.2s-0.7-8.5-2.1-12.3s-3.6-6.9-6.5-9.2c-2.9-2.3-6.6-3.5-11.1-3.5c-4.5,0-8.2,1.2-11.1,3.5
		c-2.9,2.3-5.1,5.4-6.5,9.2c-1.4,3.8-2.1,7.9-2.1,12.3s0.7,8.5,2.1,12.2c1.4,3.8,3.6,6.8,6.5,9.1C381,104.1,384.7,105.3,389.2,105.3
		z M484.6,47.3L460.3,113h-10.3l-24.3-65.7h11l18.1,52.4h0.7l18.1-52.4H484.6z M522,114.4c-6.3,0-11.8-1.4-16.4-4.2
		c-4.6-2.8-8.1-6.8-10.6-11.8c-2.5-5.1-3.7-11-3.7-17.7c0-6.7,1.2-12.7,3.7-17.8c2.5-5.2,5.9-9.2,10.4-12.1
		c4.4-2.9,9.6-4.4,15.6-4.4c3.4,0,6.8,0.6,10.1,1.7c3.3,1.1,6.4,3,9.1,5.6c2.7,2.5,4.9,5.9,6.5,10.1s2.4,9.4,2.4,15.5v4.3h-50.7
		v-8.7h40.4c0-3.7-0.7-7-2.2-9.9c-1.5-2.9-3.5-5.2-6.2-6.9c-2.7-1.7-5.8-2.5-9.5-2.5c-4,0-7.5,1-10.4,3c-2.9,2-5.1,4.5-6.7,7.7
		c-1.6,3.2-2.4,6.6-2.4,10.2v5.8c0,5,0.9,9.2,2.6,12.6c1.7,3.4,4.2,6,7.2,7.8c3.1,1.8,6.7,2.7,10.7,2.7c2.7,0,5-0.4,7.2-1.1
		c2.2-0.8,4-1.9,5.6-3.4c1.6-1.5,2.8-3.5,3.6-5.7l9.8,2.7c-1,3.3-2.8,6.2-5.2,8.7c-2.4,2.5-5.4,4.4-9,5.8
		C530.4,113.7,526.4,114.4,522,114.4z M597.4,113V25.4H608v43.5h1l39.4-43.5h13.9l-36.8,39.5l36.8,48.1h-12.8l-30.5-40.7l-11,12.3
		V113H597.4z M696.1,114.4c-6.3,0-11.8-1.4-16.4-4.2c-4.6-2.8-8.1-6.8-10.6-11.8c-2.5-5.1-3.7-11-3.7-17.7c0-6.7,1.2-12.7,3.7-17.8
		c2.5-5.2,5.9-9.2,10.4-12.1c4.5-2.9,9.6-4.4,15.6-4.4c3.4,0,6.8,0.6,10.1,1.7c3.3,1.1,6.4,3,9.1,5.6c2.7,2.5,4.9,5.9,6.5,10.1
		c1.6,4.2,2.4,9.4,2.4,15.5v4.3h-50.7v-8.7h40.4c0-3.7-0.7-7-2.2-9.9c-1.5-2.9-3.5-5.2-6.2-6.9c-2.7-1.7-5.8-2.5-9.5-2.5
		c-4,0-7.5,1-10.4,3c-2.9,2-5.1,4.5-6.7,7.7c-1.6,3.2-2.4,6.6-2.4,10.2v5.8c0,5,0.9,9.2,2.6,12.6c1.7,3.4,4.2,6,7.2,7.8
		c3.1,1.8,6.7,2.7,10.7,2.7c2.7,0,5-0.4,7.2-1.1c2.2-0.8,4-1.9,5.6-3.4c1.6-1.5,2.8-3.5,3.6-5.7l9.8,2.7c-1,3.3-2.8,6.2-5.2,8.7
		c-2.4,2.5-5.4,4.4-9,5.8C704.6,113.7,700.6,114.4,696.1,114.4z M784.1,62l-9.1,2.6c-0.6-1.5-1.4-3-2.5-4.4
		c-1.1-1.5-2.6-2.7-4.4-3.6c-1.9-0.9-4.3-1.4-7.2-1.4c-4,0-7.4,0.9-10.1,2.8c-2.7,1.8-4,4.2-4,7c0,2.5,0.9,4.5,2.7,5.9
		c1.8,1.5,4.7,2.7,8.6,3.6l9.8,2.4c5.9,1.4,10.3,3.6,13.1,6.5c2.9,2.9,4.3,6.7,4.3,11.3c0,3.8-1.1,7.1-3.3,10.1c-2.1,3-5.1,5.3-9,7
		c-3.9,1.7-8.3,2.6-13.4,2.6c-6.7,0-12.3-1.5-16.6-4.4c-4.4-2.9-7.2-7.2-8.3-12.8l9.6-2.4c0.9,3.5,2.6,6.2,5.2,8
		c2.6,1.8,5.9,2.7,10.1,2.7c4.7,0,8.4-1,11.2-3c2.8-2,4.2-4.5,4.2-7.3c0-2.3-0.8-4.2-2.4-5.7c-1.6-1.6-4.1-2.7-7.4-3.5l-11-2.6
		c-6-1.4-10.4-3.6-13.3-6.6c-2.8-3-4.2-6.8-4.2-11.3c0-3.7,1-7,3.1-9.8c2.1-2.9,5-5.1,8.6-6.7c3.7-1.6,7.8-2.4,12.4-2.4
		c6.5,0,11.6,1.4,15.3,4.3C779.8,53.6,782.5,57.3,784.1,62z M845.8,62l-9.1,2.6c-0.6-1.5-1.4-3-2.5-4.4c-1.1-1.5-2.6-2.7-4.5-3.6
		c-1.9-0.9-4.3-1.4-7.2-1.4c-4,0-7.4,0.9-10.1,2.8c-2.7,1.8-4,4.2-4,7c0,2.5,0.9,4.5,2.7,5.9c1.8,1.5,4.7,2.7,8.6,3.6l9.8,2.4
		c5.9,1.4,10.3,3.6,13.1,6.5c2.9,2.9,4.3,6.7,4.3,11.3c0,3.8-1.1,7.1-3.3,10.1c-2.1,3-5.1,5.3-9,7c-3.9,1.7-8.3,2.6-13.4,2.6
		c-6.7,0-12.3-1.5-16.6-4.4c-4.4-2.9-7.2-7.2-8.3-12.8l9.6-2.4c0.9,3.5,2.6,6.2,5.2,8c2.6,1.8,5.9,2.7,10.1,2.7c4.7,0,8.4-1,11.2-3
		c2.8-2,4.2-4.5,4.2-7.3c0-2.3-0.8-4.2-2.4-5.7c-1.6-1.6-4-2.7-7.4-3.5l-11-2.6c-6-1.4-10.4-3.6-13.3-6.6c-2.8-3-4.2-6.8-4.2-11.3
		c0-3.7,1-7,3.1-9.8c2.1-2.9,5-5.1,8.6-6.7c3.7-1.6,7.8-2.4,12.4-2.4c6.5,0,11.6,1.4,15.3,4.3C841.6,53.6,844.2,57.3,845.8,62z
		 M888.6,114.4c-6.3,0-11.8-1.4-16.4-4.2c-4.6-2.8-8.1-6.8-10.6-11.8c-2.5-5.1-3.7-11-3.7-17.7c0-6.7,1.2-12.7,3.7-17.8
		c2.5-5.2,5.9-9.2,10.4-12.1c4.5-2.9,9.6-4.4,15.6-4.4c3.4,0,6.8,0.6,10.1,1.7c3.3,1.1,6.4,3,9.1,5.6c2.7,2.5,4.9,5.9,6.5,10.1
		c1.6,4.2,2.4,9.4,2.4,15.5v4.3h-50.7v-8.7h40.4c0-3.7-0.7-7-2.2-9.9c-1.5-2.9-3.5-5.2-6.2-6.9c-2.7-1.7-5.8-2.5-9.5-2.5
		c-4,0-7.5,1-10.4,3c-2.9,2-5.1,4.5-6.7,7.7c-1.6,3.2-2.4,6.6-2.4,10.2v5.8c0,5,0.9,9.2,2.6,12.6c1.7,3.4,4.1,6,7.2,7.8
		c3.1,1.8,6.7,2.7,10.7,2.7c2.7,0,5-0.4,7.2-1.1c2.2-0.8,4-1.9,5.6-3.4c1.6-1.5,2.8-3.5,3.6-5.7l9.8,2.7c-1,3.3-2.8,6.2-5.2,8.7
		c-2.4,2.5-5.4,4.4-9,5.8C897,113.7,893,114.4,888.6,114.4z M57.7,250.2c-6.4,0-11.9-1.8-16.5-5.3c-4.5-3.5-8-8.7-10.4-15.4
		c-2.4-6.7-3.6-14.9-3.6-24.4c0-9.5,1.2-17.6,3.6-24.3c2.4-6.7,5.9-11.9,10.4-15.4c4.6-3.6,10-5.3,16.4-5.3c6.4,0,11.9,1.8,16.4,5.3
		c4.6,3.5,8,8.7,10.4,15.4c2.4,6.7,3.6,14.8,3.6,24.3c0,9.5-1.2,17.7-3.6,24.4c-2.4,6.7-5.9,11.8-10.4,15.4
		C69.6,248.4,64.1,250.2,57.7,250.2z M57.7,240.8c6.4,0,11.4-3.1,14.9-9.2c3.5-6.2,5.3-14.9,5.3-26.4c0-7.6-0.8-14-2.4-19.4
		c-1.6-5.3-3.9-9.4-6.9-12.2c-3-2.8-6.6-4.2-10.8-4.2c-6.3,0-11.3,3.1-14.8,9.4c-3.6,6.2-5.3,15-5.3,26.4c0,7.6,0.8,14,2.4,19.3
		s3.9,9.3,6.9,12.1C49.8,239.4,53.4,240.8,57.7,240.8z M132.8,250.2c-5.6,0-10.7-1-15.1-2.9c-4.4-1.9-7.9-4.6-10.5-8.1
		c-2.6-3.5-4-7.5-4.2-12.1h10.8c0.2,2.8,1.2,5.3,2.9,7.3c1.7,2,4,3.6,6.7,4.7c2.8,1.1,5.8,1.7,9.2,1.7c3.8,0,7.1-0.7,10-2
		c2.9-1.3,5.2-3.1,6.8-5.5c1.7-2.3,2.5-5,2.5-8.1c0-3.2-0.8-6.1-2.4-8.5c-1.6-2.5-3.9-4.4-7-5.8s-6.8-2.1-11.3-2.1h-7v-9.4h7
		c3.5,0,6.5-0.6,9.2-1.9c2.7-1.3,4.7-3,6.2-5.3c1.5-2.3,2.3-5,2.3-8c0-3-0.7-5.5-2-7.7c-1.3-2.2-3.2-3.9-5.6-5.1
		c-2.4-1.2-5.2-1.8-8.4-1.8c-3,0-5.9,0.6-8.6,1.7c-2.7,1.1-4.8,2.7-6.5,4.8c-1.7,2.1-2.6,4.5-2.7,7.4h-10.3
		c0.2-4.6,1.6-8.6,4.2-12.1c2.6-3.5,6-6.2,10.2-8.1c4.2-1.9,8.9-2.9,13.9-2.9c5.4,0,10.1,1.1,13.9,3.3c3.9,2.2,6.9,5,8.9,8.6
		c2.1,3.6,3.1,7.4,3.1,11.6c0,4.9-1.3,9.1-3.9,12.6c-2.6,3.5-6.1,5.9-10.5,7.2v0.7c5.5,0.9,9.9,3.3,13,7.1c3.1,3.8,4.7,8.4,4.7,14
		c0,4.8-1.3,9-3.9,12.8c-2.6,3.8-6.1,6.7-10.5,8.9C143.5,249.1,138.5,250.2,132.8,250.2z M183.5,249.7c-2.1,0-3.9-0.8-5.4-2.3
		c-1.5-1.5-2.3-3.3-2.3-5.4c0-2.1,0.8-3.9,2.3-5.4c1.5-1.5,3.3-2.3,5.4-2.3c2.1,0,3.9,0.8,5.4,2.3c1.5,1.5,2.3,3.3,2.3,5.4
		c0,1.4-0.4,2.7-1.1,3.9c-0.7,1.2-1.6,2.1-2.8,2.8C186.2,249.3,184.9,249.7,183.5,249.7z M233.5,250.2c-6.4,0-11.9-1.8-16.5-5.3
		c-4.5-3.5-8-8.7-10.4-15.4c-2.4-6.7-3.6-14.9-3.6-24.4c0-9.5,1.2-17.6,3.6-24.3c2.4-6.7,5.9-11.9,10.4-15.4
		c4.6-3.6,10-5.3,16.4-5.3c6.4,0,11.9,1.8,16.4,5.3c4.6,3.5,8,8.7,10.4,15.4c2.4,6.7,3.6,14.8,3.6,24.3c0,9.5-1.2,17.7-3.6,24.4
		c-2.4,6.7-5.9,11.8-10.4,15.4C245.4,248.4,239.9,250.2,233.5,250.2z M233.5,240.8c6.4,0,11.4-3.1,14.9-9.2
		c3.5-6.2,5.3-14.9,5.3-26.4c0-7.6-0.8-14-2.4-19.4c-1.6-5.3-3.9-9.4-6.9-12.2c-3-2.8-6.6-4.2-10.8-4.2c-6.3,0-11.3,3.1-14.8,9.4
		c-3.6,6.2-5.3,15-5.3,26.4c0,7.6,0.8,14,2.4,19.3c1.6,5.3,3.9,9.3,6.9,12.1C225.6,239.4,229.2,240.8,233.5,240.8z M308.6,250.2
		c-5.6,0-10.7-1-15.1-2.9c-4.4-1.9-7.9-4.6-10.5-8.1c-2.6-3.5-4-7.5-4.2-12.1h10.8c0.2,2.8,1.2,5.3,2.9,7.3c1.7,2,4,3.6,6.7,4.7
		c2.8,1.1,5.8,1.7,9.2,1.7c3.8,0,7.1-0.7,10-2c2.9-1.3,5.2-3.1,6.8-5.5c1.7-2.3,2.5-5,2.5-8.1c0-3.2-0.8-6.1-2.4-8.5
		c-1.6-2.5-3.9-4.4-7-5.8c-3.1-1.4-6.8-2.1-11.3-2.1h-7v-9.4h7c3.5,0,6.5-0.6,9.2-1.9c2.7-1.3,4.7-3,6.2-5.3c1.5-2.3,2.3-5,2.3-8
		c0-3-0.7-5.5-2-7.7c-1.3-2.2-3.2-3.9-5.6-5.1c-2.4-1.2-5.2-1.8-8.4-1.8c-3,0-5.9,0.6-8.6,1.7c-2.7,1.1-4.8,2.7-6.5,4.8
		c-1.7,2.1-2.6,4.5-2.7,7.4h-10.3c0.2-4.6,1.6-8.6,4.2-12.1c2.6-3.5,6-6.2,10.2-8.1c4.2-1.9,8.9-2.9,13.9-2.9
		c5.4,0,10.1,1.1,13.9,3.3c3.9,2.2,6.9,5,8.9,8.6c2.1,3.6,3.1,7.4,3.1,11.6c0,4.9-1.3,9.1-3.9,12.6c-2.6,3.5-6.1,5.9-10.5,7.2v0.7
		c5.5,0.9,9.9,3.3,13,7.1c3.1,3.8,4.7,8.4,4.7,14c0,4.8-1.3,9-3.9,12.8c-2.6,3.8-6.1,6.7-10.5,8.9
		C319.4,249.1,314.3,250.2,308.6,250.2z M359.3,249.7c-2.1,0-3.9-0.8-5.4-2.3c-1.5-1.5-2.3-3.3-2.3-5.4c0-2.1,0.8-3.9,2.3-5.4
		c1.5-1.5,3.3-2.3,5.4-2.3c2.1,0,3.9,0.8,5.4,2.3c1.5,1.5,2.3,3.3,2.3,5.4c0,1.4-0.4,2.7-1.1,3.9c-0.7,1.2-1.6,2.1-2.8,2.8
		C362.1,249.3,360.8,249.7,359.3,249.7z M383.8,249v-7.7l28.9-31.7c3.4-3.7,6.2-6.9,8.4-9.7c2.2-2.8,3.8-5.4,4.9-7.8
		c1.1-2.5,1.6-5,1.6-7.7c0-3.1-0.7-5.7-2.2-8c-1.5-2.3-3.5-4-6-5.2c-2.5-1.2-5.4-1.8-8.6-1.8c-3.4,0-6.3,0.7-8.8,2.1
		c-2.5,1.4-4.4,3.3-5.8,5.8c-1.3,2.5-2,5.4-2,8.7h-10.1c0-5.1,1.2-9.6,3.6-13.5c2.4-3.9,5.6-6.9,9.7-9.1c4.1-2.2,8.7-3.3,13.8-3.3
		c5.1,0,9.7,1.1,13.7,3.3s7.1,5.1,9.3,8.8c2.3,3.7,3.4,7.8,3.4,12.3c0,3.2-0.6,6.4-1.8,9.5c-1.1,3.1-3.1,6.5-6,10.2
		c-2.8,3.7-6.7,8.3-11.8,13.7l-19.7,21.1v0.7h40.7v9.4H383.8z M484.1,250.2c-6.4,0-11.9-1.8-16.5-5.3c-4.5-3.5-8-8.7-10.4-15.4
		c-2.4-6.7-3.6-14.9-3.6-24.4c0-9.5,1.2-17.6,3.6-24.3c2.4-6.7,5.9-11.9,10.4-15.4c4.6-3.6,10-5.3,16.4-5.3c6.4,0,11.9,1.8,16.4,5.3
		c4.6,3.5,8,8.7,10.4,15.4c2.4,6.7,3.6,14.8,3.6,24.3c0,9.5-1.2,17.7-3.6,24.4c-2.4,6.7-5.9,11.8-10.4,15.4
		C496.1,248.4,490.6,250.2,484.1,250.2z M484.1,240.8c6.4,0,11.4-3.1,14.9-9.2c3.5-6.2,5.3-14.9,5.3-26.4c0-7.6-0.8-14-2.4-19.4
		c-1.6-5.3-3.9-9.4-6.9-12.2c-3-2.8-6.6-4.2-10.8-4.2c-6.3,0-11.3,3.1-14.8,9.4c-3.6,6.2-5.3,15-5.3,26.4c0,7.6,0.8,14,2.4,19.3
		c1.6,5.3,3.9,9.3,6.9,12.1C476.2,239.4,479.9,240.8,484.1,240.8z M529.6,249v-7.7l28.9-31.7c3.4-3.7,6.2-6.9,8.4-9.7
		c2.2-2.8,3.8-5.4,4.9-7.8c1.1-2.5,1.6-5,1.6-7.7c0-3.1-0.7-5.7-2.2-8c-1.5-2.3-3.5-4-6-5.2c-2.5-1.2-5.4-1.8-8.6-1.8
		c-3.4,0-6.3,0.7-8.8,2.1c-2.5,1.4-4.4,3.3-5.8,5.8c-1.3,2.5-2,5.4-2,8.7H530c0-5.1,1.2-9.6,3.6-13.5c2.4-3.9,5.6-6.9,9.7-9.1
		c4.1-2.2,8.7-3.3,13.8-3.3c5.1,0,9.7,1.1,13.6,3.3c4,2.2,7.1,5.1,9.3,8.8c2.3,3.7,3.4,7.8,3.4,12.3c0,3.2-0.6,6.4-1.8,9.5
		c-1.1,3.1-3.1,6.5-6,10.2c-2.8,3.7-6.7,8.3-11.8,13.7l-19.7,21.1v0.7h40.7v9.4H529.6z M631,250.2c-5.6,0-10.7-1-15.1-2.9
		c-4.4-1.9-7.9-4.6-10.5-8.1c-2.6-3.5-4-7.5-4.2-12.1H612c0.2,2.8,1.2,5.3,2.9,7.3c1.7,2,4,3.6,6.7,4.7c2.8,1.1,5.8,1.7,9.2,1.7
		c3.8,0,7.1-0.7,10-2c2.9-1.3,5.2-3.1,6.8-5.5c1.7-2.3,2.5-5,2.5-8.1c0-3.2-0.8-6.1-2.4-8.5c-1.6-2.5-3.9-4.4-7-5.8
		s-6.8-2.1-11.3-2.1h-7v-9.4h7c3.5,0,6.5-0.6,9.2-1.9c2.7-1.3,4.7-3,6.2-5.3c1.5-2.3,2.3-5,2.3-8c0-3-0.7-5.5-2-7.7
		c-1.3-2.2-3.2-3.9-5.6-5.1c-2.4-1.2-5.2-1.8-8.4-1.8c-3,0-5.9,0.6-8.6,1.7c-2.7,1.1-4.8,2.7-6.5,4.8c-1.7,2.1-2.6,4.5-2.7,7.4
		h-10.3c0.2-4.6,1.6-8.6,4.2-12.1c2.6-3.5,6-6.2,10.2-8.1c4.2-1.9,8.9-2.9,13.9-2.9c5.4,0,10.1,1.1,13.9,3.3c3.9,2.2,6.9,5,8.9,8.6
		c2.1,3.6,3.1,7.4,3.1,11.6c0,4.9-1.3,9.1-3.9,12.6c-2.6,3.5-6.1,5.9-10.5,7.2v0.7c5.5,0.9,9.9,3.3,13,7.1c3.1,3.8,4.7,8.4,4.7,14
		c0,4.8-1.3,9-3.9,12.8c-2.6,3.8-6.1,6.7-10.5,8.9C641.7,249.1,636.7,250.2,631,250.2z M732.6,243.5L726,237l27.1-27.1h-70.3v-9.4
		h70.3l-27.1-27l6.6-6.6l38.3,38.3L732.6,243.5z M820.3,250.2c-5.6,0-10.7-1-15.1-2.9c-4.4-1.9-7.9-4.6-10.5-8.1
		c-2.6-3.5-4-7.5-4.2-12.1h10.8c0.2,2.8,1.2,5.3,2.9,7.3c1.7,2,4,3.6,6.7,4.7c2.8,1.1,5.8,1.7,9.2,1.7c3.8,0,7.1-0.7,10-2
		c2.9-1.3,5.2-3.1,6.8-5.5c1.7-2.3,2.5-5,2.5-8.1c0-3.2-0.8-6.1-2.4-8.5c-1.6-2.5-3.9-4.4-7-5.8c-3.1-1.4-6.8-2.1-11.3-2.1h-7v-9.4
		h7c3.5,0,6.5-0.6,9.2-1.9c2.7-1.3,4.7-3,6.2-5.3c1.5-2.3,2.3-5,2.3-8c0-3-0.7-5.5-2-7.7c-1.3-2.2-3.2-3.9-5.6-5.1
		c-2.4-1.2-5.2-1.8-8.4-1.8c-3,0-5.9,0.6-8.6,1.7c-2.7,1.1-4.8,2.7-6.5,4.8c-1.7,2.1-2.6,4.5-2.7,7.4h-10.3
		c0.2-4.6,1.6-8.6,4.2-12.1c2.6-3.5,6-6.2,10.2-8.1c4.2-1.9,8.9-2.9,13.9-2.9c5.4,0,10.1,1.1,13.9,3.3c3.9,2.2,6.9,5,8.9,8.6
		c2.1,3.6,3.1,7.4,3.1,11.6c0,4.9-1.3,9.1-3.9,12.6c-2.6,3.5-6.1,5.9-10.5,7.2v0.7c5.5,0.9,9.9,3.3,13,7.1c3.1,3.8,4.7,8.4,4.7,14
		c0,4.8-1.3,9-3.9,12.8c-2.6,3.8-6.1,6.7-10.5,8.9C831,249.1,826,250.2,820.3,250.2z M897,161.4V249h-10.6v-76.5h-0.5l-21.4,14.2
		v-10.8l21.9-14.5H897z M923.3,249.7c-2.1,0-3.9-0.8-5.4-2.3c-1.5-1.5-2.3-3.3-2.3-5.4c0-2.1,0.8-3.9,2.3-5.4
		c1.5-1.5,3.3-2.3,5.4-2.3c2.1,0,3.9,0.8,5.4,2.3c1.5,1.5,2.3,3.3,2.3,5.4c0,1.4-0.4,2.7-1.1,3.9c-0.7,1.2-1.6,2.1-2.8,2.8
		C926.1,249.3,924.8,249.7,923.3,249.7z M973.3,250.2c-6.4,0-11.9-1.8-16.5-5.3c-4.5-3.5-8-8.7-10.4-15.4
		c-2.4-6.7-3.6-14.9-3.6-24.4c0-9.5,1.2-17.6,3.6-24.3c2.4-6.7,5.9-11.9,10.4-15.4c4.6-3.6,10-5.3,16.4-5.3c6.4,0,11.9,1.8,16.4,5.3
		c4.6,3.5,8,8.7,10.4,15.4c2.4,6.7,3.6,14.8,3.6,24.3c0,9.5-1.2,17.7-3.6,24.4c-2.4,6.7-5.9,11.8-10.4,15.4
		C985.3,248.4,979.8,250.2,973.3,250.2z M973.3,240.8c6.4,0,11.4-3.1,14.9-9.2c3.5-6.2,5.3-14.9,5.3-26.4c0-7.6-0.8-14-2.4-19.4
		c-1.6-5.3-3.9-9.4-6.9-12.2c-3-2.8-6.6-4.2-10.8-4.2c-6.3,0-11.3,3.1-14.8,9.4c-3.6,6.2-5.3,15-5.3,26.4c0,7.6,0.8,14,2.4,19.3
		c1.6,5.3,3.9,9.3,6.9,12.1C965.4,239.4,969.1,240.8,973.3,240.8z M1048.4,250.2c-5.6,0-10.7-1-15.1-2.9c-4.4-1.9-7.9-4.6-10.5-8.1
		c-2.6-3.5-4-7.5-4.2-12.1h10.8c0.2,2.8,1.2,5.3,2.9,7.3c1.7,2,4,3.6,6.7,4.7c2.8,1.1,5.8,1.7,9.2,1.7c3.8,0,7.1-0.7,10-2
		c2.9-1.3,5.2-3.1,6.8-5.5c1.7-2.3,2.5-5,2.5-8.1c0-3.2-0.8-6.1-2.4-8.5c-1.6-2.5-3.9-4.4-7-5.8c-3.1-1.4-6.8-2.1-11.3-2.1h-7v-9.4
		h7c3.5,0,6.5-0.6,9.2-1.9c2.7-1.3,4.7-3,6.2-5.3c1.5-2.3,2.3-5,2.3-8c0-3-0.7-5.5-2-7.7c-1.3-2.2-3.2-3.9-5.6-5.1
		c-2.4-1.2-5.2-1.8-8.4-1.8c-3,0-5.9,0.6-8.6,1.7c-2.7,1.1-4.8,2.7-6.5,4.8c-1.7,2.1-2.6,4.5-2.7,7.4h-10.3
		c0.2-4.6,1.6-8.6,4.1-12.1c2.6-3.5,6-6.2,10.2-8.1c4.2-1.9,8.9-2.9,13.9-2.9c5.4,0,10.1,1.1,13.9,3.3c3.9,2.2,6.9,5,8.9,8.6
		c2.1,3.6,3.1,7.4,3.1,11.6c0,4.9-1.3,9.1-3.9,12.6c-2.6,3.5-6.1,5.9-10.5,7.2v0.7c5.5,0.9,9.9,3.3,13,7.1c3.1,3.8,4.7,8.4,4.7,14
		c0,4.8-1.3,9-3.9,12.8c-2.6,3.8-6.1,6.7-10.5,8.9C1059.2,249.1,1054.1,250.2,1048.4,250.2z M1099.2,249.7c-2.1,0-3.9-0.8-5.4-2.3
		c-1.5-1.5-2.3-3.3-2.3-5.4c0-2.1,0.8-3.9,2.3-5.4c1.5-1.5,3.3-2.3,5.4-2.3c2.1,0,3.9,0.8,5.4,2.3c1.5,1.5,2.3,3.3,2.3,5.4
		c0,1.4-0.4,2.7-1.1,3.9c-0.7,1.2-1.6,2.1-2.8,2.8C1101.9,249.3,1100.6,249.7,1099.2,249.7z M1123.6,249v-7.7l28.9-31.7
		c3.4-3.7,6.2-6.9,8.4-9.7c2.2-2.8,3.8-5.4,4.9-7.8c1.1-2.5,1.6-5,1.6-7.7c0-3.1-0.7-5.7-2.2-8c-1.5-2.3-3.4-4-6-5.2
		c-2.5-1.2-5.4-1.8-8.6-1.8c-3.4,0-6.3,0.7-8.8,2.1c-2.5,1.4-4.4,3.3-5.8,5.8c-1.3,2.5-2,5.4-2,8.7H1124c0-5.1,1.2-9.6,3.6-13.5
		c2.4-3.9,5.6-6.9,9.7-9.1c4.1-2.2,8.7-3.3,13.8-3.3c5.1,0,9.7,1.1,13.7,3.3c4,2.2,7.1,5.1,9.3,8.8s3.4,7.8,3.4,12.3
		c0,3.2-0.6,6.4-1.8,9.5c-1.1,3.1-3.1,6.5-6,10.2c-2.8,3.7-6.7,8.3-11.8,13.7l-19.7,21.1v0.7h40.7v9.4H1123.6z M1224,250.2
		c-6.4,0-11.9-1.8-16.5-5.3c-4.5-3.5-8-8.7-10.4-15.4c-2.4-6.7-3.6-14.9-3.6-24.4c0-9.5,1.2-17.6,3.6-24.3
		c2.4-6.7,5.9-11.9,10.4-15.4c4.6-3.6,10-5.3,16.4-5.3s11.9,1.8,16.4,5.3c4.6,3.5,8,8.7,10.4,15.4c2.4,6.7,3.6,14.8,3.6,24.3
		c0,9.5-1.2,17.7-3.6,24.4c-2.4,6.7-5.9,11.8-10.4,15.4C1235.9,248.4,1230.4,250.2,1224,250.2z M1224,240.8c6.4,0,11.4-3.1,14.9-9.2
		c3.5-6.2,5.3-14.9,5.3-26.4c0-7.6-0.8-14-2.4-19.4c-1.6-5.3-3.9-9.4-6.9-12.2c-3-2.8-6.6-4.2-10.8-4.2c-6.3,0-11.3,3.1-14.8,9.4
		c-3.6,6.2-5.3,15-5.3,26.4c0,7.6,0.8,14,2.4,19.3s3.9,9.3,6.9,12.1C1216.1,239.4,1219.7,240.8,1224,240.8z M1269.5,249v-7.7
		l28.9-31.7c3.4-3.7,6.2-6.9,8.4-9.7c2.2-2.8,3.8-5.4,4.9-7.8c1.1-2.5,1.6-5,1.6-7.7c0-3.1-0.8-5.7-2.2-8c-1.4-2.3-3.4-4-6-5.2
		c-2.5-1.2-5.4-1.8-8.6-1.8c-3.4,0-6.3,0.7-8.8,2.1c-2.5,1.4-4.4,3.3-5.8,5.8c-1.3,2.5-2,5.4-2,8.7h-10.1c0-5.1,1.2-9.6,3.6-13.5
		c2.4-3.9,5.6-6.9,9.7-9.1c4.1-2.2,8.7-3.3,13.8-3.3c5.1,0,9.7,1.1,13.7,3.3c4,2.2,7.1,5.1,9.3,8.8c2.3,3.7,3.4,7.8,3.4,12.3
		c0,3.2-0.6,6.4-1.8,9.5c-1.1,3.1-3.1,6.5-6,10.2c-2.8,3.7-6.8,8.3-11.8,13.7l-19.7,21.1v0.7h40.7v9.4H1269.5z M1370.8,250.2
		c-5.7,0-10.7-1-15.1-2.9c-4.4-1.9-7.9-4.6-10.5-8.1c-2.6-3.5-4-7.5-4.2-12.1h10.8c0.2,2.8,1.2,5.3,2.9,7.3c1.7,2,3.9,3.6,6.7,4.7
		c2.8,1.1,5.8,1.7,9.2,1.7c3.8,0,7.1-0.7,10-2c2.9-1.3,5.2-3.1,6.8-5.5c1.7-2.3,2.5-5,2.5-8.1c0-3.2-0.8-6.1-2.4-8.5
		c-1.6-2.5-3.9-4.4-7-5.8c-3.1-1.4-6.8-2.1-11.3-2.1h-7v-9.4h7c3.5,0,6.5-0.6,9.2-1.9c2.7-1.3,4.7-3,6.2-5.3c1.5-2.3,2.3-5,2.3-8
		c0-3-0.7-5.5-2-7.7c-1.3-2.2-3.2-3.9-5.6-5.1c-2.4-1.2-5.2-1.8-8.4-1.8c-3,0-5.9,0.6-8.6,1.7c-2.6,1.1-4.8,2.7-6.5,4.8
		c-1.7,2.1-2.6,4.5-2.7,7.4h-10.3c0.2-4.6,1.6-8.6,4.2-12.1c2.6-3.5,6-6.2,10.2-8.1c4.2-1.9,8.8-2.9,13.9-2.9
		c5.4,0,10.1,1.1,13.9,3.3c3.9,2.2,6.9,5,8.9,8.6c2.1,3.6,3.1,7.4,3.1,11.6c0,4.9-1.3,9.1-3.9,12.6c-2.6,3.5-6.1,5.9-10.5,7.2v0.7
		c5.5,0.9,9.9,3.3,13,7.1c3.1,3.8,4.7,8.4,4.7,14c0,4.8-1.3,9-3.9,12.8c-2.6,3.8-6.1,6.7-10.5,8.9
		C1381.6,249.1,1376.5,250.2,1370.8,250.2z"/>
</g>
</svg>
