<?xml version="1.0" encoding="utf-8"?>
<!-- Generator: Adobe Illustrator 20.1.0, SVG Export Plug-In . SVG Version: 6.00 Build 0)  -->
<svg version="1.1" id="Capa_1" xmlns="http://www.w3.org/2000/svg" xmlns:xlink="http://www.w3.org/1999/xlink" x="0px" y="0px"
	 viewBox="0 0 306.9 25" style="enable-background:new 0 0 306.9 25;" xml:space="preserve">
<style type="text/css">
	.st0{fill-rule:evenodd;clip-rule:evenodd;}
</style>
<g>
	<g>
		<path d="M18.9,11.7c0-5.5-3.8-10-8.6-10c-4.7,0-8.6,4.5-8.6,10s3.8,10,8.6,10C15.1,21.7,18.9,17.3,18.9,11.7z M16.3,7
			c0.8,1.4,1.2,3,1.2,4.8c0,1.8-0.4,3.4-1.2,4.8V7z M16.3,17.1c0.9-1.5,1.5-3.3,1.5-5.3c0-2-0.6-3.9-1.5-5.3V5.7
			c1.2,1.6,1.9,3.7,1.9,6c0,2.3-0.7,4.4-1.9,6V17.1z M4.4,6.4c-0.9,1.5-1.5,3.3-1.5,5.3c0,2,0.6,3.9,1.5,5.3v0.7
			c-1.2-1.6-1.9-3.7-1.9-6c0-2.3,0.7-4.4,1.9-6V6.4z M4.4,7v9.6c-0.8-1.4-1.2-3-1.2-4.8C3.2,10,3.6,8.3,4.4,7z M7.7,20.5
			c-0.5-0.2-1.1-0.5-1.6-0.9v-0.5c0.5,0.4,1,0.7,1.6,0.9V20.5z M7.7,19.7c-0.6-0.3-1.1-0.6-1.6-1v-14c0.5-0.4,1-0.7,1.6-1V19.7z
			 M7.7,3.4C7.2,3.6,6.7,4,6.2,4.3V3.9c0.5-0.4,1-0.7,1.6-0.9V3.4z M11.1,21c-0.3,0-0.5,0-0.8,0c-0.3,0-0.5,0-0.8,0v-0.4
			c0.3,0,0.5,0,0.8,0c0.3,0,0.5,0,0.8,0V21z M11.1,20.3c-0.3,0-0.5,0.1-0.8,0.1c-0.3,0-0.5,0-0.8-0.1V3.2c0.3,0,0.5,0,0.8,0
			c0.3,0,0.5,0,0.8,0V20.3z M11.1,2.9c-0.3,0-0.5,0-0.8,0c-0.3,0-0.5,0-0.8,0V2.5c0.3,0,0.5,0,0.8,0c0.3,0,0.5,0,0.8,0V2.9z
			 M14.5,19.6c-0.5,0.4-1,0.7-1.6,0.9v-0.4c0.5-0.2,1.1-0.6,1.6-0.9V19.6z M14.5,18.7c-0.5,0.4-1,0.7-1.6,1v-16
			c0.6,0.3,1.1,0.6,1.6,1V18.7z M14.5,4.3c-0.5-0.4-1-0.7-1.6-0.9V3c0.5,0.2,1.1,0.5,1.6,0.9V4.3z"/>
		<path d="M18.5,19.7c0.3-0.5,0.5-0.8,0.5-1.4l0-3.2h0c-0.3,1-0.6,2-1.2,2.8c-0.2,0.2-0.2,0.3-0.3,0.4c-0.1,0.2-0.3,0.5-0.3,1
			c-0.2,0-0.4,0-0.6,0c0,0.2,0.1,0.3,0,0.7c-0.9,0-1.1,0.6-2.1,1.1c-0.5,0.2-0.6,0.3-1.2,0.6v0.1c1.9-0.1,2.7,0.2,3.7-0.5
			c0.1,0.2,0.2,0.4,0.3,0.6c0.1-0.1,0.5-0.3,0.7-0.4c0.3,0.3,0.7,0.4,1.1,0.4c0.1-0.4-0.1-0.9-0.4-1.1c0.1-0.2,0.3-0.5,0.4-0.7
			C18.9,19.9,18.7,19.8,18.5,19.7z M18.4,17.2c0.5-1.3,0.4-1.3,0.5-1.8c-0.1,1.8-0.7,3.2-1.2,4.6c0,0-0.1,0-0.2,0
			c-0.1-0.1-0.1-0.3-0.1-0.3C17.2,18.7,18,18.2,18.4,17.2z M16.7,19.5l0.6,0.5l0,0c0,0,0,0,0,0c0,0,0,0.1-0.1,0.1l0,0
			C16.9,20,16.7,20,16.7,20C16.8,19.7,16.7,19.5,16.7,19.5z M13.5,21.7l0.7-0.2c1.1-0.4,1.5-1.3,2.4-1.2c0.2,0,0.3,0.1,0.5,0.1
			c0,0.1,0,0.1,0,0.2h0C16.4,21,14.9,21.5,13.5,21.7z M17.3,21.6c0-0.1-0.1-0.3-0.2-0.4c0.2-0.1,0.2-0.2,0.3-0.4l0,0
			c0.1,0,0.1,0,0.2,0.1h0L17.3,21.6z M17.4,20.6c-0.1-0.1-0.1-0.3,0-0.4c0.1-0.1,0.3-0.1,0.4,0c0.1,0.1,0.1,0.3,0,0.4
			C17.7,20.7,17.5,20.7,17.4,20.6z M18.9,21.6c-0.3,0-0.7-0.2-0.9-0.4c-0.1-0.1-0.1-0.2-0.2-0.4c0.1,0,0.2-0.1,0.2-0.1L18.9,21.6z
			 M18.1,20.3L18.1,20.3c0,0,0-0.1,0-0.1l0,0c0.2-0.1,0.3-0.3,0.3-0.3c0,0,0,0,0,0v0c0,0,0.3,0.2,0.4,0.2
			C18.7,20.1,18.1,20.3,18.1,20.3z"/>
		<path d="M16.6,3.5c0.1,0.4,0,0.4,0,0.7c0.2,0,0.4-0.1,0.6,0c0,0.6,0.2,0.9,0.3,1c0.1,0.1,0.1,0.2,0.3,0.4c0.5,0.8,0.9,1.8,1.2,2.8
			h0l0-3.2c-0.1-0.6-0.2-0.9-0.5-1.4c0.2-0.1,0.4-0.2,0.6-0.3c-0.1-0.2-0.3-0.4-0.4-0.7C19,2.6,19.1,2,19,1.7
			c-0.5,0-0.9,0.1-1.1,0.4c-0.2-0.1-0.6-0.3-0.7-0.4c-0.1,0.2-0.1,0.4-0.3,0.6c-1-0.7-1.9-0.4-3.7-0.5v0.1c0.6,0.2,0.8,0.3,1.2,0.6
			C15.5,2.9,15.6,3.5,16.6,3.5z M17.3,3.5L16.7,4c0,0,0.1-0.2,0-0.5c0,0,0.2,0,0.5-0.1l0,0C17.2,3.4,17.2,3.4,17.3,3.5
			C17.3,3.5,17.3,3.5,17.3,3.5L17.3,3.5z M18.9,8.1c-0.1-0.5-0.1-0.6-0.5-1.8c-0.4-1-1.2-1.5-0.9-2.4c0,0,0-0.2,0.1-0.3
			c0.1,0,0.2,0,0.2,0C18.3,4.9,18.8,6.4,18.9,8.1z M18.8,3.4c-0.2,0-0.4,0.2-0.4,0.2v0l0,0c0,0-0.1-0.2-0.3-0.3l0,0c0,0,0-0.1,0-0.1
			l0,0C18.1,3.2,18.7,3.4,18.8,3.4z M18,2.3c0.2-0.2,0.6-0.4,0.9-0.4L18,2.8c0-0.1-0.1-0.1-0.2-0.1C17.8,2.5,17.8,2.4,18,2.3z
			 M17.8,2.9c0.1,0.1,0.1,0.3,0,0.4c-0.1,0.1-0.3,0.1-0.4,0c-0.1-0.1-0.1-0.3,0-0.4C17.5,2.8,17.7,2.8,17.8,2.9z M17.3,1.9l0.3,0.8
			l0,0c-0.1,0-0.1,0-0.2,0.1l0,0c-0.1-0.1-0.1-0.2-0.3-0.4C17.2,2.2,17.2,2,17.3,1.9z M13.5,1.9c1.3,0.2,2.9,0.7,3.6,1.1h0
			c0,0.1,0,0.1,0,0.2c-0.1,0.1-0.3,0.1-0.5,0.1c-0.9,0-1.3-0.8-2.4-1.2L13.5,1.9z"/>
		<path d="M4.1,20c-0.1-0.4,0-0.4,0-0.7c-0.2,0-0.5,0.1-0.6,0c0-0.6-0.2-0.9-0.3-1c-0.1-0.1-0.1-0.2-0.3-0.4
			c-0.5-0.8-0.9-1.8-1.2-2.8h0l0,3.2c0.1,0.6,0.2,0.9,0.5,1.4C2,19.8,1.8,19.9,1.6,20c0.1,0.2,0.3,0.4,0.4,0.7
			c-0.3,0.3-0.4,0.8-0.4,1.1c0.5,0,0.9-0.1,1.1-0.4c0.2,0.1,0.6,0.3,0.7,0.4c0.1-0.2,0.1-0.4,0.3-0.6c1,0.7,1.9,0.4,3.7,0.5v-0.1
			c-0.6-0.2-0.8-0.3-1.2-0.6C5.2,20.6,5.1,20,4.1,20z M3.4,20l0.6-0.5c0,0-0.1,0.2,0,0.5c0,0-0.2,0-0.5,0.1l0,0
			C3.5,20.1,3.5,20.1,3.4,20C3.4,20,3.4,20,3.4,20L3.4,20z M1.7,15.4c0.1,0.5,0.1,0.6,0.5,1.8c0.4,1,1.2,1.5,0.9,2.4
			c0,0,0,0.2-0.1,0.3c-0.1,0-0.2,0-0.2,0C2.4,18.6,1.9,17.1,1.7,15.4z M1.8,20.1c0.2,0,0.4-0.2,0.4-0.2c0,0,0,0,0,0l0,0
			c0,0,0.1,0.2,0.3,0.3l0,0c0,0,0,0.1,0,0.1l0,0C2.6,20.3,2,20.1,1.8,20.1z M2.7,21.2c-0.2,0.2-0.6,0.4-0.9,0.4l0.9-0.9
			c0,0.1,0.1,0.1,0.2,0.1C2.9,21,2.9,21.1,2.7,21.2z M2.9,20.6c-0.1-0.1-0.1-0.3,0-0.4c0.1-0.1,0.3-0.1,0.4,0c0.1,0.1,0.1,0.3,0,0.4
			C3.2,20.7,3,20.7,2.9,20.6z M3.4,21.6l-0.3-0.8h0c0.1,0,0.1,0,0.2-0.1h0c0.1,0.1,0.1,0.2,0.3,0.4C3.5,21.3,3.4,21.5,3.4,21.6z
			 M7.2,21.6c-1.3-0.2-2.9-0.7-3.6-1.1h0c0-0.1,0-0.1,0-0.2c0.2-0.1,0.3-0.1,0.5-0.1c0.9,0,1.3,0.8,2.4,1.2L7.2,21.6z"/>
		<path d="M2.2,3.8C1.8,4.3,1.7,4.6,1.6,5.2l0,3.2h0c0.3-1,0.6-2,1.2-2.8c0.1-0.2,0.2-0.3,0.3-0.4c0.1-0.2,0.3-0.5,0.3-1
			c0.2,0,0.4,0,0.6,0c0-0.2-0.1-0.3,0-0.7c0.9,0,1.1-0.6,2.1-1.1C6.7,2.1,6.9,2,7.5,1.8V1.8C5.6,1.8,4.8,1.5,3.7,2.2
			C3.6,2.1,3.6,1.8,3.5,1.6C3.3,1.8,3,2,2.8,2C2.5,1.8,2.1,1.6,1.6,1.7C1.6,2,1.7,2.5,2,2.8C1.9,3,1.7,3.3,1.6,3.5
			C1.8,3.6,2,3.7,2.2,3.8z M2.3,6.3C1.8,7.6,1.9,7.6,1.7,8.1c0.1-1.8,0.7-3.2,1.2-4.6c0,0,0.1,0,0.2,0c0.1,0.1,0.1,0.3,0.1,0.3
			C3.5,4.7,2.7,5.3,2.3,6.3z M3.9,4L3.4,3.5l0,0c0,0,0,0,0,0c0,0,0-0.1,0.1-0.1l0,0C3.8,3.5,4,3.5,4,3.5C3.9,3.8,3.9,4,3.9,4z
			 M7.2,1.8L6.5,2.1C5.3,2.5,4.9,3.3,4.1,3.3c-0.2,0-0.3-0.1-0.5-0.1c0-0.1,0-0.1,0-0.2h0C4.3,2.5,5.8,2,7.2,1.8z M3.4,1.9
			c0,0.1,0.1,0.3,0.2,0.4C3.4,2.5,3.4,2.5,3.3,2.7l0,0c-0.1,0-0.1-0.1-0.2-0.1h0L3.4,1.9z M3.3,2.9c0.1,0.1,0.1,0.3,0,0.4
			C3.2,3.4,3,3.4,2.9,3.3C2.8,3.2,2.8,3,2.9,2.9C3,2.8,3.2,2.8,3.3,2.9z M1.8,1.9c0.3,0,0.7,0.2,0.9,0.4c0.1,0.1,0.1,0.2,0.2,0.4
			c-0.1,0-0.2,0.1-0.2,0.1L1.8,1.9z M2.6,3.2L2.6,3.2c0,0,0,0.1,0,0.1l0,0C2.4,3.4,2.3,3.6,2.3,3.6l0,0c0,0,0,0,0,0
			c0,0-0.3-0.2-0.4-0.2C2,3.4,2.6,3.2,2.6,3.2z"/>
	</g>
	<g>
		<path d="M26.8,15.6h1.2c0.8,0,1.4,0.2,1.7,0.7c0.3,0.4,0.5,1,0.5,1.8c0,0.6-0.1,1-0.3,1.3c-0.2,0.3-0.4,0.6-0.7,0.7
			c-0.3,0.1-0.6,0.2-0.9,0.2h-1.5V15.6z M25.1,21.8h3.2c0.8,0,1.4-0.2,1.9-0.5c0.5-0.3,0.9-0.8,1.1-1.3c0.2-0.6,0.4-1.2,0.4-1.9
			c0-0.8-0.2-1.5-0.5-2.1c-0.3-0.6-0.7-1-1.2-1.2c-0.5-0.3-1.1-0.4-1.7-0.4h-3.2V21.8z"/>
	</g>
	<g>
		<path d="M34,18.5c0-0.1,0-0.3,0.1-0.5c0.1-0.2,0.2-0.3,0.4-0.5c0.2-0.1,0.4-0.2,0.7-0.2c0.4,0,0.6,0.1,0.8,0.3
			c0.2,0.2,0.3,0.5,0.4,0.9H34z M37.9,19.4c0-0.6,0-1.1-0.2-1.6c-0.2-0.5-0.5-0.9-0.9-1.2c-0.4-0.3-0.9-0.5-1.5-0.5
			c-0.6,0-1,0.1-1.5,0.4c-0.4,0.2-0.7,0.6-1,1c-0.2,0.4-0.3,0.9-0.4,1.5c0,0.9,0.3,1.5,0.7,2.1c0.5,0.5,1.2,0.8,2,0.8
			c0.6,0,1.1-0.1,1.6-0.4c0.4-0.3,0.8-0.8,1-1.4h-1.3c-0.1,0.2-0.2,0.3-0.4,0.5c-0.2,0.1-0.5,0.2-0.8,0.2c-0.4,0-0.7-0.1-1-0.3
			c-0.2-0.2-0.3-0.6-0.4-1H37.9z"/>
	</g>
	<g>
		<path d="M41.5,20.8c-0.5,0-0.8-0.2-1-0.5c-0.2-0.3-0.3-0.7-0.3-1.2c0-0.3,0-0.6,0.1-0.8c0.1-0.3,0.2-0.5,0.4-0.7
			c0.2-0.2,0.4-0.3,0.8-0.3c0.3,0,0.6,0.1,0.8,0.3c0.2,0.2,0.3,0.4,0.4,0.7c0.1,0.3,0.1,0.5,0.1,0.8c0,0.5-0.1,0.9-0.3,1.2
			C42.3,20.6,42,20.8,41.5,20.8 M38.8,23.7h1.5v-2.6h0c0.2,0.3,0.4,0.5,0.7,0.6c0.3,0.1,0.6,0.2,0.9,0.2c0.5,0,1-0.1,1.3-0.4
			c0.4-0.3,0.6-0.6,0.8-1c0.2-0.4,0.3-0.9,0.3-1.4c0-0.5-0.1-1-0.3-1.4c-0.2-0.4-0.4-0.8-0.8-1.1c-0.4-0.3-0.8-0.4-1.4-0.4
			c-0.3,0-0.6,0.1-0.9,0.2c-0.3,0.1-0.5,0.3-0.7,0.6h0v-0.7h-1.4V23.7z"/>
	</g>
	<g>
		<path d="M46.6,18c0-0.3,0.1-0.5,0.3-0.6c0.2-0.1,0.4-0.2,0.7-0.2c0.3,0,0.5,0,0.7,0.1c0.2,0.1,0.3,0.3,0.3,0.6
			c0,0.3-0.2,0.5-0.5,0.5c-0.3,0.1-0.8,0.1-1.2,0.2c-0.3,0-0.6,0.1-0.9,0.2c-0.3,0.1-0.5,0.3-0.7,0.5c-0.2,0.2-0.3,0.5-0.3,0.9
			c0,0.6,0.2,1,0.5,1.2c0.3,0.3,0.8,0.4,1.3,0.4c0.3,0,0.7,0,1-0.1c0.3-0.1,0.6-0.3,0.8-0.5c0,0.1,0,0.2,0,0.3c0,0.1,0,0.2,0.1,0.3
			h1.5c-0.1-0.1-0.1-0.3-0.1-0.5c0-0.2,0-0.5,0-0.7v-2.8c0-0.4-0.1-0.8-0.4-1c-0.2-0.2-0.5-0.4-0.9-0.5c-0.4-0.1-0.7-0.1-1.1-0.1
			c-0.4,0-0.8,0-1.2,0.2c-0.4,0.1-0.7,0.3-0.9,0.6c-0.2,0.3-0.4,0.6-0.4,1.1H46.6z M48.6,19.7c0,0.1,0,0.3-0.1,0.5
			c0,0.2-0.1,0.4-0.3,0.5c-0.2,0.2-0.5,0.2-0.8,0.3c-0.2,0-0.5,0-0.6-0.1c-0.2-0.1-0.3-0.3-0.3-0.6c0-0.3,0.1-0.5,0.3-0.6
			c0.2-0.1,0.4-0.2,0.6-0.2c0.2,0,0.5-0.1,0.7-0.1c0.2,0,0.4-0.1,0.5-0.2V19.7z"/>
	</g>
	<g>
		<path d="M51.2,21.8h1.5v-2.4c0-0.5,0.1-0.9,0.3-1.2c0.2-0.3,0.6-0.5,1.1-0.5c0.1,0,0.2,0,0.3,0c0.1,0,0.2,0,0.3,0v-1.4
			c0,0-0.1,0-0.2,0c-0.1,0-0.1,0-0.2,0c-0.4,0-0.7,0.1-1,0.3c-0.3,0.2-0.6,0.5-0.7,0.8h0v-1h-1.4V21.8z"/>
	</g>
	<g>
		<path d="M57.2,14.7h-1.5v1.6h-0.9v1h0.9v3.2c0,0.5,0.2,0.9,0.5,1.1c0.3,0.2,0.7,0.3,1.2,0.2c0.1,0,0.3,0,0.5,0c0.2,0,0.3,0,0.4,0
			v-1.2c-0.1,0-0.2,0-0.2,0c-0.1,0-0.2,0-0.2,0c-0.2,0-0.4,0-0.5-0.1c-0.1-0.1-0.1-0.3-0.1-0.5v-2.7h1.1v-1h-1.1V14.7z"/>
	</g>
	<g>
		<path d="M60.4,18c0-0.3,0.1-0.5,0.3-0.6c0.2-0.1,0.4-0.2,0.7-0.2c0.3,0,0.5,0,0.7,0.1c0.2,0.1,0.3,0.3,0.3,0.6
			c0,0.3-0.2,0.5-0.5,0.5c-0.3,0.1-0.8,0.1-1.2,0.2c-0.3,0-0.6,0.1-0.9,0.2c-0.3,0.1-0.5,0.3-0.7,0.5c-0.2,0.2-0.3,0.5-0.3,0.9
			c0,0.6,0.2,1,0.5,1.2s0.8,0.4,1.3,0.4c0.3,0,0.7,0,1-0.1c0.3-0.1,0.6-0.3,0.8-0.5c0,0.1,0,0.2,0,0.3c0,0.1,0,0.2,0.1,0.3h1.5
			c-0.1-0.1-0.1-0.3-0.1-0.5c0-0.2,0-0.5,0-0.7v-2.8c0-0.4-0.1-0.8-0.4-1c-0.2-0.2-0.5-0.4-0.9-0.5c-0.4-0.1-0.7-0.1-1.1-0.1
			c-0.4,0-0.8,0-1.2,0.2c-0.4,0.1-0.7,0.3-0.9,0.6c-0.3,0.3-0.4,0.6-0.4,1.1H60.4z M62.4,19.7c0,0.1,0,0.3-0.1,0.5
			c0,0.2-0.2,0.4-0.3,0.5c-0.2,0.2-0.5,0.2-0.8,0.3c-0.2,0-0.5,0-0.6-0.1c-0.2-0.1-0.3-0.3-0.3-0.6c0-0.3,0.1-0.5,0.3-0.6
			c0.2-0.1,0.4-0.2,0.6-0.2c0.2,0,0.5-0.1,0.7-0.1c0.2,0,0.4-0.1,0.5-0.2V19.7z"/>
	</g>
	<g>
		<path d="M65.1,21.8h1.5v-3.2c0-0.4,0.1-0.6,0.2-0.8c0.1-0.2,0.3-0.3,0.4-0.4c0.2-0.1,0.3-0.1,0.4-0.1c0.3,0,0.5,0.1,0.7,0.2
			c0.1,0.1,0.2,0.3,0.2,0.5c0,0.2,0,0.4,0,0.6v3H70v-3c0-0.4,0.1-0.7,0.2-0.9c0.1-0.3,0.4-0.4,0.8-0.4c0.4,0,0.7,0.1,0.8,0.4
			c0.1,0.2,0.2,0.6,0.1,0.9v3.1h1.5v-3.6c0-0.7-0.2-1.2-0.6-1.5c-0.4-0.3-0.8-0.5-1.4-0.4c-0.4,0-0.7,0.1-1,0.3
			c-0.3,0.2-0.5,0.4-0.7,0.6c-0.2-0.3-0.4-0.6-0.6-0.7c-0.3-0.1-0.6-0.2-0.9-0.2c-0.4,0-0.7,0.1-0.9,0.2c-0.3,0.2-0.5,0.4-0.7,0.7h0
			v-0.7h-1.4V21.8z"/>
	</g>
	<g>
		<path d="M75.8,18.5c0-0.1,0-0.3,0.1-0.5c0.1-0.2,0.2-0.3,0.4-0.5c0.2-0.1,0.4-0.2,0.7-0.2c0.4,0,0.6,0.1,0.8,0.3
			c0.2,0.2,0.3,0.5,0.4,0.9H75.8z M79.7,19.4c0-0.6,0-1.1-0.2-1.6c-0.2-0.5-0.5-0.9-0.9-1.2c-0.4-0.3-0.9-0.5-1.5-0.5
			c-0.6,0-1,0.1-1.5,0.4c-0.4,0.2-0.7,0.6-1,1c-0.2,0.4-0.3,0.9-0.4,1.5c0,0.9,0.3,1.5,0.7,2.1c0.5,0.5,1.2,0.8,2,0.8
			c0.6,0,1.1-0.1,1.6-0.4c0.4-0.3,0.8-0.8,1-1.4h-1.3c-0.1,0.2-0.2,0.3-0.4,0.5c-0.2,0.1-0.5,0.2-0.8,0.2c-0.4,0-0.7-0.1-1-0.3
			c-0.2-0.2-0.4-0.6-0.4-1H79.7z"/>
	</g>
	<g>
		<path d="M80.6,21.8h1.5v-2.8c0-0.5,0.1-0.9,0.3-1.2c0.2-0.2,0.5-0.4,0.9-0.4c0.3,0,0.6,0.1,0.7,0.3c0.1,0.2,0.2,0.6,0.2,1v3.1h1.5
			v-3.3c0-0.7-0.1-1.2-0.4-1.6c-0.3-0.4-0.8-0.6-1.6-0.6c-0.3,0-0.6,0.1-0.9,0.2c-0.3,0.2-0.5,0.4-0.7,0.7h0v-0.8h-1.4V21.8z"/>
	</g>
	<g>
		<path d="M88.7,14.7h-1.5v1.6h-0.9v1h0.9v3.2c0,0.5,0.2,0.9,0.5,1.1c0.3,0.2,0.7,0.3,1.2,0.2c0.2,0,0.3,0,0.5,0c0.2,0,0.3,0,0.4,0
			v-1.2c-0.1,0-0.2,0-0.2,0c-0.1,0-0.2,0-0.2,0c-0.2,0-0.4,0-0.5-0.1c-0.1-0.1-0.1-0.3-0.1-0.5v-2.7h1.1v-1h-1.1V14.7z"/>
	</g>
	<g>
		<path d="M97.3,19c0,0.5-0.1,0.9-0.3,1.2c-0.2,0.3-0.5,0.5-1,0.5c-0.3,0-0.6-0.1-0.8-0.3c-0.2-0.2-0.3-0.4-0.4-0.7
			c-0.1-0.3-0.1-0.5-0.1-0.8c0-0.5,0.1-0.9,0.3-1.2c0.2-0.3,0.5-0.5,1-0.5c0.5,0,0.8,0.2,1,0.5C97.2,18.2,97.3,18.6,97.3,19
			 M97.3,21.8h1.4v-7.5h-1.5V17h0c-0.2-0.3-0.4-0.5-0.7-0.6c-0.3-0.1-0.6-0.2-0.9-0.2c-0.5,0-1,0.1-1.3,0.4c-0.4,0.3-0.6,0.6-0.8,1
			c-0.2,0.4-0.3,0.9-0.3,1.4c0,0.5,0.1,1,0.3,1.4c0.2,0.4,0.4,0.8,0.8,1.1c0.4,0.3,0.8,0.4,1.4,0.4c0.4,0,0.7-0.1,1-0.2
			c0.3-0.1,0.5-0.3,0.7-0.6h0V21.8z"/>
	</g>
	<g>
		<path d="M101.1,18.5c0-0.1,0-0.3,0.1-0.5c0.1-0.2,0.2-0.3,0.4-0.5c0.2-0.1,0.4-0.2,0.7-0.2c0.4,0,0.6,0.1,0.8,0.3
			c0.2,0.2,0.3,0.5,0.4,0.9H101.1z M105,19.4c0-0.6,0-1.1-0.2-1.6c-0.2-0.5-0.5-0.9-0.9-1.2c-0.4-0.3-0.9-0.5-1.5-0.5
			c-0.6,0-1,0.1-1.5,0.4c-0.4,0.2-0.7,0.6-1,1c-0.2,0.4-0.3,0.9-0.4,1.5c0,0.9,0.3,1.5,0.7,2.1c0.5,0.5,1.2,0.8,2,0.8
			c0.6,0,1.1-0.1,1.6-0.4c0.4-0.3,0.8-0.8,1-1.4h-1.3c-0.1,0.2-0.2,0.3-0.4,0.5c-0.2,0.1-0.5,0.2-0.8,0.2c-0.4,0-0.7-0.1-1-0.3
			c-0.2-0.2-0.4-0.6-0.4-1H105z"/>
	</g>
	<g>
		<path d="M115.5,16.8c-0.1-0.6-0.3-1.1-0.6-1.5c-0.3-0.4-0.7-0.7-1.1-0.9c-0.5-0.2-1-0.3-1.5-0.3c-0.8,0-1.4,0.2-2,0.5
			c-0.5,0.3-1,0.8-1.3,1.4c-0.3,0.6-0.4,1.3-0.4,2c0,0.7,0.2,1.4,0.4,2c0.3,0.6,0.7,1.1,1.3,1.4c0.5,0.3,1.2,0.5,2,0.5
			c0.9,0,1.7-0.3,2.3-0.8c0.6-0.5,0.9-1.3,1-2.2H114c-0.1,0.5-0.2,0.9-0.5,1.2c-0.3,0.3-0.7,0.5-1.2,0.5c-0.5,0-0.9-0.1-1.2-0.4
			c-0.3-0.2-0.5-0.6-0.7-0.9c-0.1-0.4-0.2-0.8-0.2-1.2c0-0.4,0.1-0.9,0.2-1.3c0.1-0.4,0.4-0.7,0.7-0.9c0.3-0.2,0.7-0.4,1.2-0.4
			c0.4,0,0.8,0.1,1.1,0.4c0.3,0.2,0.5,0.6,0.6,0.9H115.5z"/>
	</g>
	<g>
		<path d="M121.7,16.3h-1.5v2.8c0,0.5-0.1,0.9-0.3,1.2c-0.2,0.2-0.5,0.4-0.9,0.4c-0.3,0-0.6-0.1-0.7-0.3c-0.1-0.2-0.2-0.6-0.2-1
			v-3.1h-1.5v3.3c0,0.7,0.1,1.2,0.4,1.6c0.3,0.4,0.8,0.6,1.6,0.6c0.3,0,0.6-0.1,0.9-0.2c0.3-0.2,0.5-0.4,0.7-0.7h0v0.8h1.4V16.3z"/>
	</g>
	<g>
		<rect x="122.8" y="14.3" width="1.5" height="7.5"/>
	</g>
	<g>
		<path d="M127.4,14.7h-1.5v1.6H125v1h0.9v3.2c0,0.5,0.2,0.9,0.5,1.1c0.3,0.2,0.7,0.3,1.2,0.2c0.1,0,0.3,0,0.5,0c0.2,0,0.3,0,0.4,0
			v-1.2c-0.1,0-0.2,0-0.2,0c-0.1,0-0.2,0-0.2,0c-0.2,0-0.4,0-0.5-0.1c-0.1-0.1-0.1-0.3-0.1-0.5v-2.7h1.1v-1h-1.1V14.7z"/>
	</g>
	<g>
		<path d="M134.3,16.3h-1.5v2.8c0,0.5-0.1,0.9-0.3,1.2c-0.2,0.2-0.5,0.4-0.9,0.4c-0.3,0-0.6-0.1-0.7-0.3c-0.2-0.2-0.2-0.6-0.2-1
			v-3.1h-1.5v3.3c0,0.7,0.1,1.2,0.4,1.6c0.3,0.4,0.8,0.6,1.6,0.6c0.3,0,0.6-0.1,0.9-0.2c0.3-0.2,0.5-0.4,0.7-0.7h0v0.8h1.4V16.3z"/>
	</g>
	<g>
		<path d="M135.4,21.8h1.5v-2.4c0-0.5,0.1-0.9,0.3-1.2c0.2-0.3,0.6-0.5,1.1-0.5c0.1,0,0.2,0,0.3,0c0.1,0,0.2,0,0.3,0v-1.4
			c0,0-0.1,0-0.2,0c-0.1,0-0.1,0-0.2,0c-0.4,0-0.7,0.1-1,0.3c-0.3,0.2-0.6,0.5-0.7,0.8h0v-1h-1.4V21.8z"/>
	</g>
	<g>
		<path d="M140.9,18c0-0.3,0.1-0.5,0.3-0.6c0.2-0.1,0.4-0.2,0.7-0.2c0.3,0,0.5,0,0.7,0.1c0.2,0.1,0.3,0.3,0.3,0.6
			c0,0.3-0.2,0.5-0.5,0.5c-0.3,0.1-0.8,0.1-1.2,0.2c-0.3,0-0.6,0.1-0.9,0.2c-0.3,0.1-0.5,0.3-0.7,0.5c-0.2,0.2-0.3,0.5-0.3,0.9
			c0,0.6,0.2,1,0.5,1.2c0.3,0.3,0.8,0.4,1.3,0.4c0.3,0,0.7,0,1-0.1c0.3-0.1,0.6-0.3,0.8-0.5c0,0.1,0,0.2,0,0.3c0,0.1,0,0.2,0.1,0.3
			h1.5c-0.1-0.1-0.1-0.3-0.1-0.5c0-0.2,0-0.5,0-0.7v-2.8c0-0.4-0.1-0.8-0.4-1c-0.2-0.2-0.5-0.4-0.9-0.5c-0.4-0.1-0.7-0.1-1.1-0.1
			c-0.4,0-0.8,0-1.2,0.2c-0.4,0.1-0.7,0.3-0.9,0.6c-0.2,0.3-0.4,0.6-0.4,1.1H140.9z M142.9,19.7c0,0.1,0,0.3-0.1,0.5
			c0,0.2-0.2,0.4-0.3,0.5c-0.2,0.2-0.4,0.2-0.8,0.3c-0.2,0-0.5,0-0.6-0.1c-0.2-0.1-0.3-0.3-0.3-0.6c0-0.3,0.1-0.5,0.3-0.6
			c0.2-0.1,0.4-0.2,0.6-0.2c0.2,0,0.5-0.1,0.7-0.1c0.2,0,0.4-0.1,0.5-0.2V19.7z"/>
	</g>
	<g>
		<path d="M31.6,7.4h-3.2v0.6h2.6c0,0.8-0.2,1.5-0.7,2c-0.5,0.5-1.1,0.8-1.9,0.8c-0.7,0-1.2-0.2-1.6-0.5C26.3,10,26,9.6,25.8,9.1
			c-0.2-0.5-0.3-1-0.3-1.6c0-0.6,0.1-1.1,0.3-1.6C26,5.4,26.3,5,26.7,4.7c0.4-0.3,1-0.5,1.6-0.5c0.5,0,0.9,0.1,1.2,0.3
			c0.3,0.2,0.6,0.4,0.8,0.7c0.2,0.3,0.3,0.6,0.4,0.9h0.7c-0.2-0.8-0.5-1.4-1.1-1.9c-0.6-0.4-1.3-0.6-2.1-0.6c-0.8,0-1.4,0.2-2,0.6
			c-0.5,0.4-0.9,0.8-1.2,1.4c-0.3,0.6-0.4,1.2-0.4,1.9s0.1,1.3,0.4,1.9c0.3,0.6,0.7,1.1,1.2,1.4c0.5,0.4,1.2,0.5,2,0.6
			c0.5,0,1.1-0.1,1.5-0.4c0.5-0.2,0.8-0.6,1.1-1.2h0l0.1,1.4h0.5V7.4z"/>
	</g>
	<g>
		<path d="M33.2,8.2c0-0.3,0.1-0.6,0.3-0.9c0.1-0.3,0.3-0.5,0.6-0.7c0.3-0.2,0.6-0.3,0.9-0.3c0.4,0,0.7,0.1,0.9,0.3
			c0.2,0.2,0.4,0.4,0.6,0.7c0.1,0.3,0.2,0.6,0.2,0.9H33.2z M37.4,8.7c0-0.5,0-1-0.2-1.5c-0.2-0.5-0.4-0.8-0.8-1.1
			C36,5.8,35.6,5.7,35,5.7c-0.6,0-1,0.1-1.4,0.4c-0.4,0.3-0.6,0.6-0.8,1.1c-0.2,0.4-0.3,0.9-0.3,1.4c0,0.5,0.1,1,0.3,1.4
			c0.2,0.4,0.4,0.8,0.8,1c0.4,0.3,0.8,0.4,1.4,0.4c0.7,0,1.2-0.2,1.6-0.5c0.4-0.3,0.6-0.8,0.8-1.4h-0.7c-0.1,0.4-0.3,0.7-0.6,1
			c-0.3,0.2-0.7,0.4-1.1,0.4c-0.4,0-0.8-0.1-1-0.3s-0.5-0.5-0.6-0.8c-0.1-0.3-0.2-0.7-0.2-1H37.4z"/>
	</g>
	<g>
		<path d="M38.3,11.3h0.7V8.1c0-0.5,0.2-1,0.5-1.3c0.3-0.3,0.7-0.5,1.2-0.5c0.5,0,0.9,0.2,1.1,0.5C41.9,7,42,7.4,42,7.9v3.4h0.7V7.8
			c0-0.7-0.1-1.2-0.4-1.5c-0.3-0.4-0.8-0.6-1.6-0.6c-0.4,0-0.7,0.1-1.1,0.3c-0.3,0.2-0.5,0.5-0.7,0.8h0V5.8h-0.7V11.3z"/>
	</g>
	<g>
		<path d="M44.3,8.2c0-0.3,0.1-0.6,0.3-0.9c0.1-0.3,0.3-0.5,0.6-0.7c0.3-0.2,0.6-0.3,0.9-0.3c0.4,0,0.7,0.1,0.9,0.3
			c0.3,0.2,0.4,0.4,0.6,0.7c0.1,0.3,0.2,0.6,0.2,0.9H44.3z M48.5,8.7c0-0.5,0-1-0.2-1.5c-0.2-0.5-0.4-0.8-0.8-1.1
			c-0.4-0.3-0.8-0.4-1.4-0.5c-0.6,0-1,0.1-1.4,0.4c-0.4,0.3-0.6,0.6-0.8,1.1c-0.2,0.4-0.3,0.9-0.3,1.4c0,0.5,0.1,1,0.3,1.4
			c0.2,0.4,0.4,0.8,0.8,1c0.4,0.3,0.8,0.4,1.4,0.4c0.7,0,1.2-0.2,1.6-0.5c0.4-0.3,0.6-0.8,0.8-1.4h-0.7c-0.1,0.4-0.3,0.7-0.6,1
			c-0.3,0.2-0.7,0.4-1.1,0.4c-0.4,0-0.8-0.1-1-0.3c-0.3-0.2-0.5-0.5-0.6-0.8c-0.1-0.3-0.2-0.7-0.2-1H48.5z"/>
	</g>
	<g>
		<path d="M49.4,11.3H50V8.4c0-0.6,0.2-1.1,0.6-1.4c0.4-0.4,0.8-0.5,1.5-0.5V5.8c-0.5,0-0.9,0.1-1.3,0.3c-0.4,0.2-0.6,0.6-0.8,1h0
			V5.8h-0.6V11.3z"/>
	</g>
	<g>
		<path d="M53.3,7.5c0-0.4,0.2-0.8,0.4-1c0.3-0.2,0.6-0.3,1-0.3c0.4,0,0.7,0.1,1,0.2c0.3,0.2,0.4,0.5,0.4,0.9c0,0.3-0.1,0.5-0.2,0.6
			c-0.1,0.1-0.4,0.1-0.6,0.2c-0.5,0-0.9,0.1-1.4,0.2c-0.4,0.1-0.8,0.2-1.1,0.5c-0.3,0.2-0.4,0.6-0.4,1.1c0,0.5,0.2,0.9,0.5,1.2
			c0.3,0.3,0.8,0.4,1.3,0.4c0.5,0,0.9-0.1,1.2-0.3c0.3-0.2,0.5-0.5,0.8-0.8h0c0,0.3,0,0.5,0.1,0.7c0.1,0.2,0.3,0.3,0.6,0.3
			c0.1,0,0.2,0,0.2,0c0.1,0,0.1,0,0.2,0v-0.6c0,0-0.1,0-0.1,0c0,0-0.1,0-0.1,0c-0.1,0-0.2,0-0.3-0.1c-0.1-0.1-0.1-0.2-0.1-0.3V7.4
			c0-0.5-0.1-0.8-0.3-1.1c-0.2-0.3-0.4-0.4-0.8-0.5c-0.3-0.1-0.6-0.1-0.9-0.1c-0.6,0-1.1,0.1-1.5,0.4c-0.4,0.3-0.6,0.8-0.7,1.4H53.3
			z M56.1,9.2c0,0.5-0.2,1-0.6,1.2c-0.4,0.3-0.8,0.5-1.3,0.5c-0.3,0-0.6-0.1-0.8-0.3c-0.2-0.2-0.4-0.5-0.4-0.8
			c0-0.3,0.1-0.6,0.4-0.8c0.3-0.2,0.6-0.3,1-0.3c0.4-0.1,0.8-0.1,1.2-0.2c0.1,0,0.2,0,0.3-0.1c0.1,0,0.2-0.1,0.2-0.2h0V9.2z"/>
	</g>
	<g>
		<rect x="58.1" y="3.8" width="0.7" height="7.5"/>
	</g>
	<g>
		<path d="M60.1,11.3h0.7V5.8h-0.7V11.3z M60.1,4.8h0.7V3.8h-0.7V4.8z"/>
	</g>
	<g>
		<path d="M63,4.2h-0.7v1.6h-0.9v0.6h0.9v3.7c0,0.5,0.1,0.8,0.3,1c0.2,0.2,0.5,0.3,0.9,0.3c0.1,0,0.2,0,0.3,0c0.1,0,0.2,0,0.3,0
			v-0.6c-0.2,0-0.4,0-0.6,0c-0.2,0-0.4-0.1-0.4-0.2c-0.1-0.1-0.1-0.3-0.1-0.5V6.4h1.1V5.8H63V4.2z"/>
	</g>
	<g>
		<path d="M65.7,7.5c0-0.4,0.2-0.8,0.4-1c0.3-0.2,0.6-0.3,1-0.3c0.4,0,0.7,0.1,1,0.2c0.3,0.2,0.4,0.5,0.4,0.9c0,0.3-0.1,0.5-0.2,0.6
			C68.2,8,68,8.1,67.7,8.1c-0.5,0-0.9,0.1-1.4,0.2c-0.4,0.1-0.8,0.2-1.1,0.5C65,9,64.8,9.3,64.8,9.8c0,0.5,0.2,0.9,0.5,1.2
			c0.3,0.3,0.8,0.4,1.3,0.4c0.5,0,0.9-0.1,1.2-0.3c0.3-0.2,0.6-0.5,0.8-0.8h0c0,0.3,0,0.5,0.1,0.7c0.1,0.2,0.3,0.3,0.6,0.3
			c0.1,0,0.2,0,0.2,0c0.1,0,0.1,0,0.2,0v-0.6c0,0-0.1,0-0.1,0c0,0-0.1,0-0.1,0c-0.1,0-0.2,0-0.3-0.1c-0.1-0.1-0.1-0.2-0.1-0.3V7.4
			c0-0.5-0.1-0.8-0.3-1.1c-0.2-0.3-0.4-0.4-0.7-0.5c-0.3-0.1-0.6-0.1-0.9-0.1c-0.6,0-1.1,0.1-1.5,0.4c-0.4,0.3-0.6,0.8-0.7,1.4H65.7
			z M68.6,9.2c0,0.5-0.2,1-0.6,1.2c-0.4,0.3-0.8,0.5-1.3,0.5c-0.3,0-0.6-0.1-0.8-0.3c-0.2-0.2-0.4-0.5-0.4-0.8
			c0-0.3,0.1-0.6,0.4-0.8c0.3-0.2,0.6-0.3,1-0.3c0.4-0.1,0.8-0.1,1.2-0.2c0.1,0,0.2,0,0.3-0.1c0.1,0,0.2-0.1,0.2-0.2h0V9.2z"/>
	</g>
	<g>
		<path d="M71.6,4.2h-0.7v1.6H70v0.6h0.9v3.7c0,0.5,0.1,0.8,0.3,1c0.2,0.2,0.5,0.3,0.9,0.3c0.1,0,0.2,0,0.3,0c0.1,0,0.2,0,0.3,0
			v-0.6c-0.2,0-0.4,0-0.6,0c-0.2,0-0.4-0.1-0.4-0.2c-0.1-0.1-0.1-0.3-0.1-0.5V6.4h1.1V5.8h-1.1V4.2z"/>
	</g>
	<g>
		<path d="M81.3,3.8h-0.7v3.1h0c-0.2-0.4-0.4-0.7-0.7-0.9c-0.3-0.2-0.7-0.3-1.1-0.3c-0.5,0-1,0.1-1.4,0.4c-0.4,0.3-0.6,0.6-0.8,1
			c-0.2,0.4-0.3,0.9-0.3,1.4c0,0.5,0.1,1,0.3,1.4c0.2,0.4,0.4,0.8,0.8,1c0.4,0.3,0.8,0.4,1.4,0.4c0.4,0,0.8-0.1,1.2-0.3
			c0.4-0.2,0.6-0.5,0.8-0.9h0v1h0.6V3.8z M77,8.5c0-0.4,0.1-0.8,0.2-1.1c0.1-0.3,0.3-0.6,0.6-0.9c0.3-0.2,0.6-0.3,1-0.3
			c0.5,0,0.8,0.1,1.1,0.3c0.3,0.2,0.5,0.5,0.6,0.9c0.1,0.3,0.2,0.7,0.2,1.1c0,0.4-0.1,0.8-0.2,1.1c-0.1,0.4-0.3,0.6-0.6,0.9
			c-0.3,0.2-0.7,0.3-1.1,0.3c-0.4,0-0.8-0.1-1-0.3c-0.3-0.2-0.5-0.5-0.6-0.9C77.1,9.3,77,8.9,77,8.5"/>
	</g>
	<g>
		<path d="M83,8.2c0-0.3,0.1-0.6,0.3-0.9c0.1-0.3,0.3-0.5,0.6-0.7c0.3-0.2,0.6-0.3,0.9-0.3c0.4,0,0.7,0.1,0.9,0.3
			c0.3,0.2,0.4,0.4,0.6,0.7c0.1,0.3,0.2,0.6,0.2,0.9H83z M87.2,8.7c0-0.5,0-1-0.2-1.5c-0.2-0.5-0.4-0.8-0.8-1.1
			c-0.4-0.3-0.8-0.4-1.4-0.5c-0.6,0-1,0.1-1.4,0.4c-0.4,0.3-0.6,0.6-0.8,1.1c-0.2,0.4-0.3,0.9-0.2,1.4c0,0.5,0.1,1,0.2,1.4
			c0.2,0.4,0.4,0.8,0.8,1c0.4,0.3,0.8,0.4,1.4,0.4c0.7,0,1.2-0.2,1.6-0.5c0.4-0.3,0.6-0.8,0.8-1.4h-0.7c-0.1,0.4-0.3,0.7-0.6,1
			c-0.3,0.2-0.7,0.4-1.1,0.4c-0.4,0-0.8-0.1-1-0.3c-0.3-0.2-0.5-0.5-0.6-0.8C83,9.4,83,9.1,83,8.7H87.2z"/>
	</g>
	<g>
		<path d="M97.3,6c-0.1-0.5-0.3-1-0.6-1.3c-0.3-0.4-0.7-0.6-1.1-0.8c-0.4-0.2-0.9-0.3-1.4-0.3c-0.8,0-1.4,0.2-2,0.6
			c-0.5,0.4-0.9,0.8-1.2,1.4c-0.3,0.6-0.4,1.2-0.4,1.9c0,0.7,0.1,1.3,0.4,1.9c0.3,0.6,0.7,1.1,1.2,1.4c0.5,0.4,1.2,0.5,2,0.6
			c0.9,0,1.6-0.3,2.1-0.8c0.5-0.5,0.9-1.3,1-2.2h-0.7c-0.1,0.7-0.3,1.3-0.7,1.7c-0.4,0.4-1,0.7-1.7,0.7c-0.7,0-1.2-0.2-1.6-0.5
			c-0.4-0.3-0.7-0.7-0.9-1.2c-0.2-0.5-0.3-1-0.3-1.6c0-0.6,0.1-1.1,0.3-1.6c0.2-0.5,0.5-0.9,0.9-1.2c0.4-0.3,1-0.5,1.6-0.5
			c0.6,0,1,0.2,1.5,0.5C96.2,5,96.4,5.4,96.6,6H97.3z"/>
	</g>
	<g>
		<path d="M99,7.5c0-0.4,0.2-0.8,0.4-1c0.3-0.2,0.6-0.3,1-0.3c0.4,0,0.7,0.1,1,0.2c0.3,0.2,0.4,0.5,0.4,0.9c0,0.3-0.1,0.5-0.2,0.6
			c-0.1,0.1-0.4,0.1-0.6,0.2c-0.5,0-0.9,0.1-1.4,0.2c-0.4,0.1-0.8,0.2-1.1,0.5c-0.3,0.2-0.4,0.6-0.4,1.1c0,0.5,0.2,0.9,0.5,1.2
			c0.3,0.3,0.8,0.4,1.3,0.4c0.5,0,0.9-0.1,1.2-0.3c0.3-0.2,0.6-0.5,0.8-0.8h0c0,0.3,0,0.5,0.1,0.7c0.1,0.2,0.3,0.3,0.6,0.3
			c0.1,0,0.2,0,0.2,0c0.1,0,0.1,0,0.2,0v-0.6c0,0-0.1,0-0.1,0c0,0-0.1,0-0.1,0c-0.1,0-0.2,0-0.3-0.1c-0.1-0.1-0.1-0.2-0.1-0.3V7.4
			c0-0.5-0.1-0.8-0.3-1.1c-0.2-0.3-0.4-0.4-0.7-0.5c-0.3-0.1-0.6-0.1-0.9-0.1c-0.6,0-1.1,0.1-1.5,0.4c-0.4,0.3-0.6,0.8-0.7,1.4H99z
			 M101.8,9.2c0,0.5-0.2,1-0.6,1.2c-0.4,0.3-0.8,0.5-1.3,0.5c-0.3,0-0.6-0.1-0.8-0.3c-0.2-0.2-0.4-0.5-0.4-0.8
			c0-0.3,0.1-0.6,0.4-0.8c0.3-0.2,0.6-0.3,1-0.3c0.4-0.1,0.8-0.1,1.2-0.2c0.1,0,0.2,0,0.3-0.1c0.1,0,0.2-0.1,0.2-0.2h0V9.2z"/>
	</g>
	<g>
		<path d="M104.9,4.2h-0.7v1.6h-0.9v0.6h0.9v3.7c0,0.5,0.1,0.8,0.3,1c0.2,0.2,0.5,0.3,0.9,0.3c0.1,0,0.2,0,0.3,0c0.1,0,0.2,0,0.3,0
			v-0.6c-0.2,0-0.4,0-0.6,0c-0.2,0-0.4-0.1-0.4-0.2c-0.1-0.1-0.1-0.3-0.1-0.5V6.4h1.1V5.8h-1.1V4.2z"/>
	</g>
	<g>
		<path d="M107.5,7.5c0-0.4,0.2-0.8,0.4-1c0.3-0.2,0.6-0.3,1-0.3c0.4,0,0.7,0.1,1,0.2c0.3,0.2,0.4,0.5,0.4,0.9
			c0,0.3-0.1,0.5-0.2,0.6c-0.1,0.1-0.4,0.1-0.6,0.2c-0.5,0-0.9,0.1-1.4,0.2c-0.4,0.1-0.8,0.2-1.1,0.5c-0.3,0.2-0.4,0.6-0.4,1.1
			c0,0.5,0.2,0.9,0.5,1.2c0.3,0.3,0.8,0.4,1.3,0.4c0.5,0,0.9-0.1,1.2-0.3c0.3-0.2,0.6-0.5,0.8-0.8h0c0,0.3,0,0.5,0.1,0.7
			c0.1,0.2,0.3,0.3,0.6,0.3c0.1,0,0.2,0,0.2,0c0.1,0,0.1,0,0.2,0v-0.6c0,0-0.1,0-0.1,0c0,0-0.1,0-0.1,0c-0.1,0-0.2,0-0.3-0.1
			c-0.1-0.1-0.1-0.2-0.1-0.3V7.4c0-0.5-0.1-0.8-0.3-1.1c-0.2-0.3-0.4-0.4-0.7-0.5c-0.3-0.1-0.6-0.1-0.9-0.1c-0.6,0-1.1,0.1-1.5,0.4
			c-0.4,0.3-0.6,0.8-0.7,1.4H107.5z M110.4,9.2c0,0.5-0.2,1-0.6,1.2c-0.4,0.3-0.8,0.5-1.3,0.5c-0.3,0-0.6-0.1-0.8-0.3
			c-0.2-0.2-0.4-0.5-0.4-0.8c0-0.3,0.1-0.6,0.4-0.8c0.3-0.2,0.6-0.3,1-0.3c0.4-0.1,0.8-0.1,1.2-0.2c0.1,0,0.2,0,0.3-0.1
			c0.1,0,0.2-0.1,0.2-0.2h0V9.2z"/>
	</g>
	<g>
		<rect x="112.4" y="3.8" width="0.7" height="7.5"/>
	</g>
	<g>
		<path d="M118.7,5.8H118v2.8c0,0.4-0.1,0.7-0.2,1.1c-0.1,0.3-0.3,0.6-0.5,0.8c-0.2,0.2-0.5,0.3-0.9,0.3c-0.5,0-0.9-0.1-1.1-0.4
			c-0.2-0.3-0.3-0.6-0.3-1.1V5.8h-0.7v3.5c0,0.6,0.1,1.1,0.4,1.5c0.3,0.4,0.8,0.5,1.5,0.6c0.4,0,0.8-0.1,1.1-0.3
			c0.3-0.2,0.6-0.5,0.8-0.8h0v1h0.6V5.8z"/>
	</g>
	<g>
		<path d="M119.9,11.3h0.7V8.1c0-0.5,0.2-1,0.5-1.3c0.3-0.3,0.7-0.5,1.2-0.5c0.5,0,0.9,0.2,1.1,0.5c0.2,0.3,0.3,0.7,0.3,1.2v3.4h0.7
			V7.8c0-0.7-0.1-1.2-0.4-1.5c-0.3-0.4-0.8-0.6-1.6-0.6c-0.4,0-0.7,0.1-1.1,0.3c-0.3,0.2-0.5,0.5-0.7,0.8h0V5.8h-0.7V11.3z"/>
	</g>
	<g>
		<path d="M127.1,11.2l-0.2,0.6c-0.1,0.3-0.2,0.5-0.3,0.6c-0.1,0.2-0.3,0.2-0.6,0.2c-0.1,0-0.3,0-0.5-0.1v0.6c0.1,0,0.1,0,0.2,0
			c0.1,0,0.2,0,0.3,0c0.4,0,0.7-0.1,0.9-0.2c0.2-0.2,0.4-0.5,0.5-0.9l2.4-6.3h-0.7l-1.7,4.6l-1.8-4.6H125L127.1,11.2z"/>
	</g>
	<g>
		<path d="M131.1,7.5c0-0.4,0.2-0.8,0.4-1c0.3-0.2,0.6-0.3,1-0.3c0.4,0,0.7,0.1,1,0.2c0.3,0.2,0.4,0.5,0.4,0.9
			c0,0.3-0.1,0.5-0.2,0.6c-0.1,0.1-0.4,0.1-0.6,0.2c-0.5,0-0.9,0.1-1.4,0.2c-0.4,0.1-0.8,0.2-1.1,0.5c-0.3,0.2-0.4,0.6-0.4,1.1
			c0,0.5,0.2,0.9,0.5,1.2c0.3,0.3,0.8,0.4,1.3,0.4c0.5,0,0.9-0.1,1.2-0.3c0.3-0.2,0.6-0.5,0.8-0.8h0c0,0.3,0,0.5,0.1,0.7
			c0.1,0.2,0.3,0.3,0.6,0.3c0.1,0,0.2,0,0.2,0c0.1,0,0.1,0,0.2,0v-0.6c0,0-0.1,0-0.1,0c0,0-0.1,0-0.1,0c-0.1,0-0.2,0-0.3-0.1
			c-0.1-0.1-0.1-0.2-0.1-0.3V7.4c0-0.5-0.1-0.8-0.3-1.1c-0.2-0.3-0.4-0.4-0.7-0.5c-0.3-0.1-0.6-0.1-0.9-0.1c-0.6,0-1.1,0.1-1.5,0.4
			c-0.4,0.3-0.6,0.8-0.7,1.4H131.1z M133.9,9.2c0,0.5-0.2,1-0.6,1.2c-0.4,0.3-0.8,0.5-1.3,0.5c-0.3,0-0.6-0.1-0.8-0.3
			c-0.2-0.2-0.4-0.5-0.4-0.8c0-0.3,0.1-0.6,0.4-0.8c0.3-0.2,0.6-0.3,1-0.3c0.4-0.1,0.8-0.1,1.2-0.2c0.1,0,0.2,0,0.3-0.1
			c0.1,0,0.2-0.1,0.2-0.2h0V9.2z"/>
	</g>
	<g>
		<path d="M192.9,12.1h2.4c2.1,0,4,0.6,4,2.9c0,2.2-1.6,3-3.7,3h-0.8v3.6h-1.9V12.1z M194.8,16.5h0.7c1,0,1.8-0.3,1.8-1.4
			c0-1.1-0.8-1.5-1.8-1.5h-0.7V16.5z"/>
	</g>
	<g>
		<path d="M203.7,14.4c2.1,0,3.7,1.4,3.7,3.7c0,2-1.3,3.6-3.7,3.6c-2.3,0-3.7-1.6-3.7-3.6C200.1,15.8,201.7,14.4,203.7,14.4
			 M203.7,20.3c1.4,0,1.8-1.3,1.8-2.4c0-1.1-0.6-2.1-1.8-2.1c-1.2,0-1.8,1-1.8,2.1C202,19.1,202.4,20.3,203.7,20.3"/>
	</g>
	<g>
		<path d="M208.9,14.6h1.6v1.6h0c0.1-0.7,0.8-1.8,1.9-1.8c0.2,0,0.4,0,0.6,0.1v1.8c-0.2-0.1-0.5-0.2-0.8-0.2c-1.5,0-1.5,1.9-1.5,2.9
			v2.6h-1.8V14.6z"/>
	</g>
	<g>
		<path d="M214.8,15.9h-1.4v-1.3h1.4v-1.4l1.8-0.6v2h1.6v1.3h-1.6v3.3c0,0.6,0.2,1.2,0.9,1.2c0.3,0,0.6-0.1,0.8-0.2l0.1,1.4
			c-0.4,0.1-0.8,0.2-1.3,0.2c-1.4,0-2.2-0.9-2.2-2.3V15.9z"/>
	</g>
	<g>
		<path d="M228.9,21.6h-0.9v-1.1h0c-0.5,0.9-1.2,1.3-2.2,1.3c-1.9,0-2.9-1.6-2.9-3.6c0-2.1,0.8-3.6,2.9-3.6c1.4,0,2,1,2.2,1.3h0
			v-4.4h0.9V21.6z M226,21c1.5,0,2.1-1.6,2.1-2.9c0-1.3-0.5-2.9-2.1-2.9c-1.6,0-2.1,1.6-2.1,2.9C223.9,19.5,224.4,21,226,21"/>
	</g>
	<g>
		<path d="M235.7,21.4c-0.6,0.2-1.4,0.4-2,0.4c-2.3,0-3.2-1.6-3.2-3.6c0-2.1,1.2-3.6,2.9-3.6c2,0,2.8,1.6,2.8,3.5v0.4h-4.8
			c0,1.5,0.8,2.7,2.3,2.7c0.6,0,1.5-0.3,2-0.5V21.4z M235.2,17.6c0-1.2-0.5-2.4-1.8-2.4c-1.3,0-2,1.3-2,2.4H235.2z"/>
	</g>
	<g>
		<polygon points="243.4,13.6 240.6,13.6 240.6,12.1 248,12.1 248,13.6 245.3,13.6 245.3,21.6 243.4,21.6 		"/>
	</g>
	<g>
		<path d="M249.4,14.9c0.7-0.3,1.7-0.5,2.4-0.5c2.1,0,3,0.9,3,3v0.9c0,0.7,0,1.2,0,1.8c0,0.5,0,1,0.1,1.6h-1.6
			c-0.1-0.4-0.1-0.8-0.1-1.1h0c-0.4,0.8-1.3,1.2-2.2,1.2c-1.2,0-2.5-0.8-2.5-2.1c0-1.1,0.5-1.7,1.2-2c0.7-0.3,1.6-0.4,2.4-0.4h1
			c0-1.1-0.5-1.5-1.6-1.5c-0.8,0-1.6,0.3-2.2,0.8L249.4,14.9z M251.5,20.4c0.6,0,1-0.2,1.3-0.6c0.3-0.4,0.4-0.9,0.4-1.4h-0.8
			c-0.8,0-2,0.1-2,1.2C250.3,20.2,250.9,20.4,251.5,20.4"/>
	</g>
	<g>
		<path d="M256.7,14.6h1.6v1.6h0c0.1-0.7,0.8-1.8,1.9-1.8c0.2,0,0.4,0,0.6,0.1v1.8c-0.2-0.1-0.5-0.2-0.8-0.2c-1.5,0-1.5,1.9-1.5,2.9
			v2.6h-1.8V14.6z"/>
	</g>
	<g>
		<path d="M262,14.6h1.6v1.6h0c0.1-0.7,0.8-1.8,1.9-1.8c0.2,0,0.4,0,0.6,0.1v1.8c-0.2-0.1-0.5-0.2-0.8-0.2c-1.5,0-1.5,1.9-1.5,2.9
			v2.6H262V14.6z"/>
	</g>
	<g>
		<path d="M267.6,14.9c0.7-0.3,1.7-0.5,2.4-0.5c2.1,0,3,0.9,3,3v0.9c0,0.7,0,1.2,0,1.8c0,0.5,0,1,0.1,1.6h-1.6
			c-0.1-0.4-0.1-0.8-0.1-1.1h0c-0.4,0.8-1.3,1.2-2.2,1.2c-1.2,0-2.5-0.8-2.5-2.1c0-1.1,0.5-1.7,1.2-2c0.7-0.3,1.6-0.4,2.4-0.4h1
			c0-1.1-0.5-1.5-1.6-1.5c-0.8,0-1.6,0.3-2.2,0.8L267.6,14.9z M269.7,20.4c0.6,0,1-0.2,1.3-0.6c0.3-0.4,0.4-0.9,0.4-1.4h-0.8
			c-0.8,0-2,0.1-2,1.2C268.5,20.2,269.1,20.4,269.7,20.4"/>
	</g>
	<g>
		<path d="M281.3,14.6v6.3c0,1.9-0.8,3.7-3.7,3.7c-0.7,0-1.6-0.1-2.4-0.5l0.1-1.6c0.6,0.3,1.5,0.6,2,0.6c2,0,2.1-1.5,2.1-2.7h0
			c-0.3,0.6-1.2,1.1-2.2,1.1c-2.1,0-2.9-1.7-2.9-3.5c0-1.7,0.9-3.6,3-3.6c0.9,0,1.7,0.3,2.2,1.1h0v-1H281.3z M279.5,18
			c0-1.2-0.5-2.2-1.5-2.2c-1.2,0-1.6,1.1-1.6,2.2c0,1,0.5,2.1,1.6,2.1C279,20.2,279.5,19.2,279.5,18"/>
	</g>
	<g>
		<path d="M286.4,14.4c2.1,0,3.7,1.4,3.7,3.7c0,2-1.4,3.6-3.7,3.6c-2.3,0-3.7-1.6-3.7-3.6C282.7,15.8,284.3,14.4,286.4,14.4
			 M286.4,20.3c1.4,0,1.8-1.3,1.8-2.4c0-1.1-0.6-2.1-1.8-2.1c-1.2,0-1.8,1-1.8,2.1C284.6,19.1,285,20.3,286.4,20.3"/>
	</g>
	<g>
		<path d="M291.5,14.6h1.7v1h0c0.6-0.8,1.4-1.1,2.3-1.1c1.7,0,2.4,1.2,2.4,2.8v4.4h-1.8v-3.8c0-0.9,0-2-1.2-2
			c-1.3,0-1.6,1.4-1.6,2.3v3.4h-1.8V14.6z"/>
	</g>
	<g>
		<path d="M300.2,14.9c0.7-0.3,1.7-0.5,2.4-0.5c2.1,0,3,0.9,3,3v0.9c0,0.7,0,1.2,0,1.8c0,0.5,0,1,0.1,1.6h-1.6
			c-0.1-0.4-0.1-0.8-0.1-1.1h0c-0.4,0.8-1.3,1.2-2.2,1.2c-1.2,0-2.5-0.8-2.5-2.1c0-1.1,0.5-1.7,1.2-2c0.7-0.3,1.6-0.4,2.4-0.4h1
			c0-1.1-0.5-1.5-1.6-1.5c-0.8,0-1.6,0.3-2.2,0.8L300.2,14.9z M302.3,20.4c0.6,0,1-0.2,1.3-0.6c0.3-0.4,0.4-0.9,0.4-1.4h-0.8
			c-0.8,0-2,0.1-2,1.2C301.1,20.2,301.6,20.4,302.3,20.4"/>
	</g>
	<g>
		<path d="M169.4,12.2c0-5.7,4.6-10.3,10.3-10.3c5.7,0,10.3,4.6,10.3,10.3c0,4.3-2.6,8-6.4,9.5c0.8-1.9,1.3-3.8,1.6-5.8
			c1.1-0.2,2.2-0.4,3.3-0.7c0.2-1,0.4-2,0.5-3.1c-4.3,0.7-8.7,0.9-13,0.9c0,1.2-0.1,2.4,0,3.6c1.6,0,3.1,0,4.7-0.2
			c-0.2,2-0.4,4.1-0.9,6.1l-0.2,0C174,22.5,169.4,17.9,169.4,12.2"/>
	</g>
</g>
</svg>
