<?xml version="1.0" encoding="utf-8"?>
<!-- Generator: Adobe Illustrator 20.1.0, SVG Export Plug-In . SVG Version: 6.00 Build 0)  -->
<svg version="1.1" id="Capa_1" xmlns="http://www.w3.org/2000/svg" xmlns:xlink="http://www.w3.org/1999/xlink" x="0px" y="0px"
	 viewBox="0 0 139.9 25" style="enable-background:new 0 0 139.9 25;" xml:space="preserve">
<style type="text/css">
	.st0{fill-rule:evenodd;clip-rule:evenodd;}
</style>
<g>
	<g>
		<g>
			<rect x="1.3" y="20.6" width="66.1" height="0.6"/>
		</g>
		<g>
			<rect x="1.3" y="12.9" width="66.1" height="0.3"/>
		</g>
		<g>
			<rect x="1.3" y="14.9" width="66.1" height="0.4"/>
		</g>
		<g>
			<rect x="1.3" y="17.5" width="66.1" height="0.5"/>
		</g>
		<g>
			<rect x="1.3" y="11.7" width="66.1" height="0.1"/>
		</g>
		<g>
			<rect x="1.3" y="2.3" width="66.1" height="0.6"/>
		</g>
		<g>
			<rect x="1.3" y="10.3" width="66.1" height="0.3"/>
		</g>
		<g>
			<rect x="1.3" y="8.3" width="66.1" height="0.4"/>
		</g>
		<g>
			<rect x="1.3" y="5.6" width="66.1" height="0.5"/>
		</g>
	</g>
	<g>
		<g>
			<path d="M72.7,6.5L72.7,6.5c0-2.2,1.6-4,3.9-4c1.4,0,2.2,0.5,3,1.2L79,4.4c-0.6-0.6-1.4-1.1-2.4-1.1c-1.7,0-3,1.4-3,3.2v0
				c0,1.8,1.3,3.2,3,3.2c1.1,0,1.7-0.4,2.5-1.1l0.6,0.6c-0.8,0.8-1.7,1.4-3.1,1.4C74.3,10.5,72.7,8.8,72.7,6.5z"/>
			<path d="M83.4,9.8c0.8,0,1.3-0.3,1.8-0.8l0.5,0.5c-0.6,0.6-1.3,1.1-2.3,1.1c-1.6,0-2.8-1.2-2.8-3c0-1.6,1.2-3,2.7-3
				c1.7,0,2.6,1.3,2.6,3c0,0.1,0,0.2,0,0.3h-4.5C81.5,9.1,82.4,9.8,83.4,9.8z M85.1,7.2c-0.1-1-0.7-1.9-1.8-1.9
				c-1,0-1.7,0.8-1.8,1.9H85.1z"/>
			<path d="M87.4,4.7h0.8v1c0.4-0.6,1-1.1,1.9-1.1c1.4,0,2.2,0.9,2.2,2.3v3.5h-0.8V7.1c0-1.1-0.6-1.7-1.6-1.7c-1,0-1.7,0.7-1.7,1.8
				v3.3h-0.8V4.7z"/>
			<path d="M94.4,8.9V5.4h-0.8V4.7h0.8V3h0.8v1.7H97v0.7h-1.8v3.3c0,0.7,0.4,0.9,1,0.9c0.3,0,0.5-0.1,0.8-0.2v0.7
				c-0.3,0.2-0.6,0.2-1,0.2C95.1,10.5,94.4,10,94.4,8.9z"/>
			<path d="M98.5,4.7h0.8v1.5c0.4-0.9,1.2-1.6,2.3-1.6v0.9h-0.1c-1.2,0-2.3,0.9-2.3,2.6v2.3h-0.8V4.7z"/>
			<path d="M105.4,9.8c0.8,0,1.3-0.3,1.8-0.8l0.5,0.5c-0.6,0.6-1.3,1.1-2.3,1.1c-1.6,0-2.8-1.2-2.8-3c0-1.6,1.2-3,2.7-3
				c1.7,0,2.6,1.3,2.6,3c0,0.1,0,0.2,0,0.3h-4.5C103.5,9.1,104.4,9.8,105.4,9.8z M107,7.2c-0.1-1-0.7-1.9-1.8-1.9
				c-1,0-1.7,0.8-1.8,1.9H107z"/>
			<path d="M112.2,7.5L112.2,7.5c0-1.9,1.4-3,2.7-3c1.1,0,1.7,0.6,2.2,1.2V2.4h0.8v8h-0.8V9.2c-0.5,0.7-1.1,1.3-2.2,1.3
				C113.6,10.5,112.2,9.4,112.2,7.5z M117.2,7.5L117.2,7.5c0-1.3-1-2.2-2.1-2.2c-1.1,0-2,0.8-2,2.2v0c0,1.3,0.9,2.2,2,2.2
				C116.2,9.7,117.2,8.8,117.2,7.5z"/>
			<path d="M119.4,4.8c0.5-0.2,0.8-0.5,0.7-1h-0.4V2.7h1v1c0,0.9-0.4,1.3-1.2,1.5L119.4,4.8z"/>
			<path d="M125.4,2.6h0.8l3.5,7.7h-0.9l-0.9-2h-4.2l-0.9,2h-0.9L125.4,2.6z M127.6,7.6l-1.7-3.9l-1.8,3.9H127.6z"/>
			<path d="M131.1,4.7h0.8v1.5c0.4-0.9,1.2-1.6,2.3-1.6v0.9h-0.1c-1.2,0-2.3,0.9-2.3,2.6v2.3h-0.8V4.7z"/>
			<path d="M135.8,8.9V5.4H135V4.7h0.8V3h0.8v1.7h1.8v0.7h-1.8v3.3c0,0.7,0.4,0.9,1,0.9c0.3,0,0.5-0.1,0.8-0.2v0.7
				c-0.3,0.2-0.6,0.2-1,0.2C136.4,10.5,135.8,10,135.8,8.9z"/>
		</g>
		<g>
			<path d="M77.4,14.5v7.4h-2v-7.4h-2.8v-1.9h7.6v1.9H77.4z"/>
			<path d="M84.3,21.8v-0.8c-0.5,0.5-1.2,0.9-2.1,0.9c-1.3,0-2.4-0.8-2.4-2.2v0c0-1.5,1.2-2.3,2.8-2.3c0.7,0,1.2,0.1,1.7,0.3v-0.1
				c0-0.8-0.5-1.3-1.5-1.3c-0.8,0-1.3,0.1-2,0.4l-0.5-1.5c0.8-0.3,1.5-0.6,2.7-0.6c2.2,0,3.2,1.1,3.2,3v4.1H84.3z M84.3,19
				c-0.3-0.2-0.8-0.3-1.3-0.3c-0.9,0-1.4,0.3-1.4,1v0c0,0.5,0.4,0.9,1.1,0.9c0.9,0,1.6-0.5,1.6-1.2V19z"/>
			<path d="M92.1,16.7c-1.3,0-2.1,0.8-2.1,2.5v2.6h-2v-7.1h2v1.4c0.4-1,1.1-1.6,2.3-1.6v2.1H92.1z"/>
			<path d="M97.6,16.7c-1.3,0-2.1,0.8-2.1,2.5v2.6h-2v-7.1h2v1.4c0.4-1,1.1-1.6,2.3-1.6v2.1H97.6z"/>
			<path d="M102.8,21.8v-0.8c-0.5,0.5-1.2,0.9-2.1,0.9c-1.3,0-2.4-0.8-2.4-2.2v0c0-1.5,1.2-2.3,2.8-2.3c0.7,0,1.2,0.1,1.7,0.3v-0.1
				c0-0.8-0.5-1.3-1.5-1.3c-0.8,0-1.3,0.1-2,0.4l-0.5-1.5c0.8-0.3,1.5-0.6,2.7-0.6c2.2,0,3.2,1.1,3.2,3v4.1H102.8z M102.9,19
				c-0.3-0.2-0.8-0.3-1.3-0.3c-0.9,0-1.4,0.3-1.4,1v0c0,0.5,0.4,0.9,1.1,0.9c0.9,0,1.6-0.5,1.6-1.2V19z"/>
			<path d="M109.6,24c-1.1,0-2.2-0.3-3.1-0.7l0.7-1.5c0.7,0.4,1.5,0.6,2.4,0.6c1.4,0,2-0.7,2-1.9v-0.3c-0.6,0.7-1.2,1.1-2.3,1.1
				c-1.6,0-3.1-1.2-3.1-3.3v0c0-2.1,1.5-3.3,3.1-3.3c1.1,0,1.7,0.5,2.3,1.1v-0.9h2v5.5C113.6,22.9,112.3,24,109.6,24z M111.6,17.9
				c0-1-0.8-1.6-1.7-1.6c-1,0-1.7,0.7-1.7,1.6v0c0,1,0.7,1.6,1.7,1.6C110.9,19.6,111.6,18.9,111.6,17.9L111.6,17.9z"/>
			<path d="M118.9,22c-2.2,0-3.8-1.6-3.8-3.7v0c0-2,1.6-3.7,3.8-3.7c2.2,0,3.8,1.6,3.8,3.7v0C122.7,20.4,121.1,22,118.9,22z
				 M120.7,18.3c0-1-0.8-2-1.9-2c-1.1,0-1.8,0.9-1.8,1.9v0c0,1,0.8,2,1.9,2C120,20.3,120.7,19.4,120.7,18.3L120.7,18.3z"/>
			<path d="M128.6,21.8v-3.9c0-0.9-0.4-1.4-1.2-1.4c-0.8,0-1.3,0.5-1.3,1.4v3.9h-2v-7.1h2v1c0.5-0.6,1.1-1.1,2.1-1.1
				c1.5,0,2.4,1,2.4,2.6v4.6H128.6z"/>
			<path d="M136.5,21.8v-0.8c-0.5,0.5-1.2,0.9-2.1,0.9c-1.3,0-2.4-0.8-2.4-2.2v0c0-1.5,1.2-2.3,2.8-2.3c0.7,0,1.2,0.1,1.7,0.3v-0.1
				c0-0.8-0.5-1.3-1.5-1.3c-0.8,0-1.3,0.1-2,0.4l-0.5-1.5c0.8-0.3,1.5-0.6,2.7-0.6c2.2,0,3.2,1.1,3.2,3v4.1H136.5z M136.5,19
				c-0.3-0.2-0.8-0.3-1.3-0.3c-0.9,0-1.4,0.3-1.4,1v0c0,0.5,0.4,0.9,1.1,0.9c0.9,0,1.6-0.5,1.6-1.2V19z"/>
		</g>
	</g>
</g>
</svg>
