<?xml version="1.0" encoding="utf-8"?>
<!-- Generator: Adobe Illustrator 20.1.0, SVG Export Plug-In . SVG Version: 6.00 Build 0)  -->
<svg version="1.1" id="Capa_1" xmlns="http://www.w3.org/2000/svg" xmlns:xlink="http://www.w3.org/1999/xlink" x="0px" y="0px"
	 viewBox="0 0 211 47.4" style="enable-background:new 0 0 211 47.4;" xml:space="preserve">
<style type="text/css">
	.st0{fill-rule:evenodd;clip-rule:evenodd;}
</style>
<g>
	<g>
		<path d="M30.3,36.7h-1.9l2.9,6.4h0.9l1.5-3.8L35,43h0.9l2.9-6.4h-1.9l-1.3,3.6L34,36.5h-0.8l-1.5,3.8L30.3,36.7z M40.9,36.7h-1.9
			l2.9,6.4h0.9l1.5-3.8l1.3,3.8h0.9l2.9-6.4h-1.9l-1.3,3.6l-1.5-3.8h-0.8l-1.5,3.8L40.9,36.7z M51.5,36.7h-1.9l2.9,6.4h0.9l1.5-3.8
			l1.3,3.8H57l2.9-6.4H58l-1.3,3.6l-1.5-3.8h-0.9l-1.5,3.8L51.5,36.7z M61.4,40.9c-0.6,0-1.1,0.5-1.1,1.1c0,0.6,0.5,1.1,1.1,1.1
			c0.6,0,1.1-0.5,1.1-1.1C62.5,41.4,62,40.9,61.4,40.9 M66.5,38.2h1.1v-1.5h-1.1v-2.1h-1.8v2.1h-0.6v1.5h0.6v4.7h1.8V38.2z
			 M74.5,36.7h-1.8v0.6c-0.4-0.5-1.1-0.8-1.7-0.8c-1.8,0-2.8,1.6-2.8,3.3c0,1.7,1,3.4,2.9,3.4c0.6,0,1.3-0.3,1.7-0.8h0v0.6h1.8V36.7
			z M71.4,41.5c-0.9,0-1.5-0.9-1.5-1.8c0-0.8,0.6-1.7,1.5-1.7c0.9,0,1.5,0.9,1.5,1.7C72.9,40.6,72.3,41.5,71.4,41.5 M78.2,36.7h-1.8
			v6.2h1.8v-2.8c0-1,0.1-2.1,1.4-2.1c0.3,0,0.5,0.1,0.7,0.2l0.2-1.6c-0.2-0.1-0.5-0.2-0.7-0.2c-0.7,0-1.2,0.3-1.6,0.8h0V36.7z
			 M83.5,36.7h-1.8v6.2h1.8v-2.8c0-1,0.1-2.1,1.4-2.1c0.3,0,0.5,0.1,0.7,0.2l0.2-1.6c-0.2-0.1-0.5-0.2-0.7-0.2
			c-0.7,0-1.2,0.3-1.5,0.8h0V36.7z M92.9,36.7h-1.8v0.6c-0.4-0.5-1.1-0.8-1.7-0.8c-1.8,0-2.8,1.6-2.8,3.3c0,1.7,1,3.4,2.9,3.4
			c0.6,0,1.3-0.3,1.7-0.8h0v0.6h1.8V36.7z M89.8,41.5c-0.9,0-1.5-0.9-1.5-1.8c0-0.8,0.6-1.7,1.5-1.7c0.9,0,1.5,0.9,1.5,1.7
			C91.3,40.6,90.7,41.5,89.8,41.5 M100.7,36.7h-1.8v0.6h0c-0.4-0.5-1-0.8-1.6-0.8c-1.9,0-2.9,1.6-2.9,3.4c0,1.7,1,3.3,2.8,3.3
			c0.7,0,1.3-0.3,1.7-0.8h0v0.4c0,0.9,0,2-1.3,2c-0.7,0-1.1-0.4-1.2-1.1h-1.9c0.1,1.7,1.6,2.6,3.1,2.6c2.3,0,3-1.7,3-3.7V36.7z
			 M97.6,41.5c-0.9,0-1.5-0.9-1.5-1.7c0-0.8,0.6-1.8,1.5-1.8s1.5,0.9,1.5,1.8C99.1,40.6,98.5,41.5,97.6,41.5 M105.4,36.5
			c-1.9,0-3.3,1.4-3.3,3.3c0,1.9,1.3,3.3,3.3,3.3c2,0,3.3-1.4,3.3-3.3C108.7,37.8,107.4,36.5,105.4,36.5 M105.4,38
			c0.9,0,1.5,0.9,1.5,1.8c0,0.8-0.6,1.7-1.5,1.7c-0.9,0-1.5-0.9-1.5-1.7C103.9,38.9,104.5,38,105.4,38 M111.9,36.7h-1.8v6.2h1.8
			v-3.1c0-0.7,0-1.9,1.1-1.9c1,0,1,1,1,1.7v3.3h1.8v-3.8c0-1.4-0.5-2.6-2.2-2.6c-0.6,0-1.3,0.2-1.6,0.8h0V36.7z M123.5,36.7h-1.8
			v0.6c-0.4-0.5-1.1-0.8-1.7-0.8c-1.8,0-2.8,1.6-2.8,3.3c0,1.7,1,3.4,2.9,3.4c0.6,0,1.3-0.3,1.7-0.8h0v0.6h1.8V36.7z M120.5,41.5
			c-0.9,0-1.5-0.9-1.5-1.8c0-0.8,0.6-1.7,1.5-1.7c0.9,0,1.5,0.9,1.5,1.7C122,40.6,121.4,41.5,120.5,41.5 M126.7,40.9
			c-0.6,0-1.1,0.5-1.1,1.1c0,0.6,0.5,1.1,1.1,1.1c0.6,0,1.1-0.5,1.1-1.1C127.8,41.4,127.3,40.9,126.7,40.9 M134,36.8
			c-0.4-0.3-1-0.4-1.4-0.4c-1.9,0-3.2,1.5-3.2,3.3c0,1.8,1.3,3.3,3.1,3.3c0.5,0,1.1-0.1,1.5-0.4V41c-0.3,0.4-0.8,0.6-1.2,0.6
			c-1,0-1.6-0.8-1.6-1.8c0-0.9,0.6-1.9,1.6-1.9c0.5,0,0.9,0.2,1.3,0.6V36.8z M141.6,36.7h-1.8v0.6c-0.4-0.5-1.1-0.8-1.7-0.8
			c-1.8,0-2.8,1.6-2.8,3.3c0,1.7,1,3.4,2.9,3.4c0.6,0,1.3-0.3,1.7-0.8h0v0.6h1.8V36.7z M138.6,41.5c-0.9,0-1.5-0.9-1.5-1.8
			c0-0.8,0.6-1.7,1.5-1.7c0.9,0,1.5,0.9,1.5,1.7C140.1,40.6,139.5,41.5,138.6,41.5 M145.5,38.2h1.1v-1.5h-1.1v-2.1h-1.8v2.1h-0.6
			v1.5h0.6v4.7h1.8V38.2z"/>
	</g>
	<g>
		<path d="M22.7,19V5.8c0-2-1.6-3.7-3.7-3.7H5.9c-2,0-3.7,1.6-3.7,3.7V19c0,2,1.6,3.7,3.7,3.7h13.2C21.1,22.6,22.7,21,22.7,19
			 M21.2,18.6c0,1.4-1.1,2.5-2.5,2.5H16V13h2.5l0.2-2.4H16V9.8V8.9V8.7c0-0.7,0.6-0.9,1.2-0.9c0.7,0,1.4,0.2,1.4,0.2L19,5.5
			c0,0-0.9-0.3-3-0.3c-1.3,0-2.1,0.5-2.6,1.2c-0.5,0.7-0.5,1.8-0.5,2.5V9v0.7v0.8h-1.7V13h1.7v8.1H6.3c-1.4,0-2.5-1.1-2.5-2.5V6.1
			c0-1.4,1.1-2.5,2.5-2.5h12.5c1.4,0,2.5,1.1,2.5,2.5V18.6z"/>
	</g>
	<g>
		<path d="M84.1,19V5.8c0-2-1.6-3.7-3.7-3.7H67.3c-2,0-3.7,1.6-3.7,3.7V19c0,2,1.6,3.7,3.7,3.7h13.2C82.4,22.6,84.1,21,84.1,19
			 M82.6,18.6c0,1.4-1.1,2.5-2.5,2.5H67.6c-1.4,0-2.5-1.1-2.5-2.5V6.1c0-1.4,1.1-2.5,2.5-2.5h12.5c1.4,0,2.5,1.1,2.5,2.5V18.6z
			 M79.1,18.1c0-0.7,0.1-1.3,0.1-2c0-0.7,0-1.3-0.1-2c0-0.8-0.7-1.5-1.5-1.5c-1.1,0-2.3-0.1-3.5-0.1h-0.2h-0.2c-1.2,0-2.3,0-3.5,0.1
			c-0.8,0-1.5,0.7-1.5,1.5c-0.1,0.7-0.1,1.3-0.1,2c0,0.7,0,1.3,0.1,2c0,0.8,0.7,1.5,1.5,1.5c1.2,0,2.4,0.1,3.7,0.1
			c1.2,0,2.5,0,3.7-0.1C78.4,19.6,79.1,18.9,79.1,18.1 M71.7,14.4h-0.7v4h-0.7v-4h-0.7v-0.7h2.2V14.4z M73.5,18.4h-0.6V18
			c-0.1,0.1-0.2,0.2-0.4,0.3c-0.1,0.1-0.3,0.1-0.4,0.1c-0.1,0-0.3-0.1-0.3-0.2c-0.1-0.1-0.1-0.3-0.1-0.5V15h0.6v2.6
			c0,0.1,0,0.1,0,0.2c0,0,0.1,0.1,0.1,0.1c0,0,0.1,0,0.2-0.1c0.1,0,0.1-0.1,0.2-0.2V15h0.6V18.4z M75.9,17.7c0,0.2,0,0.4-0.2,0.6
			c-0.1,0.1-0.2,0.2-0.4,0.2c-0.1,0-0.2,0-0.3-0.1c-0.1,0-0.2-0.1-0.3-0.2v0.3h-0.6v-4.6h0.6v1.5c0.1-0.1,0.2-0.2,0.3-0.2
			c0.1-0.1,0.2-0.1,0.3-0.1c0.2,0,0.4,0.1,0.5,0.2c0.1,0.1,0.2,0.4,0.2,0.6V17.7z M78.3,17.4c0,0.4-0.1,0.6-0.2,0.8
			c-0.2,0.2-0.4,0.3-0.7,0.3c-0.3,0-0.5-0.1-0.7-0.3c-0.2-0.2-0.2-0.4-0.2-0.8v-1.5c0-0.3,0.1-0.5,0.3-0.7c0.2-0.2,0.4-0.3,0.7-0.3
			c0.3,0,0.5,0.1,0.7,0.3c0.2,0.2,0.2,0.4,0.2,0.7v0.9h-1.2v0.6c0,0.2,0,0.3,0.1,0.4c0,0.1,0.1,0.1,0.2,0.1c0.1,0,0.2,0,0.2-0.1
			s0.1-0.2,0.1-0.4v-0.2h0.7V17.4z M77.1,16.2h0.6v-0.3c0-0.1,0-0.2-0.1-0.3c0-0.1-0.1-0.1-0.2-0.1c-0.1,0-0.2,0-0.2,0.1
			c0,0.1-0.1,0.2-0.1,0.3V16.2z M75.2,17.8c0,0,0.1-0.1,0.1-0.2v-1.8c0-0.1,0-0.2-0.1-0.3c0-0.1-0.1-0.1-0.2-0.1c0,0-0.1,0-0.1,0
			c0,0-0.1,0.1-0.1,0.1v2.1c0.1,0.1,0.1,0.1,0.2,0.1c0,0,0.1,0,0.2,0C75.1,17.9,75.2,17.9,75.2,17.8 M77.6,11.8h0.9v-5h-0.9v3.8
			c-0.1,0.1-0.2,0.2-0.3,0.3C77.2,11,77.1,11,77.1,11c-0.1,0-0.2,0-0.2-0.1c0-0.1-0.1-0.1-0.1-0.3V6.8h-0.9V11
			c0,0.3,0.1,0.5,0.2,0.7c0.1,0.1,0.3,0.2,0.5,0.2c0.2,0,0.4-0.1,0.5-0.2c0.2-0.1,0.4-0.3,0.5-0.5V11.8z M74.7,11.6
			c0.2-0.2,0.4-0.6,0.4-1V8c0-0.4-0.1-0.7-0.4-0.9c-0.2-0.2-0.6-0.4-0.9-0.4c-0.4,0-0.8,0.1-1,0.3c-0.3,0.2-0.4,0.5-0.4,0.9v2.6
			c0,0.4,0.1,0.8,0.4,1c0.2,0.2,0.6,0.4,1,0.4h0C74.2,11.9,74.5,11.8,74.7,11.6 M74.2,10.6c0,0.1,0,0.2-0.1,0.3
			c-0.1,0.1-0.2,0.1-0.3,0.1c-0.1,0-0.2,0-0.3-0.1c-0.1-0.1-0.1-0.2-0.1-0.3V7.9c0-0.1,0-0.2,0.1-0.3c0.1-0.1,0.2-0.1,0.3-0.1
			c0.1,0,0.2,0,0.3,0.1c0.1,0.1,0.1,0.2,0.1,0.3V10.6z M71.2,9l1.2-4h-1.1l-0.7,2.7h-0.1L70,5h-1.1l1.2,4.1v2.7h1V9z"/>
	</g>
	<g>
		<path d="M53.4,19V5.8c0-2-1.6-3.7-3.7-3.7H36.6c-2,0-3.7,1.6-3.7,3.7V19c0,2,1.6,3.7,3.7,3.7h13.2C51.8,22.6,53.4,21,53.4,19
			 M51.9,18.6c0,1.4-1.1,2.5-2.5,2.5H36.9c-1.4,0-2.5-1.1-2.5-2.5V6.1c0-1.4,1.1-2.5,2.5-2.5h12.5c1.4,0,2.5,1.1,2.5,2.5V18.6z
			 M50.4,8.4c-0.5,0.2-1.1,0.4-1.7,0.5c0.6-0.4,1-0.9,1.3-1.6c-0.6,0.3-1.2,0.6-1.8,0.7C47.7,7.4,47,7,46.1,7
			c-1.6,0-2.9,1.3-2.9,2.9c0,0.2,0,0.4,0.1,0.7c-2.4-0.1-4.5-1.3-5.9-3C37.2,8,37,8.5,37,9c0,1,0.5,1.9,1.3,2.4
			c-0.5,0-0.9-0.1-1.3-0.4v0c0,1.4,1,2.6,2.3,2.8c-0.2,0.1-0.5,0.1-0.8,0.1c-0.2,0-0.4,0-0.5-0.1c0.4,1.1,1.4,2,2.7,2
			c-1,0.8-2.2,1.2-3.6,1.2c-0.2,0-0.5,0-0.7,0c1.3,0.8,2.8,1.3,4.4,1.3c5.3,0,8.2-4.4,8.2-8.2c0-0.1,0-0.2,0-0.4
			C49.6,9.5,50.1,8.9,50.4,8.4"/>
	</g>
	<g>
		<path d="M145.3,18.9V5.8c0-2-1.6-3.6-3.6-3.6h-13.1c-2,0-3.6,1.6-3.6,3.6v13.1c0,2,1.6,3.6,3.6,3.6h13.1
			C143.7,22.5,145.3,20.9,145.3,18.9 M143.8,18.5c0,1.4-1.1,2.5-2.5,2.5h-9.3c0.3-0.5,0.6-1.2,0.8-1.8c0.1-0.4,0.7-2.7,0.7-2.7
			c0.3,0.7,1.3,1.2,2.4,1.2c3.2,0,5.3-2.9,5.3-6.8c0-2.9-2.5-5.7-6.3-5.7c-4.7,0-7.1,3.4-7.1,6.2c0,1.7,0.6,3.2,2,3.8
			c0.2,0.1,0.4,0,0.5-0.2c0-0.2,0.2-0.6,0.2-0.8c0.1-0.2,0-0.3-0.1-0.6c-0.4-0.5-0.7-1.1-0.7-1.9c0-2.5,1.9-4.8,4.9-4.8
			c2.7,0,4.1,1.6,4.1,3.8c0,2.9-1.3,5.3-3.1,5.3c-1,0-1.8-0.9-1.6-1.9c0.3-1.3,0.9-2.6,0.9-3.5c0-0.8-0.4-1.5-1.3-1.5
			c-1.1,0-1.9,1.1-1.9,2.6c0,0.9,0.3,1.6,0.3,1.6s-1.1,4.6-1.3,5.4c-0.2,0.7-0.3,1.6-0.3,2.4h-1.6c-1.4,0-2.5-1.1-2.5-2.5V6.1
			c0-1.4,1.1-2.5,2.5-2.5h12.4c1.4,0,2.5,1.1,2.5,2.5V18.5z"/>
	</g>
	<g>
		<path d="M114.7,19V5.8c0-2-1.6-3.7-3.7-3.7H97.9c-2,0-3.7,1.6-3.7,3.7V19c0,2,1.6,3.7,3.7,3.7h13.2C113.1,22.6,114.7,21,114.7,19
			 M113.2,18.6c0,1.4-1.1,2.5-2.5,2.5H98.3c-1.4,0-2.5-1.1-2.5-2.5V6.1c0-1.4,1.1-2.5,2.5-2.5h12.5c1.4,0,2.5,1.1,2.5,2.5V18.6z"/>
	</g>
	<g>
		<path d="M111.6,6.7c0-0.7-0.5-1.3-1.3-1.3c-0.7,0-1.3,0.5-1.3,1.3c0,0.7,0.5,1.3,1.3,1.4C111,8,111.6,7.4,111.6,6.7"/>
	</g>
	<g>
		<path d="M110.1,12.5c0-3.1-2.5-5.6-5.5-5.6c-3.1,0-5.6,2.5-5.6,5.6c0,3.1,2.5,5.6,5.6,5.6C107.6,18,110.1,15.6,110.1,12.5
			 M108.2,12.4c0,2-1.6,3.6-3.6,3.6c-2,0-3.6-1.6-3.6-3.6c0-2,1.6-3.6,3.6-3.6C106.5,8.8,108.1,10.5,108.2,12.4"/>
	</g>
	<g>
		<path d="M175.7,38.7V6.6c0-2.5-2-4.5-4.5-4.5H160c-2.5,0-4.5,2-4.5,4.5v32.1c0,2.5,2,4.5,4.5,4.5h11.2
			C173.7,43.2,175.7,41.2,175.7,38.7 M163.7,40.2c0-1.1,0.9-1.9,1.9-1.9s1.9,0.9,1.9,1.9c0,1.1-0.9,1.9-1.9,1.9
			S163.7,41.3,163.7,40.2 M169.1,4.8c0,0.4-0.2,0.8-0.4,0.8h-6.2c-0.2,0-0.4-0.3-0.4-0.8c0-0.4,0.2-0.8,0.4-0.8h6.2
			C168.9,4.1,169.1,4.4,169.1,4.8 M174.1,37h-16.9V8.4h16.9V37z"/>
	</g>
	<g>
		<path d="M181.1,23.5v1.8h2.8v8.1h2.3v-8.1h2.8v-1.8H181.1z M193.7,31.5c-0.4-0.1-0.7-0.4-0.9-0.6c-0.3-0.3-0.5-0.6-0.6-1
			c-0.1-0.4-0.2-0.9-0.2-1.4c0-0.5,0.1-0.9,0.2-1.3c0.1-0.4,0.3-0.7,0.6-1c0.2-0.3,0.5-0.5,0.9-0.6c0.3-0.2,0.7-0.2,1.2-0.2
			c0.2,0,0.4,0,0.6,0c0.2,0,0.4,0.1,0.5,0.1c0.2,0.1,0.3,0.1,0.5,0.2c0.2,0.1,0.3,0.2,0.5,0.3c0.1,0.1,0.3,0.1,0.4,0.1
			c0.1,0,0.2,0,0.3-0.1c0.1-0.1,0.2-0.1,0.2-0.2l0.7-1c-0.2-0.2-0.4-0.4-0.7-0.5c-0.3-0.2-0.5-0.3-0.8-0.4c-0.3-0.1-0.6-0.2-1-0.3
			c-0.4-0.1-0.8-0.1-1.2-0.1c-0.8,0-1.5,0.1-2.2,0.4c-0.7,0.3-1.2,0.6-1.7,1.1c-0.5,0.4-0.8,1-1.1,1.6c-0.2,0.6-0.4,1.3-0.4,2
			c0,0.7,0.1,1.4,0.4,2c0.3,0.6,0.6,1.2,1.1,1.6c0.5,0.5,1,0.8,1.6,1.1c0.6,0.3,1.3,0.4,2,0.4c0.4,0,0.8,0,1.1-0.1
			c0.4,0,0.7-0.1,1-0.2c0.3-0.1,0.6-0.2,0.9-0.3c0.3-0.1,0.5-0.3,0.8-0.5v-4.2H195v1.3c0,0.1,0,0.2,0.1,0.3c0.1,0.1,0.2,0.1,0.3,0.1
			h1v1.5c-0.2,0.1-0.4,0.2-0.7,0.2c-0.2,0.1-0.5,0.1-0.8,0.1C194.5,31.8,194.1,31.7,193.7,31.5 M201.8,23.5h-1.2v9.9h2v-5.3
			c0-0.1,0-0.3,0-0.5c0-0.2,0-0.3,0-0.5l4.7,5.9c0.1,0.1,0.2,0.2,0.4,0.3c0.1,0.1,0.3,0.1,0.4,0.1h1.2v-9.9h-2v5.3
			c0,0.2,0,0.3,0,0.5c0,0.2,0,0.4,0,0.6l-4.7-6c-0.1-0.1-0.1-0.1-0.2-0.2c-0.1,0-0.1-0.1-0.2-0.1c-0.1,0-0.1,0-0.2-0.1
			C202,23.5,201.9,23.5,201.8,23.5"/>
	</g>
	<g>
		<path d="M182.5,41.3l0.7-1.9c0-0.1,0.1-0.1,0.1-0.2c0-0.1,0-0.2,0.1-0.3c0.1,0.2,0.1,0.4,0.2,0.5l0.7,2H182.5z M183.7,38.1H183
			l-1.9,5h0.6c0.1,0,0.1,0,0.2-0.1c0,0,0.1-0.1,0.1-0.1l0.4-1.2h2.1l0.4,1.2c0,0.1,0,0.1,0.1,0.1c0,0,0.1,0.1,0.2,0.1h0.6
			L183.7,38.1z M188.6,40.7v0.4c0,0,0,0.1,0,0.1c0,0,0.1,0,0.1,0h0.7v1.1c-0.1,0-0.2,0.1-0.2,0.1c-0.1,0-0.2,0.1-0.2,0.1
			c-0.1,0-0.2,0-0.3,0.1c-0.1,0-0.2,0-0.3,0c-0.3,0-0.5,0-0.8-0.1c-0.2-0.1-0.4-0.2-0.6-0.4c-0.2-0.2-0.3-0.4-0.4-0.6
			c-0.1-0.2-0.1-0.5-0.1-0.8c0-0.3,0-0.6,0.1-0.8c0.1-0.2,0.2-0.4,0.3-0.6c0.2-0.2,0.3-0.3,0.6-0.4c0.2-0.1,0.5-0.1,0.7-0.1
			c0.2,0,0.3,0,0.5,0c0.1,0,0.2,0.1,0.3,0.1c0.1,0,0.2,0.1,0.3,0.1c0.1,0,0.1,0.1,0.2,0.1c0.1,0,0.1,0.1,0.2,0c0.1,0,0.1,0,0.1-0.1
			l0.2-0.3c-0.1-0.1-0.2-0.2-0.3-0.3c-0.1-0.1-0.3-0.1-0.4-0.2c-0.1-0.1-0.3-0.1-0.5-0.1c-0.2,0-0.3,0-0.5,0c-0.4,0-0.7,0.1-1,0.2
			s-0.6,0.3-0.8,0.5c-0.2,0.2-0.4,0.5-0.5,0.8c-0.1,0.3-0.2,0.7-0.2,1c0,0.4,0.1,0.7,0.2,1c0.1,0.3,0.3,0.6,0.5,0.8
			c0.2,0.2,0.5,0.4,0.8,0.5c0.3,0.1,0.7,0.2,1.1,0.2c0.3,0,0.6,0,0.9-0.1c0.3-0.1,0.5-0.2,0.8-0.4v-2H188.6z M191.8,42.6v-1.6h1.8
			v-0.6h-1.8v-1.6h2.3v-0.6h-3v5h3l0-0.6H191.8z M198.4,38.1v3.4c0,0.1,0,0.1,0,0.2c0,0.1,0,0.1,0,0.2l-2.8-3.7
			c0-0.1-0.1-0.1-0.1-0.1c0,0-0.1,0-0.1,0H195v5h0.6v-3.5c0-0.1,0-0.1,0-0.2c0-0.1,0-0.1,0-0.2l2.8,3.7c0,0,0.1,0.1,0.1,0.1
			c0,0,0.1,0,0.1,0h0.4v-5H198.4z M204.3,39.6c-0.1-0.3-0.3-0.6-0.5-0.8c-0.2-0.2-0.5-0.4-0.8-0.5c-0.3-0.1-0.6-0.2-1-0.2h-1.8v5
			h1.8c0.4,0,0.7-0.1,1-0.2c0.3-0.1,0.6-0.3,0.8-0.5c0.2-0.2,0.4-0.5,0.5-0.8c0.1-0.3,0.2-0.7,0.2-1S204.4,39.9,204.3,39.6
			 M203.6,41.4c-0.1,0.2-0.2,0.4-0.3,0.6c-0.1,0.2-0.3,0.3-0.5,0.4c-0.2,0.1-0.4,0.1-0.7,0.1H201v-3.8h1.1c0.3,0,0.5,0,0.7,0.1
			c0.2,0.1,0.4,0.2,0.5,0.4c0.1,0.2,0.3,0.4,0.3,0.6c0.1,0.2,0.1,0.5,0.1,0.8C203.7,40.9,203.7,41.2,203.6,41.4 M206.1,41.3l0.7-1.9
			c0-0.1,0.1-0.1,0.1-0.2c0-0.1,0.1-0.2,0.1-0.3c0.1,0.2,0.1,0.4,0.2,0.5l0.7,2H206.1z M207.3,38.1h-0.7l-1.9,5h0.6
			c0.1,0,0.1,0,0.2-0.1c0,0,0.1-0.1,0.1-0.1l0.4-1.2h2.2l0.4,1.2c0,0.1,0,0.1,0.1,0.1c0,0,0.1,0.1,0.2,0.1h0.6L207.3,38.1z"/>
	</g>
	<g>
		<path d="M187.5,8.5h-2.5l-4,10.3h1.9c0.2,0,0.4-0.1,0.5-0.2c0.1-0.1,0.2-0.2,0.3-0.4l0.6-1.8h3.9l0.6,1.8c0.1,0.2,0.1,0.3,0.3,0.4
			c0.1,0.1,0.3,0.1,0.5,0.1h1.9L187.5,8.5z M185.9,12.1c0.1-0.2,0.1-0.4,0.2-0.6c0.1-0.2,0.2-0.5,0.2-0.8c0.1,0.3,0.2,0.5,0.2,0.8
			c0.1,0.2,0.2,0.5,0.2,0.6l1,2.8h-2.8L185.9,12.1z M196,15.4c0.7,0,1.3-0.1,1.9-0.3c0.5-0.2,1-0.4,1.3-0.7c0.3-0.3,0.6-0.7,0.8-1.1
			c0.2-0.4,0.2-0.9,0.2-1.4c0-0.5-0.1-0.9-0.2-1.3c-0.2-0.4-0.4-0.8-0.8-1.1c-0.3-0.3-0.8-0.5-1.3-0.7c-0.5-0.2-1.1-0.3-1.9-0.3
			h-3.7v10.3h2.4v-3.5H196z M194.8,10.3h1.2c0.3,0,0.6,0,0.8,0.1c0.2,0.1,0.4,0.2,0.5,0.3c0.1,0.1,0.2,0.3,0.3,0.5
			c0.1,0.2,0.1,0.4,0.1,0.6c0,0.5-0.1,1-0.4,1.2c-0.3,0.3-0.7,0.4-1.3,0.4h-1.2V10.3z M205.1,15.4c0.7,0,1.3-0.1,1.9-0.3
			c0.5-0.2,1-0.4,1.3-0.7c0.3-0.3,0.6-0.7,0.8-1.1c0.2-0.4,0.2-0.9,0.2-1.4c0-0.5-0.1-0.9-0.2-1.3c-0.2-0.4-0.4-0.8-0.7-1.1
			c-0.3-0.3-0.8-0.5-1.3-0.7c-0.5-0.2-1.1-0.3-1.9-0.3h-3.6v10.3h2.4v-3.5H205.1z M203.8,10.3h1.2c0.3,0,0.6,0,0.8,0.1
			c0.2,0.1,0.4,0.2,0.5,0.3c0.1,0.1,0.3,0.3,0.3,0.5c0.1,0.2,0.1,0.4,0.1,0.6c0,0.5-0.1,1-0.4,1.2c-0.3,0.3-0.7,0.4-1.3,0.4h-1.2
			V10.3z"/>
	</g>
</g>
</svg>
