<svg width="191" height="27" viewBox="0 0 191 27" fill="none" xmlns="http://www.w3.org/2000/svg">
<path d="M183.833 16.6325C183.018 16.6325 182.823 16.8583 182.823 17.1218C182.823 17.3037 182.955 17.4417 183.194 17.4417C183.57 17.4417 183.833 17.103 183.833 16.7391V16.6388V16.6325ZM183.94 18.2196C183.94 18.044 183.94 17.8495 183.971 17.6613C183.783 18.0503 183.344 18.3012 182.836 18.3012C182.127 18.3012 181.757 17.8872 181.757 17.2912C181.757 16.3565 182.667 15.9111 183.84 15.9111V15.7668C183.84 15.4657 183.67 15.3151 183.181 15.3151C182.855 15.3151 182.409 15.4217 182.102 15.5786L182.014 14.6439C182.397 14.5247 182.892 14.4306 183.35 14.4306C184.624 14.4306 184.981 14.9011 184.981 15.748V17.3351C184.981 17.5986 184.988 17.9185 185.013 18.2071H183.953L183.94 18.2196ZM179.931 18.2196V15.8797C179.931 15.5849 179.85 15.4029 179.593 15.4029C179.191 15.4029 178.859 15.8922 178.859 16.438V18.2259H177.73V14.5435H178.783C178.783 14.6752 178.783 14.945 178.74 15.1206C178.978 14.7442 179.386 14.4619 179.975 14.4619C180.803 14.4619 181.067 14.9889 181.067 15.6225V18.2259H179.938L179.931 18.2196ZM175.22 15.4155C174.863 15.4155 174.511 15.6915 174.511 16.3376C174.511 16.9838 174.725 17.3226 175.195 17.3226C175.603 17.3226 175.885 16.9838 175.885 16.3627C175.885 15.7417 175.684 15.4155 175.214 15.4155M175.114 18.3012C174.041 18.3012 173.338 17.7742 173.338 16.4631C173.338 15.2649 174.166 14.4557 175.295 14.4557C176.425 14.4557 177.065 15.0767 177.065 16.3C177.065 17.5233 176.23 18.3012 175.12 18.3012M171.03 15.2586C170.666 15.2586 170.44 15.4845 170.44 15.7919C170.44 16.0993 170.647 16.3314 171.042 16.3314C171.387 16.3314 171.613 16.1244 171.613 15.7981C171.613 15.4719 171.387 15.2586 171.023 15.2586M171.375 18.3263H170.791C170.747 18.3263 170.685 18.3263 170.647 18.3137C170.484 18.4267 170.402 18.5835 170.402 18.7466C170.402 19.0289 170.641 19.2045 171.055 19.2045C171.582 19.2045 171.851 18.9787 171.851 18.7027C171.851 18.4957 171.72 18.3263 171.375 18.3263ZM170.892 20.0577C169.888 20.0577 169.286 19.7001 169.286 18.9662C169.286 18.6149 169.53 18.2636 169.813 18.113C169.599 18.0001 169.455 17.7993 169.455 17.5421C169.455 17.2598 169.643 16.9713 169.9 16.8834C169.543 16.7078 169.361 16.3188 169.361 15.8734C169.361 15.0955 169.944 14.4368 171.067 14.4368C171.324 14.4368 171.55 14.4745 171.757 14.5247H172.999V15.4155H172.598C172.648 15.4908 172.698 15.6037 172.698 15.7605C172.698 16.576 172.102 17.0779 171.099 17.0779C170.992 17.0779 170.885 17.0716 170.804 17.0654C170.703 17.103 170.672 17.1845 170.672 17.2473C170.672 17.3978 170.772 17.4417 171.199 17.4417H171.701C172.498 17.4417 172.968 17.7993 172.968 18.5396C172.968 19.3488 172.184 20.0514 170.904 20.0514M167.466 16.6199C166.651 16.6199 166.456 16.8458 166.456 17.1093C166.456 17.2912 166.594 17.4292 166.827 17.4292C167.203 17.4292 167.466 17.0904 167.466 16.7266V16.6262V16.6199ZM167.573 18.2071C167.573 18.0314 167.573 17.837 167.604 17.6488C167.416 18.0377 166.977 18.2886 166.469 18.2886C165.76 18.2886 165.39 17.8746 165.39 17.2786C165.39 16.3439 166.293 15.8985 167.473 15.8985V15.7542C167.473 15.4531 167.303 15.3026 166.814 15.3026C166.488 15.3026 166.042 15.4092 165.735 15.566L165.647 14.6313C166.024 14.5121 166.525 14.418 166.983 14.418C168.257 14.418 168.614 14.8885 168.614 15.7354V17.3226C168.614 17.586 168.621 17.906 168.646 18.1945H167.586L167.573 18.2071ZM165.133 15.5535C164.518 15.4155 164.192 15.7731 164.192 16.689V18.2071H163.063V14.5247H164.116C164.116 14.6815 164.104 14.945 164.066 15.1771C164.273 14.738 164.625 14.3992 165.189 14.4368L165.139 15.5598L165.133 15.5535ZM162.479 15.5535C161.858 15.4155 161.532 15.7731 161.532 16.689V18.2071H160.403V14.5247H161.457C161.457 14.6815 161.444 14.945 161.406 15.1771C161.613 14.738 161.965 14.3992 162.529 14.4368L162.479 15.5598V15.5535ZM158.37 16.6199C157.555 16.6199 157.36 16.8458 157.36 17.1093C157.36 17.2912 157.492 17.4292 157.73 17.4292C158.107 17.4292 158.37 17.0904 158.37 16.7266V16.6262V16.6199ZM158.477 18.2071C158.477 18.0314 158.477 17.837 158.508 17.6488C158.32 18.0377 157.881 18.2886 157.373 18.2886C156.664 18.2886 156.294 17.8746 156.294 17.2786C156.294 16.3439 157.197 15.8985 158.376 15.8985V15.7542C158.376 15.4531 158.207 15.3026 157.718 15.3026C157.391 15.3026 156.946 15.4092 156.639 15.566L156.551 14.6313C156.927 14.5121 157.429 14.418 157.887 14.418C159.161 14.418 159.518 14.8885 159.518 15.7354V17.3226C159.518 17.586 159.524 17.906 159.549 18.1945H158.489L158.477 18.2071ZM155.139 14.1859V18.2071H153.985V14.1859H152.781V13.201H156.344V14.1859H155.139ZM149.594 15.4029C149.236 15.4029 148.885 15.679 148.885 16.3251C148.885 16.9713 149.104 17.31 149.569 17.31C149.976 17.31 150.259 16.9713 150.259 16.3502C150.259 15.7291 150.058 15.4029 149.587 15.4029M149.242 14.0918L148.879 13.4394L150.328 12.6301L150.767 13.408L149.242 14.0918ZM149.481 18.2886C148.408 18.2886 147.706 17.7617 147.706 16.4506C147.706 15.2524 148.534 14.4431 149.663 14.4431C150.792 14.4431 151.432 15.0642 151.432 16.2875C151.432 17.5108 150.597 18.2886 149.481 18.2886ZM147.041 18.2071H145.911V14.5247H147.041V18.2071ZM146.476 14.1357C146.1 14.1357 145.786 13.8409 145.786 13.4708C145.786 13.1006 146.1 12.8058 146.476 12.8058C146.852 12.8058 147.172 13.1006 147.172 13.4708C147.172 13.8409 146.859 14.1357 146.476 14.1357ZM144.274 18.2824C143.151 18.2824 142.58 17.6676 142.58 16.4819C142.58 15.3716 143.176 14.4431 144.531 14.4431C144.77 14.4431 145.014 14.4808 145.246 14.5435L145.127 15.5221C144.939 15.4657 144.751 15.4217 144.544 15.4217C144.023 15.4217 143.766 15.7919 143.766 16.4004C143.766 16.965 144.017 17.31 144.531 17.31C144.745 17.31 144.977 17.2661 145.152 17.1783L145.24 18.1318C144.989 18.2259 144.632 18.2886 144.274 18.2886M140.761 16.6262C139.939 16.6262 139.751 16.8521 139.751 17.1155C139.751 17.2975 139.883 17.4355 140.121 17.4355C140.504 17.4355 140.761 17.0967 140.761 16.7329V16.6325V16.6262ZM140.868 18.2134C140.868 18.0377 140.868 17.8432 140.899 17.655C140.717 18.044 140.278 18.2949 139.764 18.2949C139.055 18.2949 138.685 17.8809 138.685 17.2849C138.685 16.3502 139.594 15.9048 140.767 15.9048V15.7605C140.767 15.4594 140.598 15.3088 140.102 15.3088C139.776 15.3088 139.331 15.4155 139.023 15.5723L138.935 14.6376C139.312 14.5184 139.814 14.4243 140.272 14.4243C141.539 14.4243 141.896 14.8948 141.896 15.7417V17.3288C141.896 17.5923 141.903 17.9122 141.928 18.2008H140.868V18.2134ZM137.38 18.2949C136.526 18.2949 136.25 18.0126 136.25 17.1093V15.3967H135.692V14.5309H136.25V13.4394L137.38 13.1383V14.5309H138.183V15.3967H137.386V16.8521C137.386 17.2285 137.48 17.3539 137.762 17.3539C137.894 17.3539 138.063 17.3226 138.176 17.2912V18.1883C137.932 18.2447 137.643 18.2949 137.373 18.2949M134.136 18.2134C134.136 18.0816 134.143 17.8119 134.18 17.6362C133.942 18.0126 133.534 18.2949 132.944 18.2949C132.116 18.2949 131.847 17.768 131.847 17.1344V14.5309H132.982V16.8772C132.982 17.172 133.064 17.3477 133.321 17.3477C133.722 17.3477 134.049 16.8583 134.049 16.3188V14.5309H135.184V18.2134H134.13H134.136ZM129.475 15.3841C129.086 15.3841 128.823 15.8295 128.823 16.4443V17.3477C128.942 17.379 129.061 17.3916 129.218 17.3916C129.657 17.3916 129.983 17.1093 129.983 16.2875C129.983 15.6727 129.82 15.3841 129.475 15.3841ZM129.199 18.2761C129.055 18.2761 128.942 18.2698 128.823 18.2447V19.9699H127.694V14.5309H128.735C128.735 14.6878 128.729 14.8697 128.704 15.0579C128.93 14.6752 129.293 14.4494 129.833 14.4494C130.711 14.4494 131.182 15.1018 131.182 16.1683C131.182 17.4292 130.542 18.2761 129.206 18.2761M126.803 18.2196H125.674V14.5372H126.803V18.2196ZM126.238 14.1483C125.862 14.1483 125.548 13.8534 125.548 13.4833C125.548 13.1132 125.862 12.8183 126.238 12.8183C126.615 12.8183 126.941 13.1132 126.941 13.4833C126.941 13.8534 126.627 14.1483 126.238 14.1483ZM122.405 14.1608C122.211 14.1608 122.054 14.1608 121.929 14.1734V17.2347C122.023 17.2536 122.179 17.2661 122.361 17.2661C123.158 17.2661 123.754 16.7768 123.754 15.7103C123.754 14.7693 123.447 14.1608 122.405 14.1608ZM122.255 18.2573C121.728 18.2573 121.232 18.2322 120.768 18.2134V13.2324C121.163 13.2073 121.803 13.1885 122.474 13.1885C123.986 13.1885 124.99 13.8409 124.99 15.6225C124.99 17.4041 123.886 18.2636 122.248 18.2636M110.825 19.7629H110.229V20.5596H109.332V19.7629H108.736V19.1606H110.825V19.7629ZM104.232 16.3314L109.783 10.7732L115.342 16.3314L109.783 21.8895L104.244 16.3251L104.232 16.3314ZM109.796 9.02926L102.5 16.3251L109.796 23.6209L117.092 16.3251L109.796 9.02926ZM110.787 15.3339C111.12 15.6664 111.672 15.6664 112.01 15.3339C112.343 14.9952 112.343 14.4494 112.01 14.1106C111.672 13.7719 111.126 13.7719 110.787 14.1106C110.448 14.4431 110.448 14.9952 110.787 15.3339ZM108.805 17.3226C108.466 16.9838 107.92 16.9838 107.581 17.3226C107.243 17.6613 107.243 18.2071 107.581 18.5459C107.92 18.8783 108.466 18.8783 108.805 18.5459C109.144 18.2071 109.144 17.6613 108.805 17.3226ZM112.989 17.1971C113.472 17.1971 113.855 16.8144 113.855 16.3314C113.855 15.8483 113.472 15.4657 112.989 15.4657C112.506 15.4657 112.123 15.8483 112.123 16.3314C112.123 16.8144 112.512 17.1971 112.989 17.1971ZM106.609 15.4719C106.132 15.4719 105.743 15.8546 105.743 16.3376C105.743 16.8207 106.126 17.2034 106.609 17.2034C107.092 17.2034 107.475 16.8207 107.475 16.3376C107.475 15.8546 107.086 15.4719 106.609 15.4719ZM110.787 17.3226C110.448 17.6613 110.448 18.2071 110.787 18.5459C111.12 18.8783 111.672 18.8783 112.01 18.5459C112.349 18.2071 112.349 17.6613 112.01 17.3226C111.672 16.9838 111.126 16.9838 110.787 17.3226ZM108.805 15.3527C109.144 15.014 109.144 14.4682 108.805 14.1294C108.466 13.797 107.92 13.797 107.581 14.1294C107.243 14.4682 107.243 15.014 107.581 15.3527C107.92 15.6852 108.466 15.6852 108.805 15.3527ZM108.924 13.1508C108.924 13.6276 109.313 14.0165 109.79 14.0165C110.266 14.0165 110.655 13.6276 110.655 13.1508C110.655 12.674 110.266 12.2851 109.79 12.2851C109.313 12.2851 108.924 12.674 108.924 13.1508ZM109.79 17.2034C110.266 17.2034 110.655 16.8207 110.655 16.3376C110.655 15.8546 110.266 15.4719 109.79 15.4719C109.313 15.4719 108.924 15.8546 108.924 16.3376C108.924 16.8207 109.313 17.2034 109.79 17.2034ZM105.279 6.43211C105.756 6.43211 106.145 6.04317 106.145 5.5664C106.145 5.08963 105.756 4.70068 105.279 4.70068C104.802 4.70068 104.42 5.08963 104.42 5.5664C104.42 6.04317 104.802 6.43211 105.279 6.43211ZM107.531 6.43211C108.008 6.43211 108.397 6.04317 108.397 5.5664C108.397 5.08963 108.008 4.70068 107.531 4.70068C107.055 4.70068 106.672 5.08963 106.672 5.5664C106.672 6.04317 107.055 6.43211 107.531 6.43211ZM114.294 6.43211C114.771 6.43211 115.153 6.04317 115.153 5.5664C115.153 5.08963 114.771 4.70068 114.294 4.70068C113.817 4.70068 113.428 5.08963 113.428 5.5664C113.428 6.04317 113.817 6.43211 114.294 6.43211ZM112.042 6.43211C112.519 6.43211 112.901 6.04317 112.901 5.5664C112.901 5.08963 112.512 4.70068 112.042 4.70068C111.571 4.70068 111.176 5.08963 111.176 5.5664C111.176 6.04317 111.565 6.43211 112.042 6.43211ZM109.79 6.43211C110.266 6.43211 110.655 6.04317 110.655 5.5664C110.655 5.08963 110.266 4.70068 109.79 4.70068C109.313 4.70068 108.924 5.08963 108.924 5.5664C108.924 6.04317 109.313 6.43211 109.79 6.43211ZM106.151 6.95907H113.428V8.19491H106.151V6.95907Z" fill="black"/>
<path fill-rule="evenodd" clip-rule="evenodd" d="M46.6946 22.8293V18.9577H47.8658V18.5665H45.0982V18.9577H46.2627V22.8293H46.6946ZM49.1913 18.5666L47.7821 22.8293H48.2349L48.6767 21.4984H50.12L50.2412 21.8454L50.3459 22.1638L50.4506 22.4833L50.5718 22.8293H51.0312L50.0308 19.7718L49.6386 18.5665L49.1913 18.5666ZM48.81 21.0753L49.3906 19.2596L49.4116 19.0779L49.4348 19.2596L50.0088 21.0753H48.81ZM54.2792 22.4261C54.2345 22.4475 54.1857 22.4591 54.136 22.4602C54.0316 22.455 53.9383 22.3934 53.8926 22.2994C53.8452 22.2244 53.7978 22.1385 53.7493 22.0438L53.4783 21.4918C53.4232 21.3849 53.3692 21.2913 53.3174 21.2076C53.2768 21.1416 53.2292 21.0803 53.1753 21.0247C53.4594 20.981 53.715 20.8275 53.887 20.5972C54.2607 20.099 54.2378 19.408 53.832 18.9357C53.6231 18.6902 53.3146 18.5522 52.9924 18.56H51.5557V22.8294H51.9865V21.0753H52.523C52.6779 21.0941 52.8159 21.1825 52.8976 21.3155C52.9541 21.3886 53.0042 21.4663 53.0475 21.548L53.1753 21.8047L53.2689 21.9975L53.3571 22.198C53.4133 22.3208 53.4796 22.4388 53.5554 22.5506C53.673 22.7412 53.8791 22.8593 54.103 22.8646L54.2461 22.8414L54.2792 22.4261ZM51.9864 18.9818H52.9923C53.1978 18.978 53.3935 19.0696 53.5223 19.2297C53.6542 19.3882 53.7246 19.5888 53.7206 19.7949C53.7258 20.0128 53.6514 20.2252 53.5113 20.3921C53.3762 20.5614 53.1703 20.6586 52.9538 20.6554H51.9864L51.9864 18.9818ZM57.8148 22.4261C57.77 22.4475 57.7212 22.4591 57.6716 22.4602C57.5672 22.4547 57.4741 22.3932 57.4281 22.2994C57.3807 22.2245 57.3323 22.1385 57.2849 22.0438L57.0138 21.4918C56.9588 21.385 56.9048 21.2913 56.8541 21.2076C56.8128 21.1418 56.7648 21.0805 56.7109 21.0247C56.9949 20.9807 57.2504 20.8273 57.4226 20.5972C57.7964 20.099 57.7734 19.408 57.3676 18.9357C57.1588 18.6901 56.8502 18.552 56.528 18.56H55.0913V22.8294H55.5221V21.0754H56.0587C56.2139 21.0941 56.3522 21.1825 56.4344 21.3155C56.4901 21.3889 56.5398 21.4666 56.5831 21.548L56.7109 21.8047L56.8046 21.9975L56.8927 22.1981C56.9499 22.3204 57.0162 22.4383 57.0911 22.5506C57.2087 22.7412 57.4148 22.8593 57.6386 22.8646L57.7819 22.8415L57.8148 22.4261ZM55.522 18.9818H56.5279C56.7334 18.978 56.9291 19.0696 57.0579 19.2297C57.1897 19.3883 57.2604 19.5888 57.2573 19.7949C57.2626 20.013 57.1878 20.2255 57.0469 20.3921C56.9117 20.5612 56.7059 20.6584 56.4894 20.6554H55.5221L55.522 18.9818ZM59.506 18.5666L58.0968 22.8293H58.5497L58.9915 21.4984H60.4337L60.5549 21.8454L60.6606 22.1638L60.7653 22.4833L60.8865 22.8293H61.3448L60.3444 19.7718L59.9533 18.5665L59.506 18.5666ZM59.1248 21.0753L59.7043 19.2596L59.7264 19.0779L59.7484 19.2596L60.3235 21.0753H59.1248ZM63.274 22.8989C63.6389 22.91 63.9929 22.7743 64.2568 22.5221C64.5186 22.283 64.6641 21.9423 64.6557 21.5878V20.6149H63.1517L63.2068 21.0248H64.2237V21.5779C64.233 21.844 64.1192 22.0996 63.9152 22.2708C63.7359 22.4217 63.5083 22.5031 63.274 22.5C62.9915 22.5065 62.7206 22.3879 62.5336 22.1761C62.307 21.8992 62.1925 21.5473 62.213 21.19V20.2281C62.1969 19.8884 62.3006 19.5539 62.5061 19.2829C62.6845 19.0578 62.9582 18.9293 63.2453 18.9358C63.6413 18.9236 64.0221 19.0884 64.2844 19.3853L64.5389 19.0261C64.1899 18.6969 63.7249 18.5191 63.2454 18.5315C62.8396 18.5217 62.4515 18.6973 62.191 19.0085C61.903 19.3481 61.7529 19.7833 61.7701 20.2282V21.1901C61.7523 21.6364 61.9025 22.0731 62.191 22.4141C62.4595 22.732 62.8581 22.9104 63.274 22.8989V22.8989ZM65.3895 21.1325C65.3665 21.6016 65.5224 22.0619 65.8258 22.4204C66.112 22.7186 66.5079 22.8867 66.9212 22.8854C67.3346 22.8841 67.7294 22.7137 68.0139 22.4138C68.32 22.0549 68.4776 21.5926 68.4546 21.1215V20.2841C68.4783 19.8089 68.3185 19.3427 68.0083 18.9818C67.7257 18.6763 67.3248 18.508 66.9088 18.5202C66.4971 18.5057 66.1003 18.6748 65.8257 18.9818C65.5199 19.3449 65.3621 19.8099 65.3839 20.2841L65.3895 21.1325ZM65.8323 20.3194C65.8145 19.9669 65.909 19.6178 66.1023 19.3224C66.2869 19.0593 66.5932 18.9089 66.9143 18.9236C67.2401 18.908 67.5517 19.058 67.7428 19.3224C67.9283 19.6123 68.0191 19.9526 68.0028 20.2964V21.1095C68.0201 21.4534 67.9291 21.794 67.7428 22.0835C67.5576 22.3453 67.251 22.4938 66.9308 22.4768C66.6075 22.4938 66.2976 22.3457 66.1078 22.0835C65.9092 21.7932 65.8123 21.4453 65.8324 21.0941L65.8323 20.3194ZM71.5219 18.5665V21.9809L69.6324 18.5665H69.185V22.8293H69.6158V19.3852L71.5164 22.8293H71.9527V18.5665H71.5219ZM73.9579 18.5666L72.5499 22.8293H73.0027L73.4445 21.4984H74.8856L75.0079 21.8454L75.1126 22.1638L75.2184 22.4833L75.3396 22.8293H75.7979L74.7975 19.7718L74.4053 18.5665L73.9579 18.5666ZM73.5767 21.0753L74.1563 19.2596L74.1783 19.0779L74.2003 19.2596L74.7755 21.0753H73.5767ZM47.7931 12.6467C47.5428 12.3558 47.1764 12.1907 46.7927 12.1961H45.4067V16.4666H46.7927C47.1726 16.4726 47.5369 16.3153 47.7931 16.0347C48.0818 15.676 48.2295 15.2242 48.2085 14.7643V13.9281C48.23 13.4648 48.0824 13.0093 47.7931 12.6467V12.6467ZM47.76 14.7644C47.7656 15.0869 47.6854 15.4052 47.5276 15.6866C47.36 15.9304 47.0769 16.0684 46.7817 16.0501H45.8319V12.6181H46.7817C47.0797 12.6004 47.3644 12.7438 47.5276 12.9938C47.6853 13.2796 47.7655 13.6017 47.76 13.9281V14.7644ZM49.6496 12.5211C49.6496 12.1939 49.5152 12.0319 49.2463 12.0319C49.0183 12.0319 48.9037 12.1322 48.9037 12.3327C48.9037 12.4924 48.9775 12.5728 49.1251 12.5728C49.2078 12.7414 49.1857 12.8306 49.1417 12.8912C49.0424 12.9996 48.922 13.0865 48.788 13.1468L49.0314 13.4597C49.2267 13.3561 49.395 13.2082 49.5228 13.0278C49.612 12.8742 49.6559 12.6985 49.6495 12.521L49.6496 12.5211ZM51.2691 12.1895L49.86 16.4665H50.7204L51.0972 15.3162H52.307L52.4392 15.7558L52.5395 16.0786L52.6551 16.4664H53.5167L52.1252 12.1894L51.2691 12.1895ZM51.2626 14.6332L51.6658 13.267L51.7 12.9199L51.7319 13.267L52.1252 14.6332H51.2626ZM57.0083 15.6985C56.821 15.7139 56.7604 15.6985 56.7042 15.6633C56.6229 15.6043 56.5571 15.5264 56.5125 15.4363L56.4288 15.2887L56.345 15.1333C56.2945 15.0359 56.2253 14.9494 56.1412 14.8788L56.2789 14.805C56.7064 14.5635 56.9657 14.1059 56.9532 13.6151C56.9623 13.2475 56.8297 12.8905 56.583 12.6179C56.3403 12.339 55.9864 12.1821 55.6168 12.1894H53.9641V16.4664H54.7761V15.0309H55.1188C55.218 15.0344 55.3117 15.0776 55.3788 15.151C55.4651 15.2322 55.538 15.3267 55.5947 15.4308L55.6939 15.606L55.7887 15.7823C55.841 15.8944 55.9037 16.0013 55.976 16.1017C56.1252 16.351 56.3878 16.5106 56.6778 16.5282C56.7914 16.5272 56.9037 16.504 57.0083 16.4599L57.0083 15.6985ZM54.7761 12.9475H55.522C55.6948 12.9444 55.8597 13.0197 55.9704 13.1524C56.0771 13.2827 56.1337 13.4468 56.1302 13.6152C56.135 13.7837 56.0759 13.9478 55.9649 14.0746C55.8451 14.215 55.6678 14.2929 55.4834 14.2861H54.7761L54.7761 12.9475ZM59.1192 16.4664V12.9474H60.2574V12.1894H57.2241V12.9474H58.3061V16.4664H59.1192ZM62.8201 16.4666V13.3464L62.0081 13.4599V16.4666H62.8201ZM62.44 12.9595C62.5641 12.9714 62.6868 12.9256 62.7729 12.8353C62.8589 12.745 62.8986 12.6201 62.8807 12.4967C62.8987 12.3719 62.8581 12.2458 62.7707 12.1549C62.6833 12.064 62.5588 12.0186 62.4334 12.0318C62.0984 12.0318 61.9475 12.186 61.9475 12.4967C61.9281 12.6226 61.9692 12.7503 62.0582 12.8413C62.1473 12.9323 62.2741 12.9761 62.4003 12.9595H62.44ZM64.9355 16.4666H66.522C66.9817 16.481 67.4207 16.2756 67.7043 15.9136C67.9907 15.5475 68.1393 15.0924 68.124 14.6278V14.121C68.1451 13.6318 67.999 13.15 67.7098 12.7548C67.4309 12.3856 66.9901 12.1749 66.5276 12.1896H64.9356L64.9355 16.4666ZM65.7541 12.9476H66.5C66.7424 12.9297 66.9737 13.0516 67.0961 13.2616C67.2186 13.5316 67.2827 13.8244 67.2845 14.1209V14.6277C67.2966 14.8898 67.2351 15.1501 67.1071 15.3791C66.9833 15.5921 66.7517 15.7189 66.5055 15.7085H65.7541V12.9476ZM69.5596 12.1894H68.741V16.4654H69.5596V12.1894ZM70.2229 16.0105C70.4151 16.1693 70.6362 16.2894 70.874 16.3642C71.1572 16.46 71.4543 16.508 71.7532 16.5063C72.0569 16.5115 72.3564 16.435 72.6203 16.2849C72.8731 16.1444 73.0615 15.9114 73.1459 15.6349C73.185 15.5077 73.2054 15.3756 73.2065 15.2426C73.2081 14.8593 72.992 14.5082 72.649 14.3369C72.5708 14.2962 72.4738 14.2477 72.3549 14.1959L72.0078 14.0593L71.3942 13.8423C71.1793 13.7955 71.0255 13.606 71.024 13.3861C71.0244 13.3401 71.0303 13.2942 71.0416 13.2495C71.0956 12.9763 71.295 12.8397 71.6376 12.8397C72.059 12.8546 72.4535 13.0501 72.7207 13.3762L73.1184 12.6469C72.7252 12.3452 72.2485 12.1721 71.7533 12.1511C71.4539 12.129 71.1537 12.1817 70.8796 12.3043C70.6196 12.4245 70.416 12.6403 70.3111 12.9069C70.25 13.0559 70.2182 13.2152 70.2174 13.3762C70.2184 13.524 70.2464 13.6704 70.3001 13.8081C70.3954 14.0838 70.6021 14.3068 70.8697 14.4229C71.0504 14.5022 71.22 14.5716 71.3776 14.6279L71.5979 14.7072L71.8469 14.7865C72.1709 14.8923 72.3339 15.062 72.3339 15.2934C72.3297 15.4659 72.2379 15.6245 72.0904 15.7142C71.9582 15.7731 71.8142 15.8006 71.6696 15.7947C71.4511 15.7887 71.2373 15.7306 71.046 15.625C70.8427 15.5217 70.6595 15.3829 70.505 15.2151L70.2229 16.0105ZM73.6703 16.0105C73.8628 16.1695 74.0843 16.2896 74.3226 16.3642C74.6053 16.4601 74.9021 16.5081 75.2007 16.5063C75.5043 16.5115 75.8038 16.435 76.0678 16.2848C76.3205 16.1444 76.5089 15.9114 76.5933 15.6348C76.6319 15.5076 76.6523 15.3755 76.6539 15.2426C76.654 15.1239 76.6335 15.0061 76.5933 14.8944C76.5051 14.6515 76.3268 14.4519 76.0953 14.3369C76.0182 14.2962 75.9213 14.2477 75.8034 14.1959L75.4541 14.0593L74.8415 13.8423C74.6267 13.7955 74.4729 13.606 74.4713 13.3862C74.4719 13.3402 74.4774 13.2943 74.4879 13.2495C74.5429 12.9763 74.742 12.8397 75.085 12.8397C75.5064 12.8546 75.9009 13.0501 76.1681 13.3762L76.5647 12.6469C76.1721 12.3449 75.6956 12.1717 75.2007 12.1511C74.9016 12.129 74.6018 12.1817 74.3281 12.3043C74.0678 12.4244 73.8638 12.6403 73.7585 12.9069C73.6973 13.0559 73.6655 13.2152 73.6648 13.3762C73.6657 13.524 73.6937 13.6704 73.7474 13.8081C73.8428 14.0838 74.0494 14.3068 74.317 14.4229C74.4966 14.5022 74.6674 14.5717 74.825 14.6279L75.0453 14.7072L75.2943 14.7865C75.6193 14.8923 75.7802 15.062 75.7802 15.2934C75.7763 15.4658 75.685 15.6244 75.5378 15.7142C75.406 15.7731 75.2623 15.8007 75.118 15.7947C74.8992 15.7892 74.6849 15.731 74.4933 15.625C74.29 15.5217 74.1068 15.3829 73.9524 15.2151L73.6703 16.0105ZM79.9581 16.4665L79.8534 15.7085H78.1512V14.6728H79.7256V13.9511H78.1512V12.9474H79.914V12.1894H77.3336V16.4664L79.9581 16.4665ZM82.8139 12.1895V15.0243L82.7643 14.7587L81.1998 12.1894H80.4495V16.4664H81.2659V13.5798L81.3166 13.8586L82.8855 16.4664H83.6248V12.1894L82.8139 12.1895ZM86.4651 12.1894L86.2778 12.6125L85.7093 13.83C85.6555 13.9839 85.6254 14.1451 85.6201 14.3081C85.6177 14.1853 85.6007 14.0633 85.5694 13.9445L84.775 12.1895H83.8848L85.1066 14.6673C85.1765 14.8227 85.2104 14.9918 85.2058 15.162V16.4665H86.0343V15.162C86.0301 14.9917 86.0644 14.8226 86.1346 14.6673L86.388 14.1374L87.2 12.4969L87.3543 12.1895L86.4651 12.1894ZM45.4959 10.1026H47.8768L47.8218 9.67071H45.9212V8.18447H47.673V7.75809H45.9212V6.26629H47.8438V5.8388H45.496L45.4959 10.1026ZM48.8045 9.9153C48.9876 9.98737 49.1763 10.0445 49.3686 10.0861C49.5859 10.1393 49.8083 10.1682 50.0319 10.1721C50.3294 10.1808 50.6235 10.108 50.8825 9.96158C51.1259 9.81949 51.2982 9.58158 51.3574 9.30607C51.3788 9.205 51.3899 9.102 51.3904 8.99868C51.3927 8.83273 51.3549 8.66869 51.2802 8.52046C51.159 8.30167 50.9682 8.12954 50.7382 8.03128C50.6093 7.97064 50.4363 7.89907 50.2192 7.81974L49.9427 7.72384L49.6893 7.64451C49.3748 7.59098 49.1442 7.31903 49.1429 6.99993C49.1428 6.9275 49.1517 6.85534 49.1693 6.78509C49.2107 6.60966 49.3201 6.45786 49.4734 6.36311C49.6335 6.26016 49.8186 6.20266 50.0089 6.19674C50.2262 6.19265 50.4427 6.22353 50.6501 6.28819C50.8327 6.34445 51.0045 6.43126 51.158 6.54495L51.1911 6.08987C50.8708 5.89335 50.5002 5.79419 50.1246 5.80447C49.813 5.79518 49.5044 5.86814 49.2299 6.01601C48.9738 6.15938 48.7955 6.41009 48.7441 6.69911C48.723 6.80582 48.712 6.91426 48.711 7.02303C48.7093 7.52369 49.0643 7.95462 49.5561 8.04882L49.794 8.12149L50.0034 8.18429C50.162 8.23387 50.2987 8.28125 50.4121 8.32638C50.7273 8.40407 50.9502 8.6849 50.9542 9.00947C50.9626 9.24278 50.8575 9.46571 50.6722 9.60769C50.5077 9.71359 50.3158 9.76911 50.1202 9.76745C49.6776 9.77512 49.2416 9.66076 48.8597 9.43692L48.8045 9.9153ZM54.0589 9.98814C54.2458 9.91224 54.4192 9.80657 54.5723 9.67524L54.3453 9.30064C54.1065 9.57826 53.7563 9.73497 53.3901 9.72813C53.1069 9.73468 52.8348 9.61814 52.6442 9.40866C52.4144 9.13836 52.2976 8.78992 52.3181 8.43575V7.54222C52.2991 7.18606 52.4112 6.83528 52.6332 6.55613C52.8083 6.34365 53.0707 6.22244 53.346 6.22675C53.6856 6.22398 54.0122 6.3573 54.2528 6.59694L54.5282 6.27188C54.21 5.97014 53.7843 5.80827 53.346 5.82235C52.9615 5.81449 52.5926 5.97457 52.3357 6.26081C52.0246 6.61297 51.8636 7.0729 51.8873 7.54222V8.43571C51.8721 8.87256 52.0136 9.30046 52.2861 9.64219C52.5321 9.95821 52.9126 10.1399 53.313 10.1325C53.5685 10.1322 53.8217 10.0833 54.0589 9.98814V9.98814ZM54.9865 8.4061C54.9632 8.8749 55.1192 9.33502 55.4228 9.69296C55.7084 9.99224 56.1044 10.1611 56.5181 10.1601C56.9318 10.159 57.3269 9.98816 57.6109 9.68745C57.9169 9.32879 58.0749 8.8671 58.0528 8.39618V7.55884C58.0768 7.08301 57.9166 6.61621 57.6054 6.25544C57.3231 5.95015 56.9226 5.78183 56.507 5.7938C56.095 5.77927 55.6979 5.94838 55.4228 6.25544C55.1174 6.61919 54.9598 7.08436 54.981 7.55884L54.9865 8.4061ZM55.4284 7.59306C55.4106 7.24054 55.506 6.89158 55.7005 6.59706C55.8846 6.33376 56.1905 6.18286 56.5114 6.19707C56.8377 6.18214 57.1496 6.33249 57.3411 6.59706C57.5261 6.88667 57.6166 7.22664 57.6 7.56992V8.38404C57.6175 8.72777 57.527 9.06836 57.3411 9.35801C57.1544 9.61858 56.8481 9.76636 56.528 9.75024C56.2051 9.76644 55.8957 9.61901 55.705 9.35801C55.5066 9.06712 55.4094 8.71908 55.4284 8.36752L55.4284 7.59306ZM60.9703 10.1027L61.0419 9.68733H59.1292V5.8388H58.694V10.1027H60.9703ZM62.5502 5.83889L61.1411 10.1027H61.595L62.0357 8.7707H63.4779L63.5991 9.11886L63.7049 9.43727L63.8107 9.75674L63.9308 10.1027H64.3891L63.3898 7.04634L62.9976 5.8388L62.5502 5.83889ZM62.169 8.34984L62.7485 6.53412L62.7706 6.35123L62.7926 6.53412L63.3677 8.34984H62.169ZM5.6802 24.1381C3.89698 24.1101 2.47373 22.6425 2.50049 20.8593V7.97955C2.47371 6.1963 3.89697 4.72865 5.6802 4.70068H38.3003C40.0837 4.72856 41.5074 6.19608 41.4811 7.97955L41.4789 24.1381L5.6802 24.1381ZM26.6314 17.2632C25.987 17.5809 25.2683 17.7173 24.5524 17.6577H22.394V11.7334H21.474V11.1781H24.8002C25.4763 11.1325 26.1487 11.3102 26.714 11.6839C27.7926 12.4441 27.959 13.7486 27.959 14.4736C27.959 15.5842 27.5833 16.7124 26.6314 17.2633L26.6314 17.2632ZM20.8648 17.6586L20.3568 16.1778H17.9583L17.5518 17.6586H16.3982L18.2503 11.7355H17.3082V11.1779H19.7707L22.1758 17.6586L20.8648 17.6586ZM16.169 17.6586H11.9305V11.1779H16.115V12.1023H13.2284V13.9544H15.617V14.8788H13.2284V16.7298H16.169V17.6586ZM25.6883 12.3031C25.3401 12.1334 25.1473 12.1246 24.3342 12.1147H23.693V16.7311H24.2053C24.7143 16.774 25.2267 16.7206 25.7158 16.5736C26.183 16.3753 26.6766 15.9411 26.6766 14.4879C26.6766 13.8357 26.5851 12.768 25.6883 12.3031V12.3031ZM18.2094 15.2547L20.0406 15.2558L19.0214 12.2898L18.2094 15.2547ZM32.1942 12.1111H30.5393V17.6575H29.2415V12.1111H27.5756V11.1779H32.1942L32.1942 12.1111ZM40.2218 7.97952C40.2351 6.90062 39.3736 6.01402 38.2947 5.99633H5.68023C4.60331 6.01118 3.74218 6.89597 3.75654 7.97291L3.75544 20.8592C3.73959 21.937 4.59919 22.8242 5.67693 22.8424H40.2218L40.2218 7.97952Z" fill="black"/>
</svg>
