<?xml version="1.0" encoding="utf-8"?>
<!-- Generator: Adobe Illustrator 20.1.0, SVG Export Plug-In . SVG Version: 6.00 Build 0)  -->
<svg version="1.1" id="Capa_1" xmlns="http://www.w3.org/2000/svg" xmlns:xlink="http://www.w3.org/1999/xlink" x="0px" y="0px"
	 viewBox="0 0 1373.5 282.9" style="enable-background:new 0 0 1373.5 282.9;" xml:space="preserve">
<style type="text/css">
	.st0{fill:#1C1D1B;}
</style>
<g>
	<g>
		<path class="st0" d="M13.4,19.4h69.8V30H54.4v77.1H42.2V30H13.4V19.4z"/>
		<path class="st0" d="M94.2,19.4h11.4v12.7H94.2V19.4z M94.4,43.8h11v63.3h-11V43.8z"/>
		<path class="st0" d="M131.3,52.7h0.4c4.6-6.4,10.8-10.5,20-10.5c13.2,0,21.3,7.4,21.3,20.6v44.2h-10.8V64.2
			c0-8.1-5.3-12.7-13.9-12.7c-9.8,0-16.9,7-16.9,17.1v38.6h-11V43.8h10.8V52.7z"/>
		<path class="st0" d="M187.3,111.4h10.3c0.9,6.6,7.3,9.3,16.7,9.3c11.3,0,17.6-5.1,17.6-15.8v-1.8c0-3.7,0.1-7.1,0.2-9.1h-0.2
			c-4.4,6.3-9.9,10.1-18.9,10.1c-16.2,0-27.7-12.6-27.7-31c0-19.5,12.3-31,27.1-31c9.1,0,15.2,3.5,19.2,9.9h0.2v-8.4h10.8v60.7
			c0,8.4-2.8,14.6-7.7,18.7c-5,4.1-12,6-20.5,6C198,129.2,188.5,122.6,187.3,111.4z M232.6,72.8c0-13.3-6-21.5-18.6-21.5
			c-11.6,0-17.4,8.7-17.4,22c0,13.4,6.1,21.9,17.6,21.9C227.9,95.3,232.6,85.6,232.6,72.8z"/>
		<path class="st0" d="M258.3,19.4h11v87.7h-11V19.4z"/>
		<path class="st0" d="M282.1,90.3c0-14.7,10.8-17.9,27.2-19.9c9.3-1.1,15.3-2.6,15.3-9.1c0-6.8-4.8-11.1-13.6-11.1
			c-10,0-14.9,4.7-15.2,12.3h-10.6c0.5-10.7,8.6-20.3,25.7-20.3c6,0,11.3,1.1,15.3,3.4c5.3,3.2,8.5,8.7,8.5,17.2v29.6
			c0,5.1,1.2,7.8,6.7,6.6h0.5v7.7c-1.5,0.5-3.3,0.9-5.9,0.9c-6.7,0-10-3.2-11.2-9.9h-0.1c-4,5.5-10.5,10.6-21.2,10.6
			C291.6,108.4,282.1,102.5,282.1,90.3z M324.8,83.7V73.4c-3.2,2-8.7,3.5-13.9,4.5c-10.4,1.8-17.2,3.7-17.2,12.4
			c0,8.1,6.2,10.1,12.6,10.1C318.9,100.4,324.8,91,324.8,83.7z"/>
		<path class="st0" d="M347.6,75.6c0-20.9,12-33.4,27.7-33.4c9,0,16,4.5,20,11.2h0.2c-0.2-2.8-0.4-7.4-0.4-11.7V19.4h11v87.7h-10.8
			V98h-0.2c-4,6.8-10.7,11-19.6,11C358.4,109,347.6,96,347.6,75.6z M395.8,75.7c0-14.3-6.7-24.3-19.5-24.3
			c-11.7,0-17.6,10.4-17.6,24.3s5.9,24.2,17.6,24.2C389.9,99.9,395.8,89.6,395.8,75.7z"/>
		<path class="st0" d="M417.8,75.5c0-18.4,11.9-33.2,31-33.2s30.8,14.9,30.8,33.2c0,18.5-11.7,33.4-30.8,33.4S417.8,94,417.8,75.5z
			 M468.4,75.5c0-13.7-6.7-24.5-19.7-24.5c-13,0-19.7,10.8-19.7,24.5s6.7,24.4,19.7,24.4C461.7,99.9,468.4,89.2,468.4,75.5z"/>
		<path class="st0" d="M528.8,84c6.4-7.1,15.1-11.9,23.1-16.7c10.5-6,16.6-10.3,16.6-19.9c0-9.9-6.7-16.6-17.4-16.6
			c-5.7,0-9.8,1.8-12.9,5.2c-3.3,3.4-4.7,8-4.7,15.1h-11.7c0-9.4,2.7-16.2,7.8-21.3c5.2-5.5,13.2-8.4,22.4-8.4
			c17.2,0,28.3,11,28.3,25.8c0,15.6-10.3,21-22.9,28.2c-8.7,5.3-20.2,11.7-23.5,20.4l-0.2,0.9h45v10.5h-59
			C520.3,96.9,523.7,89.8,528.8,84z"/>
		<path class="st0" d="M16,210.2c0-27.1,13.1-43.9,33.1-43.9c20.2,0,33,16.5,33,43.9c0,26.8-12,44-33.1,44
			C28.3,254.2,16,237,16,210.2z M70.4,210.2c0-20.9-7-34.3-21.2-34.3c-14.4,0-21.5,13.2-21.5,34.3c0,20.9,7.1,34.3,21.5,34.3
			C63.8,244.5,70.4,231.5,70.4,210.2z"/>
		<path class="st0" d="M93.3,228.3c0-11.9,7.7-18.9,18.4-21.8v-0.4c-9.1-2.7-14.1-9.1-14.1-17.7c0-13.4,12.1-22.2,27.9-22.2
			c15.9,0,28.1,8.6,28.1,22c0,8.6-5.1,15-14,17.8v0.4c10.7,2.7,18,10.5,18,21.8c0,18.7-15.7,25.9-31.7,25.9S93.3,246.9,93.3,228.3z
			 M146.2,228.2c0-10.6-7.8-17.3-20.7-17.3c-12.9,0-20.5,6.7-20.5,17.3c0,10.6,7.8,16.7,20.9,16.7
			C138.4,244.9,146.2,238.6,146.2,228.2z M142.4,188.8c0-8.4-6.5-13.3-17-13.3c-10.5,0-17,5-17,13.3c0,8.4,6.5,13.4,17,13.4
			C135.9,202.2,142.4,197.1,142.4,188.8z"/>
		<path class="st0" d="M168.8,239.4h12.7v13h-12.7V239.4z"/>
		<path class="st0" d="M194.2,210.2c0-27.1,13.1-43.9,33.1-43.9c20.2,0,33,16.5,33,43.9c0,26.8-12,44-33.1,44
			C206.4,254.2,194.2,237,194.2,210.2z M248.5,210.2c0-20.9-7-34.3-21.2-34.3c-14.4,0-21.5,13.2-21.5,34.3
			c0,20.9,7.1,34.3,21.5,34.3C241.9,244.5,248.5,231.5,248.5,210.2z"/>
		<path class="st0" d="M270.3,229.8h11.2c1.8,8.5,7.7,14.5,19.1,14.5c11.7,0,19.1-7.8,19.1-19.7c0-12.1-8.1-19.3-18.2-19.3
			c-9.3,0-15.2,3.8-18.4,7.8h-10.8l9.1-44.7h44.8v9.9h-36.8l-5.4,25h0.2c4.7-4.8,10.8-7.5,19.5-7.5c14.1,0,27.6,10.6,27.6,29.1
			c0,18-13,29.2-30.4,29.2C283.2,254.1,271.4,243.4,270.3,229.8z"/>
		<path class="st0" d="M342.5,239.4h12.7v13h-12.7V239.4z"/>
		<path class="st0" d="M375.3,229.2c6.4-7.1,15.1-11.9,23.1-16.7c10.5-6,16.6-10.3,16.6-19.9c0-9.9-6.7-16.6-17.4-16.6
			c-5.7,0-9.8,1.8-12.9,5.2c-3.3,3.4-4.7,8-4.7,15.1h-11.7c0-9.4,2.7-16.2,7.8-21.3c5.2-5.5,13.2-8.4,22.4-8.4
			c17.2,0,28.3,11,28.3,25.8c0,15.6-10.3,21-22.9,28.2c-8.7,5.3-20.2,11.7-23.5,20.4l-0.2,0.9h45v10.5h-59
			C366.8,242.2,370.2,235,375.3,229.2z"/>
		<path class="st0" d="M438.4,210.2c0-27.1,13.1-43.9,33.1-43.9c20.2,0,33,16.5,33,43.9c0,26.8-12,44-33.1,44
			C450.6,254.2,438.4,237,438.4,210.2z M492.7,210.2c0-20.9-7-34.3-21.2-34.3c-14.4,0-21.5,13.2-21.5,34.3
			c0,20.9,7.1,34.3,21.5,34.3C486.1,244.5,492.7,231.5,492.7,210.2z"/>
		<path class="st0" d="M535.3,191.8h-19.5v-7.5c10.6-0.2,20.5-4.2,22-16.5h8.8v84.5h-11.4V191.8z"/>
		<path class="st0" d="M564,231.6h11.4c1.1,7,6.7,13.3,17.4,13.3c6.3,0,10.7-1.9,14-5.7c4.8-5.3,7-14.3,7.4-27.5h-0.2
			c-5.4,7.4-13.2,11.9-23.1,11.9c-15.6,0-28.1-12.7-28.2-28.5c-0.1-15.9,12.6-28.8,29.8-28.8c8.4,0,14.9,2.7,19.8,6.5
			c9.5,7.3,12.6,19.3,12.6,37.7c0,16.7-3.4,29.1-11.6,36.4c-5.1,4.7-12,7.2-20.4,7.2C576.5,254.2,565.1,244,564,231.6z M612.6,194.9
			c0-11.6-8.8-19.5-19.9-19.5c-11.3,0-19.2,7.9-19.2,19.5c0,11.4,8.5,19.6,19.1,19.6C604.8,214.5,612.6,206.5,612.6,194.9z"/>
		<path class="st0" d="M681.2,239.5l23.7-23.6h-68V207h68l-23.7-23.6l6.3-6.3l34.3,34.3l-34.3,34.3L681.2,239.5z"/>
		<path class="st0" d="M734,210.2c0-27.1,13.1-43.9,33.1-43.9c20.2,0,33,16.5,33,43.9c0,26.8-12,44-33.1,44
			C746.2,254.2,734,237,734,210.2z M788.3,210.2c0-20.9-7-34.3-21.2-34.3c-14.4,0-21.5,13.2-21.5,34.3c0,20.9,7.1,34.3,21.5,34.3
			C781.7,244.5,788.3,231.5,788.3,210.2z"/>
		<path class="st0" d="M811.2,228.3c0-11.9,7.7-18.9,18.4-21.8v-0.4c-9.1-2.7-14.1-9.1-14.1-17.7c0-13.4,12.1-22.2,27.9-22.2
			c15.9,0,28.1,8.6,28.1,22c0,8.6-5.1,15-14,17.8v0.4c10.7,2.7,18,10.5,18,21.8c0,18.7-15.7,25.9-31.7,25.9
			C827.7,254.2,811.2,246.9,811.2,228.3z M864.1,228.2c0-10.6-7.8-17.3-20.7-17.3c-12.9,0-20.5,6.7-20.5,17.3
			c0,10.6,7.8,16.7,20.9,16.7C856.3,244.9,864.1,238.6,864.1,228.2z M860.4,188.8c0-8.4-6.5-13.3-17-13.3c-10.5,0-17,5-17,13.3
			c0,8.4,6.5,13.4,17,13.4C853.9,202.2,860.4,197.1,860.4,188.8z"/>
		<path class="st0" d="M886.8,239.4h12.7v13h-12.7V239.4z"/>
		<path class="st0" d="M912.1,210.2c0-27.1,13.1-43.9,33.1-43.9c20.2,0,33,16.5,33,43.9c0,26.8-12,44-33.1,44
			C924.4,254.2,912.1,237,912.1,210.2z M966.5,210.2c0-20.9-7-34.3-21.2-34.3c-14.4,0-21.5,13.2-21.5,34.3
			c0,20.9,7.1,34.3,21.5,34.3C959.9,244.5,966.5,231.5,966.5,210.2z"/>
		<path class="st0" d="M1002.4,246.2c-8.7-8-11.7-19.5-11.7-36.3c0-13.1,2.8-24.1,8.4-31.7c5.5-7.5,13.7-11.8,24.5-11.8
			c16.9,0,25.2,11.2,26.8,21.6h-11.2c-0.8-5.8-5.9-12.3-15.3-12.3c-15.8,0-21.8,12.7-22.4,34.5h0.2c5.5-9.2,13-13.2,23.1-13.2
			c15.4,0,27.8,12.6,27.9,28.3c0.1,15.9-12.7,28.9-28.9,28.9C1014.4,254.2,1007.5,251.1,1002.4,246.2z M1042.2,225.7
			c0-11.6-8.1-19.5-18.9-19.5c-11.7,0-19.7,7.7-19.7,19.3c0,11.6,8.7,19.6,20,19.6C1034.3,245.1,1042.2,237.2,1042.2,225.7z"/>
		<path class="st0" d="M1064.7,239.4h12.7v13h-12.7V239.4z"/>
		<path class="st0" d="M1097.4,229.2c6.4-7.1,15.1-11.9,23.1-16.7c10.5-6,16.6-10.3,16.6-19.9c0-9.9-6.7-16.6-17.4-16.6
			c-5.7,0-9.8,1.8-12.9,5.2c-3.3,3.4-4.7,8-4.7,15.1h-11.7c0-9.4,2.7-16.2,7.8-21.3c5.2-5.5,13.2-8.4,22.4-8.4
			c17.2,0,28.3,11,28.3,25.8c0,15.6-10.3,21-22.9,28.2c-8.7,5.3-20.2,11.7-23.5,20.4l-0.2,0.9h45v10.5h-59
			C1089,242.2,1092.4,235,1097.4,229.2z"/>
		<path class="st0" d="M1160.5,210.2c0-27.1,13.1-43.9,33.1-43.9c20.2,0,33,16.5,33,43.9c0,26.8-12,44-33.1,44
			C1172.8,254.2,1160.5,237,1160.5,210.2z M1214.9,210.2c0-20.9-7-34.3-21.2-34.3c-14.4,0-21.5,13.2-21.5,34.3
			c0,20.9,7.1,34.3,21.5,34.3C1208.3,244.5,1214.9,231.5,1214.9,210.2z"/>
		<path class="st0" d="M1257.4,191.8H1238v-7.5c10.6-0.2,20.5-4.2,22-16.5h8.8v84.5h-11.4V191.8z"/>
		<path class="st0" d="M1286.2,231.6h11.4c1.1,7,6.7,13.3,17.4,13.3c6.3,0,10.7-1.9,14-5.7c4.8-5.3,7-14.3,7.4-27.5h-0.2
			c-5.4,7.4-13.2,11.9-23.1,11.9c-15.6,0-28.1-12.7-28.2-28.5c-0.1-15.9,12.6-28.8,29.8-28.8c8.4,0,14.9,2.7,19.8,6.5
			c9.5,7.3,12.6,19.3,12.6,37.7c0,16.7-3.4,29.1-11.6,36.4c-5.1,4.7-12,7.2-20.4,7.2C1298.7,254.2,1287.3,244,1286.2,231.6z
			 M1334.8,194.9c0-11.6-8.8-19.5-19.9-19.5c-11.3,0-19.2,7.9-19.2,19.5c0,11.4,8.5,19.6,19.1,19.6
			C1327,214.5,1334.8,206.5,1334.8,194.9z"/>
	</g>
</g>
</svg>
